solid OpenSCAD_Model
  facet normal 0 0 -1
    outer loop
      vertex 40 -7 0
      vertex 50 0 0
      vertex 49.7815 -2.07912 0
    endloop
  endfacet
  facet normal 0 0 -1
    outer loop
      vertex 40 -7 0
      vertex 49.7815 -2.07912 0
      vertex 49.1355 -4.06737 0
    endloop
  endfacet
  facet normal 0 0 -1
    outer loop
      vertex 40 7 0
      vertex 50 0 0
      vertex 40 -7 0
    endloop
  endfacet
  facet normal 0 0 -1
    outer loop
      vertex 40 -7 0
      vertex 49.1355 -4.06737 0
      vertex 48.0902 -5.87785 0
    endloop
  endfacet
  facet normal 0 0 -1
    outer loop
      vertex 50 0 0
      vertex 40 7 0
      vertex 49.7815 2.07912 0
    endloop
  endfacet
  facet normal 0 0 -1
    outer loop
      vertex 40 -7 0
      vertex 48.0902 -5.87785 0
      vertex 46.6913 -7.43145 0
    endloop
  endfacet
  facet normal 0 0 -1
    outer loop
      vertex 49.7815 2.07912 0
      vertex 40 7 0
      vertex 49.1355 4.06737 0
    endloop
  endfacet
  facet normal 0 0 -1
    outer loop
      vertex 40 -7 0
      vertex 46.6913 -7.43145 0
      vertex 45 -8.66025 0
    endloop
  endfacet
  facet normal 0 0 -1
    outer loop
      vertex 49.1355 4.06737 0
      vertex 40 7 0
      vertex 48.0902 5.87785 0
    endloop
  endfacet
  facet normal 0 0 -1
    outer loop
      vertex 40 -7 0
      vertex 45 -8.66025 0
      vertex 43.0902 -9.51056 0
    endloop
  endfacet
  facet normal 0 0 -1
    outer loop
      vertex 48.0902 5.87785 0
      vertex 40 7 0
      vertex 46.6913 7.43145 0
    endloop
  endfacet
  facet normal 0 0 -1
    outer loop
      vertex 40 -7 0
      vertex 43.0902 -9.51056 0
      vertex 41.0453 -9.94522 0
    endloop
  endfacet
  facet normal -0 0 -1
    outer loop
      vertex 46.6913 7.43145 0
      vertex 40 7 0
      vertex 45 8.66025 0
    endloop
  endfacet
  facet normal -0 0 -1
    outer loop
      vertex 45 8.66025 0
      vertex 40 7 0
      vertex 43.0902 9.51056 0
    endloop
  endfacet
  facet normal 0 0 -1
    outer loop
      vertex 41.0453 -9.94522 0
      vertex 0 -7 0
      vertex 40 -7 0
    endloop
  endfacet
  facet normal 0 0 -1
    outer loop
      vertex -3.09017 -9.51056 0
      vertex 0 -7 0
      vertex -1.04528 -9.94522 0
    endloop
  endfacet
  facet normal 0 0 -1
    outer loop
      vertex -1.04528 -9.94522 0
      vertex 0 -7 0
      vertex 41.0453 -9.94522 0
    endloop
  endfacet
  facet normal -0 0 -1
    outer loop
      vertex 43.0902 9.51056 0
      vertex 40 7 0
      vertex 41.0453 9.94522 0
    endloop
  endfacet
  facet normal 0 0 -1
    outer loop
      vertex 30 9.94522 0
      vertex 40 7 0
      vertex 30 7 0
    endloop
  endfacet
  facet normal 0 0 -1
    outer loop
      vertex 40 7 0
      vertex 30 9.94522 0
      vertex 41.0453 9.94522 0
    endloop
  endfacet
  facet normal 0 0 -1
    outer loop
      vertex 0 7 0
      vertex 10 9.94522 0
      vertex 10 7 0
    endloop
  endfacet
  facet normal 0 0 -1
    outer loop
      vertex 0 7 0
      vertex -1.04528 9.94522 0
      vertex 10 9.94522 0
    endloop
  endfacet
  facet normal 0 0 -1
    outer loop
      vertex -5 -8.66025 0
      vertex 0 -7 0
      vertex -3.09017 -9.51056 0
    endloop
  endfacet
  facet normal 0 0 -1
    outer loop
      vertex -6.69131 -7.43145 0
      vertex 0 -7 0
      vertex -5 -8.66025 0
    endloop
  endfacet
  facet normal 0 0 -1
    outer loop
      vertex 0 7 0
      vertex -3.09017 9.51056 0
      vertex -1.04528 9.94522 0
    endloop
  endfacet
  facet normal 0 0 -1
    outer loop
      vertex 0 7 0
      vertex -5 8.66025 0
      vertex -3.09017 9.51056 0
    endloop
  endfacet
  facet normal 0 0 -1
    outer loop
      vertex -8.09017 -5.87785 0
      vertex 0 -7 0
      vertex -6.69131 -7.43145 0
    endloop
  endfacet
  facet normal 0 0 -1
    outer loop
      vertex -9.13545 -4.06737 0
      vertex 0 -7 0
      vertex -8.09017 -5.87785 0
    endloop
  endfacet
  facet normal 0 0 -1
    outer loop
      vertex 0 7 0
      vertex -6.69131 7.43145 0
      vertex -5 8.66025 0
    endloop
  endfacet
  facet normal 0 0 -1
    outer loop
      vertex -9.78148 -2.07912 0
      vertex 0 -7 0
      vertex -9.13545 -4.06737 0
    endloop
  endfacet
  facet normal -0 0 -1
    outer loop
      vertex 0 7 0
      vertex -8.09017 5.87785 0
      vertex -6.69131 7.43145 0
    endloop
  endfacet
  facet normal 0 0 -1
    outer loop
      vertex -10 0 0
      vertex 0 -7 0
      vertex -9.78148 -2.07912 0
    endloop
  endfacet
  facet normal 0 0 -1
    outer loop
      vertex 0 7 0
      vertex -9.13545 4.06737 0
      vertex -8.09017 5.87785 0
    endloop
  endfacet
  facet normal 0 0 -1
    outer loop
      vertex 0 -7 0
      vertex -10 0 0
      vertex 0 7 0
    endloop
  endfacet
  facet normal 0 0 -1
    outer loop
      vertex 0 7 0
      vertex -9.78148 2.07912 0
      vertex -9.13545 4.06737 0
    endloop
  endfacet
  facet normal 0 0 -1
    outer loop
      vertex 0 7 0
      vertex -10 0 0
      vertex -9.78148 2.07912 0
    endloop
  endfacet
  facet normal 0.866026 -0.499998 0
    outer loop
      vertex 48.0902 -5.87785 25
      vertex 49.1355 -4.06737 0
      vertex 49.1355 -4.06737 25
    endloop
  endfacet
  facet normal 0.866026 -0.499998 0
    outer loop
      vertex 49.1355 -4.06737 0
      vertex 48.0902 -5.87785 25
      vertex 48.0902 -5.87785 0
    endloop
  endfacet
  facet normal 0 -1 0
    outer loop
      vertex -1.04528 -9.94522 25
      vertex 0 -9.94522 21.3333
      vertex 41.0453 -9.94522 25
    endloop
  endfacet
  facet normal 0 -1 0
    outer loop
      vertex -1.04528 -9.94522 25
      vertex 0 -9.94522 14.3333
      vertex 0 -9.94522 21.3333
    endloop
  endfacet
  facet normal 0 -1 0
    outer loop
      vertex 0 -9.94522 14.3333
      vertex 0 -9.94522 10.6667
      vertex 40 -9.94522 14.3333
    endloop
  endfacet
  facet normal 0 -1 0
    outer loop
      vertex -1.04528 -9.94522 25
      vertex 0 -9.94522 10.6667
      vertex 0 -9.94522 14.3333
    endloop
  endfacet
  facet normal 0 -1 0
    outer loop
      vertex -1.04528 -9.94522 0
      vertex 0 -9.94522 10.6667
      vertex -1.04528 -9.94522 25
    endloop
  endfacet
  facet normal 0 -1 -0
    outer loop
      vertex 0 -9.94522 3.66667
      vertex -1.04528 -9.94522 0
      vertex 40 -9.94522 3.66667
    endloop
  endfacet
  facet normal 0 -1 -0
    outer loop
      vertex 0 -9.94522 10.6667
      vertex -1.04528 -9.94522 0
      vertex 0 -9.94522 3.66667
    endloop
  endfacet
  facet normal 0 -1 0
    outer loop
      vertex 40 -9.94522 21.3333
      vertex 41.0453 -9.94522 25
      vertex 0 -9.94522 21.3333
    endloop
  endfacet
  facet normal 0 -1 0
    outer loop
      vertex 40 -9.94522 14.3333
      vertex 41.0453 -9.94522 25
      vertex 40 -9.94522 21.3333
    endloop
  endfacet
  facet normal 0 -1 0
    outer loop
      vertex 40 -9.94522 10.6667
      vertex 40 -9.94522 14.3333
      vertex 0 -9.94522 10.6667
    endloop
  endfacet
  facet normal 0 -1 0
    outer loop
      vertex 40 -9.94522 10.6667
      vertex 41.0453 -9.94522 25
      vertex 40 -9.94522 14.3333
    endloop
  endfacet
  facet normal 0 -1 0
    outer loop
      vertex 41.0453 -9.94522 0
      vertex 40 -9.94522 10.6667
      vertex 40 -9.94522 3.66667
    endloop
  endfacet
  facet normal 0 -1 0
    outer loop
      vertex 40 -9.94522 10.6667
      vertex 41.0453 -9.94522 0
      vertex 41.0453 -9.94522 25
    endloop
  endfacet
  facet normal 0 -1 0
    outer loop
      vertex 41.0453 -9.94522 0
      vertex 40 -9.94522 3.66667
      vertex -1.04528 -9.94522 0
    endloop
  endfacet
  facet normal -0.866026 0.5 0
    outer loop
      vertex -9.13545 4.06737 0
      vertex -8.09017 5.87785 25
      vertex -8.09017 5.87785 0
    endloop
  endfacet
  facet normal -0.866026 0.5 0
    outer loop
      vertex -8.09017 5.87785 25
      vertex -9.13545 4.06737 0
      vertex -9.13545 4.06737 25
    endloop
  endfacet
  facet normal -0.743145 0.669131 0
    outer loop
      vertex -8.09017 5.87785 0
      vertex -6.69131 7.43145 25
      vertex -6.69131 7.43145 0
    endloop
  endfacet
  facet normal -0.743145 0.669131 0
    outer loop
      vertex -6.69131 7.43145 25
      vertex -8.09017 5.87785 0
      vertex -8.09017 5.87785 25
    endloop
  endfacet
  facet normal 0 1 -0
    outer loop
      vertex 10 9.94522 0
      vertex -1.04528 9.94522 25
      vertex 10 9.94522 25
    endloop
  endfacet
  facet normal 0 1 0
    outer loop
      vertex -1.04528 9.94522 25
      vertex 10 9.94522 0
      vertex -1.04528 9.94522 0
    endloop
  endfacet
  facet normal 0 1 -0
    outer loop
      vertex 41.0453 9.94522 0
      vertex 30 9.94522 25
      vertex 41.0453 9.94522 25
    endloop
  endfacet
  facet normal 0 1 0
    outer loop
      vertex 30 9.94522 25
      vertex 41.0453 9.94522 0
      vertex 30 9.94522 0
    endloop
  endfacet
  facet normal 0.743145 0.669131 0
    outer loop
      vertex 48.0902 5.87785 25
      vertex 46.6913 7.43145 0
      vertex 46.6913 7.43145 25
    endloop
  endfacet
  facet normal 0.743145 0.669131 0
    outer loop
      vertex 46.6913 7.43145 0
      vertex 48.0902 5.87785 25
      vertex 48.0902 5.87785 0
    endloop
  endfacet
  facet normal -0.207911 -0.978148 0
    outer loop
      vertex -3.09017 -9.51056 0
      vertex -1.04528 -9.94522 25
      vertex -3.09017 -9.51056 25
    endloop
  endfacet
  facet normal -0.207911 -0.978148 -0
    outer loop
      vertex -1.04528 -9.94522 25
      vertex -3.09017 -9.51056 0
      vertex -1.04528 -9.94522 0
    endloop
  endfacet
  facet normal -0.866026 -0.5 0
    outer loop
      vertex -8.09017 -5.87785 0
      vertex -9.13545 -4.06737 25
      vertex -9.13545 -4.06737 0
    endloop
  endfacet
  facet normal -0.866026 -0.5 0
    outer loop
      vertex -9.13545 -4.06737 25
      vertex -8.09017 -5.87785 0
      vertex -8.09017 -5.87785 25
    endloop
  endfacet
  facet normal -0.994522 -0.104529 0
    outer loop
      vertex -9.78148 -2.07912 0
      vertex -10 0 25
      vertex -10 0 0
    endloop
  endfacet
  facet normal -0.994522 -0.104529 0
    outer loop
      vertex -10 0 25
      vertex -9.78148 -2.07912 0
      vertex -9.78148 -2.07912 25
    endloop
  endfacet
  facet normal 0 0 1
    outer loop
      vertex 10 9.94522 25
      vertex -0.996203 6.92875 25
      vertex 10 6.92875 25
    endloop
  endfacet
  facet normal -0 0 1
    outer loop
      vertex -1.04528 9.94522 25
      vertex -0.996203 6.92875 25
      vertex 10 9.94522 25
    endloop
  endfacet
  facet normal -0 0 1
    outer loop
      vertex -3.09017 9.51056 25
      vertex -0.996203 6.92875 25
      vertex -1.04528 9.94522 25
    endloop
  endfacet
  facet normal 0 0 1
    outer loop
      vertex -0.996203 6.92875 25
      vertex -3.09017 9.51056 25
      vertex -2.9079 6.36742 25
    endloop
  endfacet
  facet normal -0 0 1
    outer loop
      vertex -5 8.66025 25
      vertex -2.9079 6.36742 25
      vertex -3.09017 9.51056 25
    endloop
  endfacet
  facet normal 0 0 1
    outer loop
      vertex -2.9079 6.36742 25
      vertex -5 8.66025 25
      vertex -4.58402 5.29025 25
    endloop
  endfacet
  facet normal -0 0 1
    outer loop
      vertex -6.69131 7.43145 25
      vertex -4.58402 5.29025 25
      vertex -5 8.66025 25
    endloop
  endfacet
  facet normal -0 0 1
    outer loop
      vertex -8.09017 5.87785 25
      vertex -4.58402 5.29025 25
      vertex -6.69131 7.43145 25
    endloop
  endfacet
  facet normal 0 0 1
    outer loop
      vertex -4.58402 5.29025 25
      vertex -8.09017 5.87785 25
      vertex -5.88877 3.78448 25
    endloop
  endfacet
  facet normal -0 0 1
    outer loop
      vertex -9.13545 4.06737 25
      vertex -5.88877 3.78448 25
      vertex -8.09017 5.87785 25
    endloop
  endfacet
  facet normal 0 0 1
    outer loop
      vertex -5.88877 3.78448 25
      vertex -9.13545 4.06737 25
      vertex -6.71645 1.97213 25
    endloop
  endfacet
  facet normal 0 0 1
    outer loop
      vertex 47 0 25
      vertex 50 0 25
      vertex 49.7815 2.07912 25
    endloop
  endfacet
  facet normal 0 0 1
    outer loop
      vertex 46.7164 1.97213 25
      vertex 49.7815 2.07912 25
      vertex 49.1355 4.06737 25
    endloop
  endfacet
  facet normal 0 0 1
    outer loop
      vertex 50 0 25
      vertex 47 0 25
      vertex 49.7815 -2.07912 25
    endloop
  endfacet
  facet normal 0 0 1
    outer loop
      vertex 45.8888 3.78448 25
      vertex 49.1355 4.06737 25
      vertex 48.0902 5.87785 25
    endloop
  endfacet
  facet normal -0 0 1
    outer loop
      vertex 46.7164 -1.97213 25
      vertex 49.7815 -2.07912 25
      vertex 47 0 25
    endloop
  endfacet
  facet normal 0 0 1
    outer loop
      vertex 49.7815 -2.07912 25
      vertex 46.7164 -1.97213 25
      vertex 49.1355 -4.06737 25
    endloop
  endfacet
  facet normal 0 0 1
    outer loop
      vertex 49.7815 2.07912 25
      vertex 46.7164 1.97213 25
      vertex 47 0 25
    endloop
  endfacet
  facet normal 0 0 1
    outer loop
      vertex 44.584 5.29025 25
      vertex 48.0902 5.87785 25
      vertex 46.6913 7.43145 25
    endloop
  endfacet
  facet normal 0 0 1
    outer loop
      vertex 49.1355 4.06737 25
      vertex 45.8888 3.78448 25
      vertex 46.7164 1.97213 25
    endloop
  endfacet
  facet normal 0 0 1
    outer loop
      vertex 44.584 5.29025 25
      vertex 46.6913 7.43145 25
      vertex 45 8.66025 25
    endloop
  endfacet
  facet normal 0 0 1
    outer loop
      vertex 48.0902 5.87785 25
      vertex 44.584 5.29025 25
      vertex 45.8888 3.78448 25
    endloop
  endfacet
  facet normal 0 0 1
    outer loop
      vertex 42.9079 6.36742 25
      vertex 45 8.66025 25
      vertex 43.0902 9.51056 25
    endloop
  endfacet
  facet normal 0 0 1
    outer loop
      vertex 45 8.66025 25
      vertex 42.9079 6.36742 25
      vertex 44.584 5.29025 25
    endloop
  endfacet
  facet normal 0 0 1
    outer loop
      vertex 40.9962 6.92875 25
      vertex 43.0902 9.51056 25
      vertex 41.0453 9.94522 25
    endloop
  endfacet
  facet normal 0 0 1
    outer loop
      vertex 43.0902 9.51056 25
      vertex 40.9962 6.92875 25
      vertex 42.9079 6.36742 25
    endloop
  endfacet
  facet normal -0 0 1
    outer loop
      vertex 30 9.94522 25
      vertex 40.9962 6.92875 25
      vertex 41.0453 9.94522 25
    endloop
  endfacet
  facet normal 0 0 1
    outer loop
      vertex 40.9962 6.92875 25
      vertex 30 9.94522 25
      vertex 30 6.92875 25
    endloop
  endfacet
  facet normal -0 0 1
    outer loop
      vertex 45.8888 -3.78448 25
      vertex 49.1355 -4.06737 25
      vertex 46.7164 -1.97213 25
    endloop
  endfacet
  facet normal 0 0 1
    outer loop
      vertex 49.1355 -4.06737 25
      vertex 45.8888 -3.78448 25
      vertex 48.0902 -5.87785 25
    endloop
  endfacet
  facet normal -0 0 1
    outer loop
      vertex 44.584 -5.29025 25
      vertex 48.0902 -5.87785 25
      vertex 45.8888 -3.78448 25
    endloop
  endfacet
  facet normal 0 0 1
    outer loop
      vertex 48.0902 -5.87785 25
      vertex 44.584 -5.29025 25
      vertex 46.6913 -7.43145 25
    endloop
  endfacet
  facet normal 0 0 1
    outer loop
      vertex 46.6913 -7.43145 25
      vertex 44.584 -5.29025 25
      vertex 45 -8.66025 25
    endloop
  endfacet
  facet normal -0 0 1
    outer loop
      vertex 42.9079 -6.36742 25
      vertex 45 -8.66025 25
      vertex 44.584 -5.29025 25
    endloop
  endfacet
  facet normal 0 0 1
    outer loop
      vertex 45 -8.66025 25
      vertex 42.9079 -6.36742 25
      vertex 43.0902 -9.51056 25
    endloop
  endfacet
  facet normal -0 0 1
    outer loop
      vertex 40.9962 -6.92875 25
      vertex 43.0902 -9.51056 25
      vertex 42.9079 -6.36742 25
    endloop
  endfacet
  facet normal 0 0 1
    outer loop
      vertex 43.0902 -9.51056 25
      vertex 40.9962 -6.92875 25
      vertex 41.0453 -9.94522 25
    endloop
  endfacet
  facet normal -0 0 1
    outer loop
      vertex -0.996203 -6.92875 25
      vertex 41.0453 -9.94522 25
      vertex 40.9962 -6.92875 25
    endloop
  endfacet
  facet normal 0 0 1
    outer loop
      vertex -0.996203 -6.92875 25
      vertex -1.04528 -9.94522 25
      vertex 41.0453 -9.94522 25
    endloop
  endfacet
  facet normal 0 0 1
    outer loop
      vertex -3.09017 -9.51056 25
      vertex -0.996203 -6.92875 25
      vertex -2.9079 -6.36742 25
    endloop
  endfacet
  facet normal 0 0 1
    outer loop
      vertex -0.996203 -6.92875 25
      vertex -3.09017 -9.51056 25
      vertex -1.04528 -9.94522 25
    endloop
  endfacet
  facet normal 0 0 1
    outer loop
      vertex -5 -8.66025 25
      vertex -2.9079 -6.36742 25
      vertex -4.58402 -5.29025 25
    endloop
  endfacet
  facet normal 0 0 1
    outer loop
      vertex -2.9079 -6.36742 25
      vertex -5 -8.66025 25
      vertex -3.09017 -9.51056 25
    endloop
  endfacet
  facet normal 0 0 1
    outer loop
      vertex -8.09017 -5.87785 25
      vertex -4.58402 -5.29025 25
      vertex -5.88877 -3.78448 25
    endloop
  endfacet
  facet normal 0 0 1
    outer loop
      vertex -4.58402 -5.29025 25
      vertex -6.69131 -7.43145 25
      vertex -5 -8.66025 25
    endloop
  endfacet
  facet normal 0 0 1
    outer loop
      vertex -9.13545 -4.06737 25
      vertex -5.88877 -3.78448 25
      vertex -6.71645 -1.97213 25
    endloop
  endfacet
  facet normal 0 0 1
    outer loop
      vertex -9.78148 -2.07912 25
      vertex -6.71645 -1.97213 25
      vertex -7 0 25
    endloop
  endfacet
  facet normal -0 0 1
    outer loop
      vertex -9.78148 2.07912 25
      vertex -6.71645 1.97213 25
      vertex -9.13545 4.06737 25
    endloop
  endfacet
  facet normal 0 0 1
    outer loop
      vertex -4.58402 -5.29025 25
      vertex -8.09017 -5.87785 25
      vertex -6.69131 -7.43145 25
    endloop
  endfacet
  facet normal 0 0 1
    outer loop
      vertex -6.71645 1.97213 25
      vertex -9.78148 2.07912 25
      vertex -7 0 25
    endloop
  endfacet
  facet normal 0 0 1
    outer loop
      vertex -5.88877 -3.78448 25
      vertex -9.13545 -4.06737 25
      vertex -8.09017 -5.87785 25
    endloop
  endfacet
  facet normal 0 0 1
    outer loop
      vertex -10 0 25
      vertex -7 0 25
      vertex -9.78148 2.07912 25
    endloop
  endfacet
  facet normal 0 0 1
    outer loop
      vertex -6.71645 -1.97213 25
      vertex -9.78148 -2.07912 25
      vertex -9.13545 -4.06737 25
    endloop
  endfacet
  facet normal 0 0 1
    outer loop
      vertex -7 0 25
      vertex -10 0 25
      vertex -9.78148 -2.07912 25
    endloop
  endfacet
  facet normal -0.951057 0.309017 0
    outer loop
      vertex -9.78148 2.07912 0
      vertex -9.13545 4.06737 25
      vertex -9.13545 4.06737 0
    endloop
  endfacet
  facet normal -0.951057 0.309017 0
    outer loop
      vertex -9.13545 4.06737 25
      vertex -9.78148 2.07912 0
      vertex -9.78148 2.07912 25
    endloop
  endfacet
  facet normal -0.406737 0.913545 0
    outer loop
      vertex -3.09017 9.51056 0
      vertex -5 8.66025 25
      vertex -3.09017 9.51056 25
    endloop
  endfacet
  facet normal -0.406737 0.913545 0
    outer loop
      vertex -5 8.66025 25
      vertex -3.09017 9.51056 0
      vertex -5 8.66025 0
    endloop
  endfacet
  facet normal -0.207911 0.978148 0
    outer loop
      vertex -1.04528 9.94522 0
      vertex -3.09017 9.51056 25
      vertex -1.04528 9.94522 25
    endloop
  endfacet
  facet normal -0.207911 0.978148 0
    outer loop
      vertex -3.09017 9.51056 25
      vertex -1.04528 9.94522 0
      vertex -3.09017 9.51056 0
    endloop
  endfacet
  facet normal 0.587785 -0.809017 0
    outer loop
      vertex 45 -8.66025 0
      vertex 46.6913 -7.43145 25
      vertex 45 -8.66025 25
    endloop
  endfacet
  facet normal 0.587785 -0.809017 0
    outer loop
      vertex 46.6913 -7.43145 25
      vertex 45 -8.66025 0
      vertex 46.6913 -7.43145 0
    endloop
  endfacet
  facet normal 0.207911 -0.978148 0
    outer loop
      vertex 41.0453 -9.94522 0
      vertex 43.0902 -9.51056 25
      vertex 41.0453 -9.94522 25
    endloop
  endfacet
  facet normal 0.207911 -0.978148 0
    outer loop
      vertex 43.0902 -9.51056 25
      vertex 41.0453 -9.94522 0
      vertex 43.0902 -9.51056 0
    endloop
  endfacet
  facet normal 0.951056 -0.309018 0
    outer loop
      vertex 49.1355 -4.06737 25
      vertex 49.7815 -2.07912 0
      vertex 49.7815 -2.07912 25
    endloop
  endfacet
  facet normal 0.951056 -0.309018 0
    outer loop
      vertex 49.7815 -2.07912 0
      vertex 49.1355 -4.06737 25
      vertex 49.1355 -4.06737 0
    endloop
  endfacet
  facet normal 0.951056 0.309018 0
    outer loop
      vertex 49.7815 2.07912 25
      vertex 49.1355 4.06737 0
      vertex 49.1355 4.06737 25
    endloop
  endfacet
  facet normal 0.951056 0.309018 0
    outer loop
      vertex 49.1355 4.06737 0
      vertex 49.7815 2.07912 25
      vertex 49.7815 2.07912 0
    endloop
  endfacet
  facet normal 0.994522 0.104529 0
    outer loop
      vertex 50 0 25
      vertex 49.7815 2.07912 0
      vertex 49.7815 2.07912 25
    endloop
  endfacet
  facet normal 0.994522 0.104529 0
    outer loop
      vertex 49.7815 2.07912 0
      vertex 50 0 25
      vertex 50 0 0
    endloop
  endfacet
  facet normal -0.587785 -0.809017 0
    outer loop
      vertex -6.69131 -7.43145 0
      vertex -5 -8.66025 25
      vertex -6.69131 -7.43145 25
    endloop
  endfacet
  facet normal -0.587785 -0.809017 -0
    outer loop
      vertex -5 -8.66025 25
      vertex -6.69131 -7.43145 0
      vertex -5 -8.66025 0
    endloop
  endfacet
  facet normal -0.743145 -0.669131 0
    outer loop
      vertex -6.69131 -7.43145 0
      vertex -8.09017 -5.87785 25
      vertex -8.09017 -5.87785 0
    endloop
  endfacet
  facet normal -0.743145 -0.669131 0
    outer loop
      vertex -8.09017 -5.87785 25
      vertex -6.69131 -7.43145 0
      vertex -6.69131 -7.43145 25
    endloop
  endfacet
  facet normal -0.951057 -0.309017 0
    outer loop
      vertex -9.13545 -4.06737 0
      vertex -9.78148 -2.07912 25
      vertex -9.78148 -2.07912 0
    endloop
  endfacet
  facet normal -0.951057 -0.309017 0
    outer loop
      vertex -9.78148 -2.07912 25
      vertex -9.13545 -4.06737 0
      vertex -9.13545 -4.06737 25
    endloop
  endfacet
  facet normal -0.994522 0.104529 0
    outer loop
      vertex -10 0 0
      vertex -9.78148 2.07912 25
      vertex -9.78148 2.07912 0
    endloop
  endfacet
  facet normal -0.994522 0.104529 0
    outer loop
      vertex -9.78148 2.07912 25
      vertex -10 0 0
      vertex -10 0 25
    endloop
  endfacet
  facet normal -0.587785 0.809017 0
    outer loop
      vertex -5 8.66025 0
      vertex -6.69131 7.43145 25
      vertex -5 8.66025 25
    endloop
  endfacet
  facet normal -0.587785 0.809017 0
    outer loop
      vertex -6.69131 7.43145 25
      vertex -5 8.66025 0
      vertex -6.69131 7.43145 0
    endloop
  endfacet
  facet normal 0.587785 0.809017 -0
    outer loop
      vertex 46.6913 7.43145 0
      vertex 45 8.66025 25
      vertex 46.6913 7.43145 25
    endloop
  endfacet
  facet normal 0.587785 0.809017 0
    outer loop
      vertex 45 8.66025 25
      vertex 46.6913 7.43145 0
      vertex 45 8.66025 0
    endloop
  endfacet
  facet normal 0.207911 0.978148 -0
    outer loop
      vertex 43.0902 9.51056 0
      vertex 41.0453 9.94522 25
      vertex 43.0902 9.51056 25
    endloop
  endfacet
  facet normal 0.207911 0.978148 0
    outer loop
      vertex 41.0453 9.94522 25
      vertex 43.0902 9.51056 0
      vertex 41.0453 9.94522 0
    endloop
  endfacet
  facet normal 0.406737 -0.913545 0
    outer loop
      vertex 43.0902 -9.51056 0
      vertex 45 -8.66025 25
      vertex 43.0902 -9.51056 25
    endloop
  endfacet
  facet normal 0.406737 -0.913545 0
    outer loop
      vertex 45 -8.66025 25
      vertex 43.0902 -9.51056 0
      vertex 45 -8.66025 0
    endloop
  endfacet
  facet normal 0.743145 -0.669131 0
    outer loop
      vertex 46.6913 -7.43145 25
      vertex 48.0902 -5.87785 0
      vertex 48.0902 -5.87785 25
    endloop
  endfacet
  facet normal 0.743145 -0.669131 0
    outer loop
      vertex 48.0902 -5.87785 0
      vertex 46.6913 -7.43145 25
      vertex 46.6913 -7.43145 0
    endloop
  endfacet
  facet normal -0.406737 -0.913545 0
    outer loop
      vertex -5 -8.66025 0
      vertex -3.09017 -9.51056 25
      vertex -5 -8.66025 25
    endloop
  endfacet
  facet normal -0.406737 -0.913545 -0
    outer loop
      vertex -3.09017 -9.51056 25
      vertex -5 -8.66025 0
      vertex -3.09017 -9.51056 0
    endloop
  endfacet
  facet normal 0.866026 0.499998 0
    outer loop
      vertex 49.1355 4.06737 25
      vertex 48.0902 5.87785 0
      vertex 48.0902 5.87785 25
    endloop
  endfacet
  facet normal 0.866026 0.499998 0
    outer loop
      vertex 48.0902 5.87785 0
      vertex 49.1355 4.06737 25
      vertex 49.1355 4.06737 0
    endloop
  endfacet
  facet normal 0.406737 0.913545 -0
    outer loop
      vertex 45 8.66025 0
      vertex 43.0902 9.51056 25
      vertex 45 8.66025 25
    endloop
  endfacet
  facet normal 0.406737 0.913545 0
    outer loop
      vertex 43.0902 9.51056 25
      vertex 45 8.66025 0
      vertex 43.0902 9.51056 0
    endloop
  endfacet
  facet normal 0.994522 -0.104529 0
    outer loop
      vertex 49.7815 -2.07912 25
      vertex 50 0 0
      vertex 50 0 25
    endloop
  endfacet
  facet normal 0.994522 -0.104529 0
    outer loop
      vertex 50 0 0
      vertex 49.7815 -2.07912 25
      vertex 49.7815 -2.07912 0
    endloop
  endfacet
  facet normal 0 0 1
    outer loop
      vertex -2.9079 6.36742 1
      vertex 0 6.92875 1
      vertex -0.996203 6.92875 1
    endloop
  endfacet
  facet normal 0 0 1
    outer loop
      vertex -4.58402 5.29025 1
      vertex 0 6.92875 1
      vertex -2.9079 6.36742 1
    endloop
  endfacet
  facet normal 0 0 1
    outer loop
      vertex -5.88877 3.78448 1
      vertex 0 6.92875 1
      vertex -4.58402 5.29025 1
    endloop
  endfacet
  facet normal 0 0 1
    outer loop
      vertex 0 -6.92875 1
      vertex -2.9079 -6.36742 1
      vertex -0.996203 -6.92875 1
    endloop
  endfacet
  facet normal 0 0 1
    outer loop
      vertex 0 6.92875 1
      vertex -5.88877 3.78448 1
      vertex 0 -6.92875 1
    endloop
  endfacet
  facet normal 0 0 1
    outer loop
      vertex 0 -6.92875 1
      vertex -4.58402 -5.29025 1
      vertex -2.9079 -6.36742 1
    endloop
  endfacet
  facet normal -0 0 1
    outer loop
      vertex -5.88877 -3.78448 1
      vertex 0 -6.92875 1
      vertex -5.88877 3.78448 1
    endloop
  endfacet
  facet normal 0 0 1
    outer loop
      vertex 0 -6.92875 1
      vertex -5.88877 -3.78448 1
      vertex -4.58402 -5.29025 1
    endloop
  endfacet
  facet normal -0 0 1
    outer loop
      vertex -6.71645 1.97213 1
      vertex -5.88877 -3.78448 1
      vertex -5.88877 3.78448 1
    endloop
  endfacet
  facet normal 0 0 1
    outer loop
      vertex -6.71645 1.97213 1
      vertex -6.71645 -1.97213 1
      vertex -5.88877 -3.78448 1
    endloop
  endfacet
  facet normal 0 -0 1
    outer loop
      vertex -6.71645 -1.97213 1
      vertex -6.71645 1.97213 1
      vertex -7 0 1
    endloop
  endfacet
  facet normal 0 0 1
    outer loop
      vertex 46.7164 1.97213 1
      vertex 46.7164 -1.97213 1
      vertex 47 0 1
    endloop
  endfacet
  facet normal 0 0 1
    outer loop
      vertex 45.8888 3.78448 1
      vertex 46.7164 -1.97213 1
      vertex 46.7164 1.97213 1
    endloop
  endfacet
  facet normal 0 0 1
    outer loop
      vertex 45.8888 3.78448 1
      vertex 45.8888 -3.78448 1
      vertex 46.7164 -1.97213 1
    endloop
  endfacet
  facet normal 0 0 1
    outer loop
      vertex 40 6.92875 1
      vertex 45.8888 3.78448 1
      vertex 44.584 5.29025 1
    endloop
  endfacet
  facet normal 0 0 1
    outer loop
      vertex 45.8888 3.78448 1
      vertex 40 6.92875 1
      vertex 45.8888 -3.78448 1
    endloop
  endfacet
  facet normal 0 0 1
    outer loop
      vertex 40 6.92875 1
      vertex 44.584 5.29025 1
      vertex 42.9079 6.36742 1
    endloop
  endfacet
  facet normal 0 0 1
    outer loop
      vertex 40 -6.92875 1
      vertex 45.8888 -3.78448 1
      vertex 40 6.92875 1
    endloop
  endfacet
  facet normal -0 0 1
    outer loop
      vertex 40 6.92875 1
      vertex 42.9079 6.36742 1
      vertex 40.9962 6.92875 1
    endloop
  endfacet
  facet normal 0 0 1
    outer loop
      vertex 45.8888 -3.78448 1
      vertex 40 -6.92875 1
      vertex 44.584 -5.29025 1
    endloop
  endfacet
  facet normal 0 0 1
    outer loop
      vertex 44.584 -5.29025 1
      vertex 40 -6.92875 1
      vertex 42.9079 -6.36742 1
    endloop
  endfacet
  facet normal 0 0 1
    outer loop
      vertex 42.9079 -6.36742 1
      vertex 40 -6.92875 1
      vertex 40.9962 -6.92875 1
    endloop
  endfacet
  facet normal 0 0 -1
    outer loop
      vertex 0 -7 1
      vertex 40 -6.92875 1
      vertex 40 -7 1
    endloop
  endfacet
  facet normal -0 0 -1
    outer loop
      vertex 40 -6.92875 1
      vertex 0 -7 1
      vertex 0 -6.92875 1
    endloop
  endfacet
  facet normal 0 0 -1
    outer loop
      vertex 30 6.92875 1
      vertex 40 7 1
      vertex 40 6.92875 1
    endloop
  endfacet
  facet normal -0 0 -1
    outer loop
      vertex 40 7 1
      vertex 30 6.92875 1
      vertex 30 7 1
    endloop
  endfacet
  facet normal 0 0 -1
    outer loop
      vertex 0 6.92875 1
      vertex 10 7 1
      vertex 10 6.92875 1
    endloop
  endfacet
  facet normal -0 0 -1
    outer loop
      vertex 10 7 1
      vertex 0 6.92875 1
      vertex 0 7 1
    endloop
  endfacet
  facet normal -0.755749 -0.654861 0
    outer loop
      vertex 45.8888 3.78448 1
      vertex 44.584 5.29025 25
      vertex 44.584 5.29025 1
    endloop
  endfacet
  facet normal -0.755749 -0.654861 0
    outer loop
      vertex 44.584 5.29025 25
      vertex 45.8888 3.78448 1
      vertex 45.8888 3.78448 25
    endloop
  endfacet
  facet normal -0.989821 -0.142315 0
    outer loop
      vertex 47 0 1
      vertex 46.7164 1.97213 25
      vertex 46.7164 1.97213 1
    endloop
  endfacet
  facet normal -0.989821 -0.142315 0
    outer loop
      vertex 46.7164 1.97213 25
      vertex 47 0 1
      vertex 47 0 25
    endloop
  endfacet
  facet normal 0 1 0
    outer loop
      vertex 40.9962 -6.92875 25
      vertex 40 -6.92875 21.3333
      vertex -0.996203 -6.92875 25
    endloop
  endfacet
  facet normal 0 1 0
    outer loop
      vertex 40.9962 -6.92875 25
      vertex 40 -6.92875 14.3333
      vertex 40 -6.92875 21.3333
    endloop
  endfacet
  facet normal 0 1 0
    outer loop
      vertex 40 -6.92875 14.3333
      vertex 40 -6.92875 10.6667
      vertex 0 -6.92875 14.3333
    endloop
  endfacet
  facet normal 0 1 0
    outer loop
      vertex 40.9962 -6.92875 25
      vertex 40 -6.92875 10.6667
      vertex 40 -6.92875 14.3333
    endloop
  endfacet
  facet normal 0 1 -0
    outer loop
      vertex 40.9962 -6.92875 1
      vertex 40 -6.92875 10.6667
      vertex 40.9962 -6.92875 25
    endloop
  endfacet
  facet normal 0 1 0
    outer loop
      vertex 40 -6.92875 1
      vertex 40 -6.92875 3.66667
      vertex 40.9962 -6.92875 1
    endloop
  endfacet
  facet normal 0 1 0
    outer loop
      vertex 40 -6.92875 10.6667
      vertex 40.9962 -6.92875 1
      vertex 40 -6.92875 3.66667
    endloop
  endfacet
  facet normal 0 1 -0
    outer loop
      vertex 0 -6.92875 21.3333
      vertex -0.996203 -6.92875 25
      vertex 40 -6.92875 21.3333
    endloop
  endfacet
  facet normal 0 1 -0
    outer loop
      vertex 0 -6.92875 14.3333
      vertex -0.996203 -6.92875 25
      vertex 0 -6.92875 21.3333
    endloop
  endfacet
  facet normal 0 1 0
    outer loop
      vertex 0 -6.92875 10.6667
      vertex 0 -6.92875 14.3333
      vertex 40 -6.92875 10.6667
    endloop
  endfacet
  facet normal 0 1 -0
    outer loop
      vertex 0 -6.92875 10.6667
      vertex -0.996203 -6.92875 25
      vertex 0 -6.92875 14.3333
    endloop
  endfacet
  facet normal 0 1 0
    outer loop
      vertex -0.996203 -6.92875 1
      vertex 0 -6.92875 10.6667
      vertex 0 -6.92875 3.66667
    endloop
  endfacet
  facet normal 0 1 0
    outer loop
      vertex 40 -6.92875 3.66667
      vertex 40 -6.92875 1
      vertex 0 -6.92875 3.66667
    endloop
  endfacet
  facet normal 0 1 0
    outer loop
      vertex 0 -6.92875 1
      vertex 0 -6.92875 3.66667
      vertex 40 -6.92875 1
    endloop
  endfacet
  facet normal 0 1 0
    outer loop
      vertex -0.996203 -6.92875 1
      vertex 0 -6.92875 3.66667
      vertex 0 -6.92875 1
    endloop
  endfacet
  facet normal 0 1 0
    outer loop
      vertex 0 -6.92875 10.6667
      vertex -0.996203 -6.92875 1
      vertex -0.996203 -6.92875 25
    endloop
  endfacet
  facet normal 0.540641 0.841254 -0
    outer loop
      vertex -2.9079 -6.36742 1
      vertex -4.58402 -5.29025 25
      vertex -2.9079 -6.36742 25
    endloop
  endfacet
  facet normal 0.540641 0.841254 0
    outer loop
      vertex -4.58402 -5.29025 25
      vertex -2.9079 -6.36742 1
      vertex -4.58402 -5.29025 1
    endloop
  endfacet
  facet normal 0.540641 -0.841254 0
    outer loop
      vertex -4.58402 5.29025 1
      vertex -2.9079 6.36742 25
      vertex -4.58402 5.29025 25
    endloop
  endfacet
  facet normal 0.540641 -0.841254 0
    outer loop
      vertex -2.9079 6.36742 25
      vertex -4.58402 5.29025 1
      vertex -2.9079 6.36742 1
    endloop
  endfacet
  facet normal 0.75575 -0.654861 0
    outer loop
      vertex -5.88877 3.78448 25
      vertex -4.58402 5.29025 1
      vertex -4.58402 5.29025 25
    endloop
  endfacet
  facet normal 0.75575 -0.654861 0
    outer loop
      vertex -4.58402 5.29025 1
      vertex -5.88877 3.78448 25
      vertex -5.88877 3.78448 1
    endloop
  endfacet
  facet normal 0 -1 0
    outer loop
      vertex 0 6.92875 1
      vertex -0.996203 6.92875 25
      vertex -0.996203 6.92875 1
    endloop
  endfacet
  facet normal 0 -1 0
    outer loop
      vertex -0.996203 6.92875 25
      vertex 0 6.92875 1
      vertex 10 6.92875 25
    endloop
  endfacet
  facet normal 0 -1 -0
    outer loop
      vertex 10 6.92875 25
      vertex 0 6.92875 1
      vertex 10 6.92875 1
    endloop
  endfacet
  facet normal 0 -1 0
    outer loop
      vertex 40 6.92875 1
      vertex 30 6.92875 25
      vertex 30 6.92875 1
    endloop
  endfacet
  facet normal 0 -1 0
    outer loop
      vertex 30 6.92875 25
      vertex 40 6.92875 1
      vertex 40.9962 6.92875 25
    endloop
  endfacet
  facet normal 0 -1 -0
    outer loop
      vertex 40.9962 6.92875 25
      vertex 40 6.92875 1
      vertex 40.9962 6.92875 1
    endloop
  endfacet
  facet normal -0.540641 0.841253 0
    outer loop
      vertex 44.584 -5.29025 1
      vertex 42.9079 -6.36742 25
      vertex 44.584 -5.29025 25
    endloop
  endfacet
  facet normal -0.540641 0.841253 0
    outer loop
      vertex 42.9079 -6.36742 25
      vertex 44.584 -5.29025 1
      vertex 42.9079 -6.36742 1
    endloop
  endfacet
  facet normal -0.909632 -0.415414 0
    outer loop
      vertex 46.7164 1.97213 1
      vertex 45.8888 3.78448 25
      vertex 45.8888 3.78448 1
    endloop
  endfacet
  facet normal -0.909632 -0.415414 0
    outer loop
      vertex 45.8888 3.78448 25
      vertex 46.7164 1.97213 1
      vertex 46.7164 1.97213 25
    endloop
  endfacet
  facet normal 0.281733 0.959493 -0
    outer loop
      vertex -0.996203 -6.92875 1
      vertex -2.9079 -6.36742 25
      vertex -0.996203 -6.92875 25
    endloop
  endfacet
  facet normal 0.281733 0.959493 0
    outer loop
      vertex -2.9079 -6.36742 25
      vertex -0.996203 -6.92875 1
      vertex -2.9079 -6.36742 1
    endloop
  endfacet
  facet normal 0.909632 0.415415 0
    outer loop
      vertex -5.88877 -3.78448 25
      vertex -6.71645 -1.97213 1
      vertex -6.71645 -1.97213 25
    endloop
  endfacet
  facet normal 0.909632 0.415415 0
    outer loop
      vertex -6.71645 -1.97213 1
      vertex -5.88877 -3.78448 25
      vertex -5.88877 -3.78448 1
    endloop
  endfacet
  facet normal 0.989821 0.142315 0
    outer loop
      vertex -6.71645 -1.97213 25
      vertex -7 0 1
      vertex -7 0 25
    endloop
  endfacet
  facet normal 0.989821 0.142315 0
    outer loop
      vertex -7 0 1
      vertex -6.71645 -1.97213 25
      vertex -6.71645 -1.97213 1
    endloop
  endfacet
  facet normal 0.909632 -0.415415 0
    outer loop
      vertex -6.71645 1.97213 25
      vertex -5.88877 3.78448 1
      vertex -5.88877 3.78448 25
    endloop
  endfacet
  facet normal 0.909632 -0.415415 0
    outer loop
      vertex -5.88877 3.78448 1
      vertex -6.71645 1.97213 25
      vertex -6.71645 1.97213 1
    endloop
  endfacet
  facet normal 0.281733 -0.959493 0
    outer loop
      vertex -2.9079 6.36742 1
      vertex -0.996203 6.92875 25
      vertex -2.9079 6.36742 25
    endloop
  endfacet
  facet normal 0.281733 -0.959493 0
    outer loop
      vertex -0.996203 6.92875 25
      vertex -2.9079 6.36742 1
      vertex -0.996203 6.92875 1
    endloop
  endfacet
  facet normal -0.281733 -0.959493 0
    outer loop
      vertex 40.9962 6.92875 1
      vertex 42.9079 6.36742 25
      vertex 40.9962 6.92875 25
    endloop
  endfacet
  facet normal -0.281733 -0.959493 -0
    outer loop
      vertex 42.9079 6.36742 25
      vertex 40.9962 6.92875 1
      vertex 42.9079 6.36742 1
    endloop
  endfacet
  facet normal -0.989821 0.142315 0
    outer loop
      vertex 46.7164 -1.97213 1
      vertex 47 0 25
      vertex 47 0 1
    endloop
  endfacet
  facet normal -0.989821 0.142315 0
    outer loop
      vertex 47 0 25
      vertex 46.7164 -1.97213 1
      vertex 46.7164 -1.97213 25
    endloop
  endfacet
  facet normal 0.75575 0.654861 0
    outer loop
      vertex -4.58402 -5.29025 25
      vertex -5.88877 -3.78448 1
      vertex -5.88877 -3.78448 25
    endloop
  endfacet
  facet normal 0.75575 0.654861 0
    outer loop
      vertex -5.88877 -3.78448 1
      vertex -4.58402 -5.29025 25
      vertex -4.58402 -5.29025 1
    endloop
  endfacet
  facet normal 0.989821 -0.142315 0
    outer loop
      vertex -7 0 25
      vertex -6.71645 1.97213 1
      vertex -6.71645 1.97213 25
    endloop
  endfacet
  facet normal 0.989821 -0.142315 0
    outer loop
      vertex -6.71645 1.97213 1
      vertex -7 0 25
      vertex -7 0 1
    endloop
  endfacet
  facet normal -0.540641 -0.841253 0
    outer loop
      vertex 42.9079 6.36742 1
      vertex 44.584 5.29025 25
      vertex 42.9079 6.36742 25
    endloop
  endfacet
  facet normal -0.540641 -0.841253 -0
    outer loop
      vertex 44.584 5.29025 25
      vertex 42.9079 6.36742 1
      vertex 44.584 5.29025 1
    endloop
  endfacet
  facet normal -0.755749 0.654861 0
    outer loop
      vertex 44.584 -5.29025 1
      vertex 45.8888 -3.78448 25
      vertex 45.8888 -3.78448 1
    endloop
  endfacet
  facet normal -0.755749 0.654861 0
    outer loop
      vertex 45.8888 -3.78448 25
      vertex 44.584 -5.29025 1
      vertex 44.584 -5.29025 25
    endloop
  endfacet
  facet normal -0.281733 0.959493 0
    outer loop
      vertex 42.9079 -6.36742 1
      vertex 40.9962 -6.92875 25
      vertex 42.9079 -6.36742 25
    endloop
  endfacet
  facet normal -0.281733 0.959493 0
    outer loop
      vertex 40.9962 -6.92875 25
      vertex 42.9079 -6.36742 1
      vertex 40.9962 -6.92875 1
    endloop
  endfacet
  facet normal -0.909632 0.415414 0
    outer loop
      vertex 45.8888 -3.78448 1
      vertex 46.7164 -1.97213 25
      vertex 46.7164 -1.97213 1
    endloop
  endfacet
  facet normal -0.909632 0.415414 0
    outer loop
      vertex 46.7164 -1.97213 25
      vertex 45.8888 -3.78448 1
      vertex 45.8888 -3.78448 25
    endloop
  endfacet
  facet normal 1 -0 0
    outer loop
      vertex 0 6.92875 1
      vertex 0 7 0
      vertex 0 7 1
    endloop
  endfacet
  facet normal 1 -0 0
    outer loop
      vertex 0 -6.92875 1
      vertex 0 7 0
      vertex 0 6.92875 1
    endloop
  endfacet
  facet normal 1 0 0
    outer loop
      vertex 0 -7 0
      vertex 0 -6.92875 1
      vertex 0 -7 1
    endloop
  endfacet
  facet normal 1 0 0
    outer loop
      vertex 0 -6.92875 1
      vertex 0 -7 0
      vertex 0 7 0
    endloop
  endfacet
  facet normal -1 0 0
    outer loop
      vertex 40 7 0
      vertex 40 6.92875 1
      vertex 40 7 1
    endloop
  endfacet
  facet normal -1 0 0
    outer loop
      vertex 40 7 0
      vertex 40 -6.92875 1
      vertex 40 6.92875 1
    endloop
  endfacet
  facet normal -1 0 0
    outer loop
      vertex 40 -7 0
      vertex 40 -6.92875 1
      vertex 40 7 0
    endloop
  endfacet
  facet normal -1 -0 0
    outer loop
      vertex 40 -6.92875 1
      vertex 40 -7 0
      vertex 40 -7 1
    endloop
  endfacet
  facet normal 0 -1 0
    outer loop
      vertex 30 7 0
      vertex 40 7 1
      vertex 30 7 1
    endloop
  endfacet
  facet normal 0 -1 -0
    outer loop
      vertex 40 7 1
      vertex 30 7 0
      vertex 40 7 0
    endloop
  endfacet
  facet normal 0 -1 0
    outer loop
      vertex 0 7 0
      vertex 10 7 1
      vertex 0 7 1
    endloop
  endfacet
  facet normal 0 -1 -0
    outer loop
      vertex 10 7 1
      vertex 0 7 0
      vertex 10 7 0
    endloop
  endfacet
  facet normal 0 1 -0
    outer loop
      vertex 40 -7 0
      vertex 0 -7 1
      vertex 40 -7 1
    endloop
  endfacet
  facet normal 0 1 0
    outer loop
      vertex 0 -7 1
      vertex 40 -7 0
      vertex 0 -7 0
    endloop
  endfacet
  facet normal 1 0 0
    outer loop
      vertex 10 9.94522 25
      vertex 10 7 1
      vertex 10 9.94522 0
    endloop
  endfacet
  facet normal 1 -0 0
    outer loop
      vertex 10 6.92875 25
      vertex 10 7 1
      vertex 10 9.94522 25
    endloop
  endfacet
  facet normal 1 0 0
    outer loop
      vertex 10 7 1
      vertex 10 6.92875 25
      vertex 10 6.92875 1
    endloop
  endfacet
  facet normal 1 0 0
    outer loop
      vertex 10 9.94522 0
      vertex 10 7 1
      vertex 10 7 0
    endloop
  endfacet
  facet normal -1 0 0
    outer loop
      vertex 30 7 1
      vertex 30 9.94522 0
      vertex 30 7 0
    endloop
  endfacet
  facet normal -1 0 0
    outer loop
      vertex 30 9.94522 0
      vertex 30 7 1
      vertex 30 9.94522 25
    endloop
  endfacet
  facet normal -1 0 0
    outer loop
      vertex 30 6.92875 25
      vertex 30 7 1
      vertex 30 6.92875 1
    endloop
  endfacet
  facet normal -1 0 0
    outer loop
      vertex 30 7 1
      vertex 30 6.92875 25
      vertex 30 9.94522 25
    endloop
  endfacet
  facet normal 1 -0 0
    outer loop
      vertex 0 -9.94522 10.6667
      vertex 0 -6.92875 3.66667
      vertex 0 -6.92875 10.6667
    endloop
  endfacet
  facet normal 1 0 0
    outer loop
      vertex 0 -6.92875 3.66667
      vertex 0 -9.94522 10.6667
      vertex 0 -9.94522 3.66667
    endloop
  endfacet
  facet normal 0 0 -1
    outer loop
      vertex 0 -9.94522 10.6667
      vertex 40 -6.92875 10.6667
      vertex 40 -9.94522 10.6667
    endloop
  endfacet
  facet normal -0 0 -1
    outer loop
      vertex 40 -6.92875 10.6667
      vertex 0 -9.94522 10.6667
      vertex 0 -6.92875 10.6667
    endloop
  endfacet
  facet normal -1 0 0
    outer loop
      vertex 40 -9.94522 3.66667
      vertex 40 -6.92875 10.6667
      vertex 40 -6.92875 3.66667
    endloop
  endfacet
  facet normal -1 -0 0
    outer loop
      vertex 40 -6.92875 10.6667
      vertex 40 -9.94522 3.66667
      vertex 40 -9.94522 10.6667
    endloop
  endfacet
  facet normal -0 0 1
    outer loop
      vertex 0 -6.92875 3.66667
      vertex 40 -9.94522 3.66667
      vertex 40 -6.92875 3.66667
    endloop
  endfacet
  facet normal 0 0 1
    outer loop
      vertex 40 -9.94522 3.66667
      vertex 0 -6.92875 3.66667
      vertex 0 -9.94522 3.66667
    endloop
  endfacet
  facet normal 1 -0 0
    outer loop
      vertex 0 -9.94522 21.3333
      vertex 0 -6.92875 14.3333
      vertex 0 -6.92875 21.3333
    endloop
  endfacet
  facet normal 1 0 0
    outer loop
      vertex 0 -6.92875 14.3333
      vertex 0 -9.94522 21.3333
      vertex 0 -9.94522 14.3333
    endloop
  endfacet
  facet normal 0 0 -1
    outer loop
      vertex 0 -9.94522 21.3333
      vertex 40 -6.92875 21.3333
      vertex 40 -9.94522 21.3333
    endloop
  endfacet
  facet normal -0 0 -1
    outer loop
      vertex 40 -6.92875 21.3333
      vertex 0 -9.94522 21.3333
      vertex 0 -6.92875 21.3333
    endloop
  endfacet
  facet normal -1 0 0
    outer loop
      vertex 40 -9.94522 14.3333
      vertex 40 -6.92875 21.3333
      vertex 40 -6.92875 14.3333
    endloop
  endfacet
  facet normal -1 -0 0
    outer loop
      vertex 40 -6.92875 21.3333
      vertex 40 -9.94522 14.3333
      vertex 40 -9.94522 21.3333
    endloop
  endfacet
  facet normal -0 0 1
    outer loop
      vertex 0 -6.92875 14.3333
      vertex 40 -9.94522 14.3333
      vertex 40 -6.92875 14.3333
    endloop
  endfacet
  facet normal 0 0 1
    outer loop
      vertex 40 -9.94522 14.3333
      vertex 0 -6.92875 14.3333
      vertex 0 -9.94522 14.3333
    endloop
  endfacet
endsolid OpenSCAD_Model
