solid OpenSCAD_Model
  facet normal -1 0 0
    outer loop
      vertex -1 31 0
      vertex -1 28 3
      vertex -1 31 3
    endloop
  endfacet
  facet normal -1 0 0
    outer loop
      vertex -1 31 0
      vertex -1 3 3
      vertex -1 28 3
    endloop
  endfacet
  facet normal -1 0 0
    outer loop
      vertex -1 0 0
      vertex -1 3 3
      vertex -1 31 0
    endloop
  endfacet
  facet normal -1 -0 0
    outer loop
      vertex -1 3 3
      vertex -1 0 0
      vertex -1 0 3
    endloop
  endfacet
  facet normal -0 0 1
    outer loop
      vertex -1 28 3
      vertex 3 3 3
      vertex 3 28 3
    endloop
  endfacet
  facet normal 0 0 1
    outer loop
      vertex 3 3 3
      vertex -1 28 3
      vertex -1 3 3
    endloop
  endfacet
  facet normal 0 0 -1
    outer loop
      vertex 4.91669 0 0
      vertex 0 3 0
      vertex 4.91669 3 0
    endloop
  endfacet
  facet normal -0 0 -1
    outer loop
      vertex 0 3 0
      vertex -1 0 0
      vertex 0 28 0
    endloop
  endfacet
  facet normal 0 0 -1
    outer loop
      vertex -1 0 0
      vertex 0 3 0
      vertex 4.91669 0 0
    endloop
  endfacet
  facet normal 0 0 -1
    outer loop
      vertex 0 28 0
      vertex 4.91669 31 0
      vertex 4.91669 28 0
    endloop
  endfacet
  facet normal 0 0 -1
    outer loop
      vertex 0 28 0
      vertex -1 31 0
      vertex 4.91669 31 0
    endloop
  endfacet
  facet normal 0 0 -1
    outer loop
      vertex -1 31 0
      vertex 0 28 0
      vertex -1 0 0
    endloop
  endfacet
  facet normal 0 0 -1
    outer loop
      vertex 34 0 0
      vertex 30 3 0
      vertex 34 31 0
    endloop
  endfacet
  facet normal 0 0 -1
    outer loop
      vertex 21.75 0 0
      vertex 30 3 0
      vertex 34 0 0
    endloop
  endfacet
  facet normal -0 0 -1
    outer loop
      vertex 30 3 0
      vertex 21.75 0 0
      vertex 21.75 3 0
    endloop
  endfacet
  facet normal 0 0 -1
    outer loop
      vertex 30 28 0
      vertex 34 31 0
      vertex 30 3 0
    endloop
  endfacet
  facet normal 0 0 -1
    outer loop
      vertex 21.75 31 0
      vertex 30 28 0
      vertex 21.75 28 0
    endloop
  endfacet
  facet normal 0 0 -1
    outer loop
      vertex 30 28 0
      vertex 21.75 31 0
      vertex 34 31 0
    endloop
  endfacet
  facet normal 0 -1 -0
    outer loop
      vertex 11.7226 0 11.6193
      vertex 10.8349 0 2.76383
      vertex 12.4961 0 2.97369
    endloop
  endfacet
  facet normal 0 -1 0
    outer loop
      vertex 7.96135 0 10.7786
      vertex 9.21311 0 2.34742
      vertex 10.8349 0 2.76383
    endloop
  endfacet
  facet normal 0 -1 -0
    outer loop
      vertex 7.96135 0 10.7786
      vertex 7.65628 0 1.73103
      vertex 9.21311 0 2.34742
    endloop
  endfacet
  facet normal 0 -1 0
    outer loop
      vertex 7.96135 0 10.7786
      vertex 6.18898 0 0.924372
      vertex 7.65628 0 1.73103
    endloop
  endfacet
  facet normal 0 -1 0
    outer loop
      vertex 4.91669 0 0
      vertex -1 0 3
      vertex -1 0 0
    endloop
  endfacet
  facet normal 0 -1 0
    outer loop
      vertex -1 0 3
      vertex 4.91669 0 0
      vertex 6.18898 0 0.924372
    endloop
  endfacet
  facet normal 0 -1 0
    outer loop
      vertex 10.2302 0 11.7604
      vertex 11.2323 0 11.7289
      vertex 10.7322 0 11.7762
    endloop
  endfacet
  facet normal 0 -1 0
    outer loop
      vertex 9.73403 0 11.6818
      vertex 11.2323 0 11.7289
      vertex 10.2302 0 11.7604
    endloop
  endfacet
  facet normal 0 -1 0
    outer loop
      vertex 9.73403 0 11.6818
      vertex 11.7226 0 11.6193
      vertex 11.2323 0 11.7289
    endloop
  endfacet
  facet normal 0 -1 0
    outer loop
      vertex 9.25165 0 11.5417
      vertex 11.7226 0 11.6193
      vertex 9.73403 0 11.6818
    endloop
  endfacet
  facet normal 0 -1 0
    outer loop
      vertex 8.79064 0 11.3422
      vertex 11.7226 0 11.6193
      vertex 9.25165 0 11.5417
    endloop
  endfacet
  facet normal 0 -1 0
    outer loop
      vertex 8.35827 0 11.0865
      vertex 11.7226 0 11.6193
      vertex 8.79064 0 11.3422
    endloop
  endfacet
  facet normal 0 -1 0
    outer loop
      vertex 7.96135 0 10.7786
      vertex 11.7226 0 11.6193
      vertex 8.35827 0 11.0865
    endloop
  endfacet
  facet normal 0 -1 0
    outer loop
      vertex 10.8349 0 2.76383
      vertex 11.7226 0 11.6193
      vertex 7.96135 0 10.7786
    endloop
  endfacet
  facet normal 0 -1 0
    outer loop
      vertex 6.18898 0 0.924372
      vertex 7.96135 0 10.7786
      vertex -1 0 3
    endloop
  endfacet
  facet normal 0 -1 0
    outer loop
      vertex 11.7226 0 11.6193
      vertex 12.4961 0 2.97369
      vertex 14.1705 0 2.97369
    endloop
  endfacet
  facet normal 0 -1 0
    outer loop
      vertex 11.7226 0 11.6193
      vertex 14.1705 0 2.97369
      vertex 15.8317 0 2.76383
    endloop
  endfacet
  facet normal 0 -1 0
    outer loop
      vertex 11.7226 0 11.6193
      vertex 15.8317 0 2.76383
      vertex 17.4536 0 2.34742
    endloop
  endfacet
  facet normal 0 -1 0
    outer loop
      vertex 19.0104 0 1.73103
      vertex 11.7226 0 11.6193
      vertex 17.4536 0 2.34742
    endloop
  endfacet
  facet normal 0 -1 0
    outer loop
      vertex 11.7226 0 11.6193
      vertex 19.0104 0 1.73103
      vertex 34 0 4
    endloop
  endfacet
  facet normal 0 -1 0
    outer loop
      vertex 20.4777 0 0.924372
      vertex 34 0 4
      vertex 19.0104 0 1.73103
    endloop
  endfacet
  facet normal 0 -1 0
    outer loop
      vertex 21.75 0 0
      vertex 34 0 4
      vertex 20.4777 0 0.924372
    endloop
  endfacet
  facet normal 0 -1 -0
    outer loop
      vertex 34 0 4
      vertex 21.75 0 0
      vertex 34 0 0
    endloop
  endfacet
  facet normal 0 1 0
    outer loop
      vertex 11.2323 31 11.7289
      vertex 10.2302 31 11.7604
      vertex 10.7322 31 11.7762
    endloop
  endfacet
  facet normal 0 1 0
    outer loop
      vertex 11.2323 31 11.7289
      vertex 9.73403 31 11.6818
      vertex 10.2302 31 11.7604
    endloop
  endfacet
  facet normal 0 1 0
    outer loop
      vertex 11.7226 31 11.6193
      vertex 9.73403 31 11.6818
      vertex 11.2323 31 11.7289
    endloop
  endfacet
  facet normal 0 1 0
    outer loop
      vertex 11.7226 31 11.6193
      vertex 9.25165 31 11.5417
      vertex 9.73403 31 11.6818
    endloop
  endfacet
  facet normal 0 1 0
    outer loop
      vertex 11.7226 31 11.6193
      vertex 8.79064 31 11.3422
      vertex 9.25165 31 11.5417
    endloop
  endfacet
  facet normal 0 1 0
    outer loop
      vertex 11.7226 31 11.6193
      vertex 8.35827 31 11.0865
      vertex 8.79064 31 11.3422
    endloop
  endfacet
  facet normal 0 1 0
    outer loop
      vertex 11.7226 31 11.6193
      vertex 7.96135 31 10.7786
      vertex 8.35827 31 11.0865
    endloop
  endfacet
  facet normal 0 1 -0
    outer loop
      vertex 19.0104 31 1.73103
      vertex 11.7226 31 11.6193
      vertex 34 31 4
    endloop
  endfacet
  facet normal -0 1 -0
    outer loop
      vertex 15.8317 31 2.76383
      vertex 11.7226 31 11.6193
      vertex 17.4536 31 2.34742
    endloop
  endfacet
  facet normal 0 1 0
    outer loop
      vertex 10.8349 31 2.76383
      vertex 11.7226 31 11.6193
      vertex 12.4961 31 2.97369
    endloop
  endfacet
  facet normal 0 1 -0
    outer loop
      vertex 12.4961 31 2.97369
      vertex 11.7226 31 11.6193
      vertex 14.1705 31 2.97369
    endloop
  endfacet
  facet normal -0 1 -0
    outer loop
      vertex 14.1705 31 2.97369
      vertex 11.7226 31 11.6193
      vertex 15.8317 31 2.76383
    endloop
  endfacet
  facet normal 0 1 0
    outer loop
      vertex 11.7226 31 11.6193
      vertex 19.0104 31 1.73103
      vertex 17.4536 31 2.34742
    endloop
  endfacet
  facet normal 0 1 0
    outer loop
      vertex 34 31 4
      vertex 20.4777 31 0.924372
      vertex 19.0104 31 1.73103
    endloop
  endfacet
  facet normal 0 1 0
    outer loop
      vertex 21.75 31 0
      vertex 34 31 4
      vertex 34 31 0
    endloop
  endfacet
  facet normal 0 1 0
    outer loop
      vertex 34 31 4
      vertex 21.75 31 0
      vertex 20.4777 31 0.924372
    endloop
  endfacet
  facet normal 0 1 0
    outer loop
      vertex 11.7226 31 11.6193
      vertex 10.8349 31 2.76383
      vertex 7.96135 31 10.7786
    endloop
  endfacet
  facet normal 0 1 -0
    outer loop
      vertex 9.21311 31 2.34742
      vertex 7.96135 31 10.7786
      vertex 10.8349 31 2.76383
    endloop
  endfacet
  facet normal 0 1 0
    outer loop
      vertex 7.65628 31 1.73103
      vertex 7.96135 31 10.7786
      vertex 9.21311 31 2.34742
    endloop
  endfacet
  facet normal 0 1 0
    outer loop
      vertex 6.18898 31 0.924372
      vertex 7.96135 31 10.7786
      vertex 7.65628 31 1.73103
    endloop
  endfacet
  facet normal 0 1 0
    outer loop
      vertex 7.96135 31 10.7786
      vertex 6.18898 31 0.924372
      vertex -1 31 3
    endloop
  endfacet
  facet normal 0 1 -0
    outer loop
      vertex 4.91669 31 0
      vertex -1 31 3
      vertex 6.18898 31 0.924372
    endloop
  endfacet
  facet normal 0 1 0
    outer loop
      vertex -1 31 3
      vertex 4.91669 31 0
      vertex -1 31 0
    endloop
  endfacet
  facet normal 0.707107 0 -0.707107
    outer loop
      vertex 3 3 3
      vertex 0 28 0
      vertex 3 28 3
    endloop
  endfacet
  facet normal 0.707107 0 -0.707107
    outer loop
      vertex 0 28 0
      vertex 3 3 3
      vertex 0 3 0
    endloop
  endfacet
  facet normal 0 1 0
    outer loop
      vertex 12.6428 3 11.2211
      vertex 10.9195 3 9.75355
      vertex 10.6694 3 9.77719
    endloop
  endfacet
  facet normal 0 1 0
    outer loop
      vertex 12.6428 3 11.2211
      vertex 11.1646 3 9.69876
      vertex 10.9195 3 9.75355
    endloop
  endfacet
  facet normal 0 1 0
    outer loop
      vertex 12.6428 3 11.2211
      vertex 11.4009 3 9.61368
      vertex 11.1646 3 9.69876
    endloop
  endfacet
  facet normal 0 1 0
    outer loop
      vertex 12.6428 3 11.2211
      vertex 11.6247 3 9.49966
      vertex 11.4009 3 9.61368
    endloop
  endfacet
  facet normal 0 1 0
    outer loop
      vertex 12.6428 3 11.2211
      vertex 11.8324 3 9.35848
      vertex 11.6247 3 9.49966
    endloop
  endfacet
  facet normal 0 1 0
    outer loop
      vertex 12.6428 3 11.2211
      vertex 12.0208 3 9.19239
      vertex 11.8324 3 9.35848
    endloop
  endfacet
  facet normal 0 1 0
    outer loop
      vertex 12.6428 3 11.2211
      vertex 12.1869 3 9.00399
      vertex 12.0208 3 9.19239
    endloop
  endfacet
  facet normal 0 1 0
    outer loop
      vertex 12.6428 3 11.2211
      vertex 12.3281 3 8.79626
      vertex 12.1869 3 9.00399
    endloop
  endfacet
  facet normal 0 1 0
    outer loop
      vertex 12.6428 3 11.2211
      vertex 12.4421 3 8.57247
      vertex 12.3281 3 8.79626
    endloop
  endfacet
  facet normal 0 1 0
    outer loop
      vertex 12.6428 3 11.2211
      vertex 12.5272 3 8.33616
      vertex 12.4421 3 8.57247
    endloop
  endfacet
  facet normal 0 1 0
    outer loop
      vertex 18.9283 3 5.68865
      vertex 12.5272 3 8.33616
      vertex 12.6428 3 11.2211
    endloop
  endfacet
  facet normal 0 1 0
    outer loop
      vertex 12.5272 3 8.33616
      vertex 18.9283 3 5.68865
      vertex 12.582 3 8.09104
    endloop
  endfacet
  facet normal 0 1 -0
    outer loop
      vertex 18.382 3 5.17557
      vertex 12.5977 3 7.58996
      vertex 18.5421 3 5.36909
    endloop
  endfacet
  facet normal 0 1 0
    outer loop
      vertex 12.6056 3 7.841
      vertex 18.5421 3 5.36909
      vertex 12.5977 3 7.58996
    endloop
  endfacet
  facet normal 0 1 -0
    outer loop
      vertex 18.5421 3 5.36909
      vertex 12.6056 3 7.841
      vertex 18.7252 3 5.54103
    endloop
  endfacet
  facet normal 0 1 0
    outer loop
      vertex 12.582 3 8.09104
      vertex 18.7252 3 5.54103
      vertex 12.6056 3 7.841
    endloop
  endfacet
  facet normal 0 1 -0
    outer loop
      vertex 18.7252 3 5.54103
      vertex 12.582 3 8.09104
      vertex 18.9283 3 5.68865
    endloop
  endfacet
  facet normal 0 1 -0
    outer loop
      vertex 18.9283 3 5.68865
      vertex 12.6428 3 11.2211
      vertex 19.1484 3 5.80965
    endloop
  endfacet
  facet normal 0 1 -0
    outer loop
      vertex 19.1484 3 5.80965
      vertex 12.6428 3 11.2211
      vertex 19.382 3 5.90211
    endloop
  endfacet
  facet normal 0 1 -0
    outer loop
      vertex 19.382 3 5.90211
      vertex 12.6428 3 11.2211
      vertex 19.6252 3 5.96457
    endloop
  endfacet
  facet normal 0 1 -0
    outer loop
      vertex 19.6252 3 5.96457
      vertex 12.6428 3 11.2211
      vertex 19.8744 3 5.99605
    endloop
  endfacet
  facet normal 0 1 -0
    outer loop
      vertex 19.8744 3 5.99605
      vertex 12.6428 3 11.2211
      vertex 20.1256 3 5.99605
    endloop
  endfacet
  facet normal 0 1 0
    outer loop
      vertex 12.6428 3 11.2211
      vertex 20.3748 3 5.96457
      vertex 20.1256 3 5.99605
    endloop
  endfacet
  facet normal 0 1 0
    outer loop
      vertex 12.6428 3 11.2211
      vertex 20.618 3 5.90211
      vertex 20.3748 3 5.96457
    endloop
  endfacet
  facet normal 0 1 0
    outer loop
      vertex 12.6428 3 11.2211
      vertex 20.8516 3 5.80965
      vertex 20.618 3 5.90211
    endloop
  endfacet
  facet normal 0 1 0
    outer loop
      vertex 30 3 4
      vertex 20.8516 3 5.80965
      vertex 12.6428 3 11.2211
    endloop
  endfacet
  facet normal 0 1 -0
    outer loop
      vertex 30 3 4
      vertex 12.6428 3 11.2211
      vertex 34 3 4
    endloop
  endfacet
  facet normal 0 1 0
    outer loop
      vertex 20.8516 3 5.80965
      vertex 30 3 4
      vertex 21.0717 3 5.68865
    endloop
  endfacet
  facet normal 0 1 0
    outer loop
      vertex 21.0717 3 5.68865
      vertex 30 3 4
      vertex 21.2748 3 5.54103
    endloop
  endfacet
  facet normal 0 1 0
    outer loop
      vertex 21.2748 3 5.54103
      vertex 30 3 4
      vertex 21.4579 3 5.36909
    endloop
  endfacet
  facet normal 0 1 0
    outer loop
      vertex 21.4579 3 5.36909
      vertex 30 3 4
      vertex 21.618 3 5.17557
    endloop
  endfacet
  facet normal 0 1 0
    outer loop
      vertex 21.618 3 5.17557
      vertex 30 3 4
      vertex 21.7526 3 4.96351
    endloop
  endfacet
  facet normal 0 1 0
    outer loop
      vertex 21.7526 3 4.96351
      vertex 30 3 4
      vertex 21.8596 3 4.73625
    endloop
  endfacet
  facet normal 0 1 0
    outer loop
      vertex 21.8596 3 4.73625
      vertex 30 3 4
      vertex 21.9372 3 4.49738
    endloop
  endfacet
  facet normal 0 1 0
    outer loop
      vertex 21.9372 3 4.49738
      vertex 30 3 4
      vertex 21.9842 3 4.25067
    endloop
  endfacet
  facet normal 0 1 0
    outer loop
      vertex 30 3 4
      vertex 22 3 4
      vertex 21.9842 3 4.25067
    endloop
  endfacet
  facet normal 0 1 0
    outer loop
      vertex 30 3 4
      vertex 21.9842 3 3.74933
      vertex 22 3 4
    endloop
  endfacet
  facet normal 0 1 0
    outer loop
      vertex 30 3 4
      vertex 21.9372 3 3.50262
      vertex 21.9842 3 3.74933
    endloop
  endfacet
  facet normal 0 1 0
    outer loop
      vertex 30 3 4
      vertex 21.8596 3 3.26375
      vertex 21.9372 3 3.50262
    endloop
  endfacet
  facet normal 0 1 -0
    outer loop
      vertex 30 3 0
      vertex 21.8596 3 3.26375
      vertex 30 3 4
    endloop
  endfacet
  facet normal 0 1 0
    outer loop
      vertex 21.75 3 0
      vertex 21.8596 3 3.26375
      vertex 30 3 0
    endloop
  endfacet
  facet normal 0 1 0
    outer loop
      vertex 21.8596 3 3.26375
      vertex 21.75 3 0
      vertex 21.7526 3 3.03649
    endloop
  endfacet
  facet normal 0 1 0
    outer loop
      vertex 21.7526 3 3.03649
      vertex 21.75 3 0
      vertex 21.618 3 2.82443
    endloop
  endfacet
  facet normal 0 1 0
    outer loop
      vertex 21.4579 3 2.63091
      vertex 21.75 3 0
      vertex 21.2748 3 2.45897
    endloop
  endfacet
  facet normal 0 1 0
    outer loop
      vertex 21.2748 3 2.45897
      vertex 21.75 3 0
      vertex 21.0717 3 2.31134
    endloop
  endfacet
  facet normal -0 1 0
    outer loop
      vertex 20.4777 3 0.924372
      vertex 21.0717 3 2.31134
      vertex 21.75 3 0
    endloop
  endfacet
  facet normal 0 1 0
    outer loop
      vertex 21.0717 3 2.31134
      vertex 20.4777 3 0.924372
      vertex 20.8516 3 2.19035
    endloop
  endfacet
  facet normal 0 1 0
    outer loop
      vertex 20.4777 3 0.924372
      vertex 19.8744 3 2.00395
      vertex 20.1256 3 2.00395
    endloop
  endfacet
  facet normal 0 1 0
    outer loop
      vertex 20.4777 3 0.924372
      vertex 20.1256 3 2.00395
      vertex 20.3748 3 2.03543
    endloop
  endfacet
  facet normal 0 1 0
    outer loop
      vertex 20.8516 3 2.19035
      vertex 20.4777 3 0.924372
      vertex 20.618 3 2.09789
    endloop
  endfacet
  facet normal 0 1 0
    outer loop
      vertex 19.8744 3 2.00395
      vertex 20.4777 3 0.924372
      vertex 19.0104 3 1.73103
    endloop
  endfacet
  facet normal 0 1 0
    outer loop
      vertex 21.618 3 2.82443
      vertex 21.75 3 0
      vertex 21.4579 3 2.63091
    endloop
  endfacet
  facet normal 0 1 0
    outer loop
      vertex 20.618 3 2.09789
      vertex 20.4777 3 0.924372
      vertex 20.3748 3 2.03543
    endloop
  endfacet
  facet normal 0 1 0
    outer loop
      vertex 10.4184 3 9.7693
      vertex 12.6428 3 11.2211
      vertex 10.6694 3 9.77719
    endloop
  endfacet
  facet normal 0 1 0
    outer loop
      vertex 10.1703 3 9.73001
      vertex 12.6428 3 11.2211
      vertex 10.4184 3 9.7693
    endloop
  endfacet
  facet normal 0 1 0
    outer loop
      vertex 12.6428 3 11.2211
      vertex 10.1703 3 9.73001
      vertex 10.1664 3 9.72886
    endloop
  endfacet
  facet normal 0 1 0
    outer loop
      vertex 12.5977 3 7.58996
      vertex 18.382 3 5.17557
      vertex 12.5584 3 7.34189
    endloop
  endfacet
  facet normal 0 1 -0
    outer loop
      vertex 18.2474 3 4.96351
      vertex 12.5584 3 7.34189
      vertex 18.382 3 5.17557
    endloop
  endfacet
  facet normal 0 1 0
    outer loop
      vertex 12.5584 3 7.34189
      vertex 18.2474 3 4.96351
      vertex 12.4884 3 7.1007
    endloop
  endfacet
  facet normal 0 1 -0
    outer loop
      vertex 18.1404 3 4.73625
      vertex 12.4884 3 7.1007
      vertex 18.2474 3 4.96351
    endloop
  endfacet
  facet normal 0 1 -0
    outer loop
      vertex 14.1705 3 2.97369
      vertex 12.4884 3 7.1007
      vertex 18.1404 3 4.73625
    endloop
  endfacet
  facet normal 0 1 0
    outer loop
      vertex 12.4884 3 7.1007
      vertex 14.1705 3 2.97369
      vertex 12.3886 3 6.87019
    endloop
  endfacet
  facet normal 0 1 0
    outer loop
      vertex 12.3886 3 6.87019
      vertex 14.1705 3 2.97369
      vertex 12.2608 3 6.65401
    endloop
  endfacet
  facet normal 0 1 0
    outer loop
      vertex 12.2608 3 6.65401
      vertex 14.1705 3 2.97369
      vertex 12.1068 3 6.45555
    endloop
  endfacet
  facet normal 0 1 0
    outer loop
      vertex 12.1068 3 6.45555
      vertex 14.1705 3 2.97369
      vertex 11.9292 3 6.27795
    endloop
  endfacet
  facet normal 0 1 0
    outer loop
      vertex 11.9292 3 6.27795
      vertex 12.4961 3 2.97369
      vertex 11.7308 3 6.12401
    endloop
  endfacet
  facet normal 0 1 0
    outer loop
      vertex 11.7308 3 6.12401
      vertex 12.4961 3 2.97369
      vertex 11.5146 3 5.99616
    endloop
  endfacet
  facet normal 0 1 0
    outer loop
      vertex 11.5146 3 5.99616
      vertex 12.4961 3 2.97369
      vertex 11.2841 3 5.89641
    endloop
  endfacet
  facet normal 0 1 0
    outer loop
      vertex 11.2841 3 5.89641
      vertex 12.4961 3 2.97369
      vertex 11.0429 3 5.82634
    endloop
  endfacet
  facet normal 0 1 0
    outer loop
      vertex 10.8349 3 2.76383
      vertex 11.0429 3 5.82634
      vertex 12.4961 3 2.97369
    endloop
  endfacet
  facet normal 0 1 -0
    outer loop
      vertex 12.4961 3 2.97369
      vertex 11.9292 3 6.27795
      vertex 14.1705 3 2.97369
    endloop
  endfacet
  facet normal 0 1 0
    outer loop
      vertex 15.8317 3 2.76383
      vertex 18.1404 3 4.73625
      vertex 18.0628 3 4.49738
    endloop
  endfacet
  facet normal 0 1 0
    outer loop
      vertex 15.8317 3 2.76383
      vertex 18.0628 3 4.49738
      vertex 18.0158 3 4.25067
    endloop
  endfacet
  facet normal 0 1 0
    outer loop
      vertex 15.8317 3 2.76383
      vertex 18.0158 3 4.25067
      vertex 18.0142 3 4.22641
    endloop
  endfacet
  facet normal 0 1 0
    outer loop
      vertex 15.8317 3 2.76383
      vertex 18.0142 3 4.22641
      vertex 18 3 4
    endloop
  endfacet
  facet normal 0 1 0
    outer loop
      vertex 11.0429 3 5.82634
      vertex 10.8349 3 2.76383
      vertex 10.7948 3 5.78705
    endloop
  endfacet
  facet normal 0 1 0
    outer loop
      vertex 15.8317 3 2.76383
      vertex 18 3 4
      vertex 18.0015 3 3.97574
    endloop
  endfacet
  facet normal 0 1 0
    outer loop
      vertex 15.8317 3 2.76383
      vertex 18.0015 3 3.97574
      vertex 18.0158 3 3.74933
    endloop
  endfacet
  facet normal 0 1 0
    outer loop
      vertex 15.8317 3 2.76383
      vertex 18.0158 3 3.74933
      vertex 18.0628 3 3.50262
    endloop
  endfacet
  facet normal 0 1 0
    outer loop
      vertex 17.4536 3 2.34742
      vertex 18.0628 3 3.50262
      vertex 18.1404 3 3.26375
    endloop
  endfacet
  facet normal 0 1 0
    outer loop
      vertex 17.4536 3 2.34742
      vertex 18.1404 3 3.26375
      vertex 18.2474 3 3.03649
    endloop
  endfacet
  facet normal 0 1 0
    outer loop
      vertex 18.1404 3 4.73625
      vertex 15.8317 3 2.76383
      vertex 14.1705 3 2.97369
    endloop
  endfacet
  facet normal 0 1 0
    outer loop
      vertex 7.65628 3 1.73103
      vertex 9.81231 3 5.94267
      vertex 10.0486 3 5.85759
    endloop
  endfacet
  facet normal 0 1 0
    outer loop
      vertex 7.65628 3 1.73103
      vertex 9.58852 3 6.05669
      vertex 9.81231 3 5.94267
    endloop
  endfacet
  facet normal 0 1 0
    outer loop
      vertex 7.65628 3 1.73103
      vertex 9.38079 3 6.19786
      vertex 9.58852 3 6.05669
    endloop
  endfacet
  facet normal 0 1 0
    outer loop
      vertex 7.65628 3 1.73103
      vertex 9.19239 3 6.36396
      vertex 9.38079 3 6.19786
    endloop
  endfacet
  facet normal 0 1 0
    outer loop
      vertex 7.65628 3 1.73103
      vertex 9.02629 3 6.55236
      vertex 9.19239 3 6.36396
    endloop
  endfacet
  facet normal 0 1 0
    outer loop
      vertex 7.65628 3 1.73103
      vertex 8.88512 3 6.76009
      vertex 9.02629 3 6.55236
    endloop
  endfacet
  facet normal 0 1 0
    outer loop
      vertex 3 3 3
      vertex 8.77109 3 6.98388
      vertex 8.88512 3 6.76009
    endloop
  endfacet
  facet normal 0 1 0
    outer loop
      vertex 3 3 3
      vertex 8.68601 3 7.22019
      vertex 8.77109 3 6.98388
    endloop
  endfacet
  facet normal 0 1 0
    outer loop
      vertex 3 3 3
      vertex 8.63122 3 7.46531
      vertex 8.68601 3 7.22019
    endloop
  endfacet
  facet normal 0 1 0
    outer loop
      vertex 3 3 3
      vertex 8.60759 3 7.71535
      vertex 8.63122 3 7.46531
    endloop
  endfacet
  facet normal 0 1 0
    outer loop
      vertex 3 3 3
      vertex 8.61548 3 7.96639
      vertex 8.60759 3 7.71535
    endloop
  endfacet
  facet normal 0 1 0
    outer loop
      vertex 3 3 3
      vertex 8.65477 3 8.21446
      vertex 8.61548 3 7.96639
    endloop
  endfacet
  facet normal 0 1 0
    outer loop
      vertex 3 3 3
      vertex 8.72484 3 8.45565
      vertex 8.65477 3 8.21446
    endloop
  endfacet
  facet normal 0 1 0
    outer loop
      vertex -1 3 3
      vertex 8.72484 3 8.45565
      vertex 3 3 3
    endloop
  endfacet
  facet normal 0 1 -0
    outer loop
      vertex 8.72484 3 8.45565
      vertex -1 3 3
      vertex 8.82459 3 8.68616
    endloop
  endfacet
  facet normal 0 1 -0
    outer loop
      vertex 8.82459 3 8.68616
      vertex -1 3 3
      vertex 8.95244 3 8.90234
    endloop
  endfacet
  facet normal 0 1 -0
    outer loop
      vertex 8.95244 3 8.90234
      vertex -1 3 3
      vertex 9.09082 3 9.08073
    endloop
  endfacet
  facet normal 0 1 0
    outer loop
      vertex 10.5438 3 5.77916
      vertex 10.8349 3 2.76383
      vertex 10.2937 3 5.8028
    endloop
  endfacet
  facet normal 0 1 0
    outer loop
      vertex 17.4536 3 2.34742
      vertex 18.2474 3 3.03649
      vertex 18.382 3 2.82443
    endloop
  endfacet
  facet normal 0 1 0
    outer loop
      vertex 10.7948 3 5.78705
      vertex 10.8349 3 2.76383
      vertex 10.5438 3 5.77916
    endloop
  endfacet
  facet normal 0 1 0
    outer loop
      vertex 17.4536 3 2.34742
      vertex 18.382 3 2.82443
      vertex 18.5421 3 2.63091
    endloop
  endfacet
  facet normal 0 1 0
    outer loop
      vertex 17.4536 3 2.34742
      vertex 18.5421 3 2.63091
      vertex 18.7252 3 2.45897
    endloop
  endfacet
  facet normal 0 1 0
    outer loop
      vertex 18.0628 3 3.50262
      vertex 17.4536 3 2.34742
      vertex 15.8317 3 2.76383
    endloop
  endfacet
  facet normal 0 1 0
    outer loop
      vertex 19.0104 3 1.73103
      vertex 18.7252 3 2.45897
      vertex 18.9283 3 2.31134
    endloop
  endfacet
  facet normal 0 1 -0
    outer loop
      vertex 19.0104 3 1.73103
      vertex 18.9283 3 2.31134
      vertex 19.1484 3 2.19035
    endloop
  endfacet
  facet normal 0 1 0
    outer loop
      vertex 19.0104 3 1.73103
      vertex 19.1484 3 2.19035
      vertex 19.382 3 2.09789
    endloop
  endfacet
  facet normal 0 1 0
    outer loop
      vertex 19.0104 3 1.73103
      vertex 19.382 3 2.09789
      vertex 19.6252 3 2.03543
    endloop
  endfacet
  facet normal 0 1 0
    outer loop
      vertex 18.7252 3 2.45897
      vertex 19.0104 3 1.73103
      vertex 17.4536 3 2.34742
    endloop
  endfacet
  facet normal 0 1 0
    outer loop
      vertex 19.0104 3 1.73103
      vertex 19.6252 3 2.03543
      vertex 19.8744 3 2.00395
    endloop
  endfacet
  facet normal 0 1 0
    outer loop
      vertex 10.2937 3 5.8028
      vertex 10.8349 3 2.76383
      vertex 10.0486 3 5.85759
    endloop
  endfacet
  facet normal 0 1 0
    outer loop
      vertex 9.21311 3 2.34742
      vertex 10.0486 3 5.85759
      vertex 10.8349 3 2.76383
    endloop
  endfacet
  facet normal 0 1 0
    outer loop
      vertex 7.65628 3 1.73103
      vertex 10.0486 3 5.85759
      vertex 9.21311 3 2.34742
    endloop
  endfacet
  facet normal 0 1 0
    outer loop
      vertex 8.88512 3 6.76009
      vertex 7.65628 3 1.73103
      vertex 3 3 3
    endloop
  endfacet
  facet normal 0 1 -0
    outer loop
      vertex 6.18898 3 0.924372
      vertex 3 3 3
      vertex 7.65628 3 1.73103
    endloop
  endfacet
  facet normal 0 1 -0
    outer loop
      vertex 4.91669 3 0
      vertex 3 3 3
      vertex 6.18898 3 0.924372
    endloop
  endfacet
  facet normal 0 1 0
    outer loop
      vertex 3 3 3
      vertex 4.91669 3 0
      vertex 0 3 0
    endloop
  endfacet
  facet normal 1 -0 0
    outer loop
      vertex 34 28 4
      vertex 34 31 0
      vertex 34 31 4
    endloop
  endfacet
  facet normal 1 -0 0
    outer loop
      vertex 34 3 4
      vertex 34 31 0
      vertex 34 28 4
    endloop
  endfacet
  facet normal 1 0 0
    outer loop
      vertex 34 0 0
      vertex 34 3 4
      vertex 34 0 4
    endloop
  endfacet
  facet normal 1 0 0
    outer loop
      vertex 34 3 4
      vertex 34 0 0
      vertex 34 31 0
    endloop
  endfacet
  facet normal -2.34834e-07 1 3.89701e-07
    outer loop
      vertex 10.1664 3 9.72886
      vertex 8.35827 3 11.0865
      vertex 12.6428 3 11.2211
    endloop
  endfacet
  facet normal -1.47145e-07 1 5.06484e-07
    outer loop
      vertex 9.92913 3 9.65994
      vertex 8.35827 3 11.0865
      vertex 10.1664 3 9.72886
    endloop
  endfacet
  facet normal -1.95929e-07 1 4.52766e-07
    outer loop
      vertex 9.69862 3 9.56019
      vertex 8.35827 3 11.0865
      vertex 9.92913 3 9.65994
    endloop
  endfacet
  facet normal -2.43211e-07 1 4.11245e-07
    outer loop
      vertex 9.48243 3 9.43233
      vertex 8.35827 3 11.0865
      vertex 9.69862 3 9.56019
    endloop
  endfacet
  facet normal -2.92834e-07 1 3.77521e-07
    outer loop
      vertex 9.28398 3 9.2784
      vertex 8.35827 3 11.0865
      vertex 9.48243 3 9.43233
    endloop
  endfacet
  facet normal -3.48846e-07 1 3.48844e-07
    outer loop
      vertex 9.10638 3 9.1008
      vertex 8.35827 3 11.0865
      vertex 9.28398 3 9.2784
    endloop
  endfacet
  facet normal -4.16756e-07 1 3.23259e-07
    outer loop
      vertex 9.09082 3 9.08073
      vertex 8.35827 3 11.0865
      vertex 9.10638 3 9.1008
    endloop
  endfacet
  facet normal -2.34834e-07 1 3.89701e-07
    outer loop
      vertex 8.35827 3 11.0865
      vertex 9.09082 3 9.08073
      vertex -1 3 3
    endloop
  endfacet
  facet normal -0.397148 0 0.917755
    outer loop
      vertex 8.79064 3 11.3422
      vertex 9.25165 0 11.5417
      vertex 9.25165 3 11.5417
    endloop
  endfacet
  facet normal -0.397148 0 0.917755
    outer loop
      vertex 9.25165 0 11.5417
      vertex 8.79064 3 11.3422
      vertex 8.79064 0 11.3422
    endloop
  endfacet
  facet normal -4.8725e-08 1 1.55044e-06
    outer loop
      vertex 12.6428 3 11.2211
      vertex 10.2302 3 11.7604
      vertex 10.7322 3 11.7762
    endloop
  endfacet
  facet normal -8.9397e-07 1 1.1525e-06
    outer loop
      vertex 8.35827 3 11.0865
      vertex -1 3 3
      vertex 7.96135 3 10.7786
    endloop
  endfacet
  facet normal -0.509042 0 0.860742
    outer loop
      vertex 8.35827 3 11.0865
      vertex 8.79064 0 11.3422
      vertex 8.79064 3 11.3422
    endloop
  endfacet
  facet normal -0.509042 0 0.860742
    outer loop
      vertex 8.79064 0 11.3422
      vertex 8.35827 3 11.0865
      vertex 8.35827 0 11.0865
    endloop
  endfacet
  facet normal -0.655513 0 0.755184
    outer loop
      vertex -1 3 3
      vertex 7.96135 0 10.7786
      vertex 7.96135 3 10.7786
    endloop
  endfacet
  facet normal -0.655513 0 0.755184
    outer loop
      vertex 7.96135 0 10.7786
      vertex -1 3 3
      vertex -1 0 3
    endloop
  endfacet
  facet normal 0.323616 0 0.946188
    outer loop
      vertex 11.7226 3 11.6193
      vertex 34 0 4
      vertex 34 3 4
    endloop
  endfacet
  facet normal 0.323616 0 0.946188
    outer loop
      vertex 34 0 4
      vertex 11.7226 3 11.6193
      vertex 11.7226 0 11.6193
    endloop
  endfacet
  facet normal -2.12188e-07 1 7.30358e-07
    outer loop
      vertex 12.6428 3 11.2211
      vertex 9.25165 3 11.5417
      vertex 9.73403 3 11.6818
    endloop
  endfacet
  facet normal 3.7031e-06 1 1.09523e-05
    outer loop
      vertex 12.6428 3 11.2211
      vertex 11.7226 3 11.6193
      vertex 34 3 4
    endloop
  endfacet
  facet normal 0.218144 0 0.975917
    outer loop
      vertex 11.2323 3 11.7289
      vertex 11.7226 0 11.6193
      vertex 11.7226 3 11.6193
    endloop
  endfacet
  facet normal 0.218144 0 0.975917
    outer loop
      vertex 11.7226 0 11.6193
      vertex 11.2323 3 11.7289
      vertex 11.2323 0 11.7289
    endloop
  endfacet
  facet normal 0.094108 0 0.995562
    outer loop
      vertex 10.7322 3 11.7762
      vertex 11.2323 0 11.7289
      vertex 11.2323 3 11.7289
    endloop
  endfacet
  facet normal 0.094108 0 0.995562
    outer loop
      vertex 11.2323 0 11.7289
      vertex 10.7322 3 11.7762
      vertex 10.7322 0 11.7762
    endloop
  endfacet
  facet normal -0.0314111 0 0.999507
    outer loop
      vertex 10.2302 3 11.7604
      vertex 10.7322 0 11.7762
      vertex 10.7322 3 11.7762
    endloop
  endfacet
  facet normal -0.0314111 0 0.999507
    outer loop
      vertex 10.7322 0 11.7762
      vertex 10.2302 3 11.7604
      vertex 10.2302 0 11.7604
    endloop
  endfacet
  facet normal -2.30809e-07 1 5.33368e-07
    outer loop
      vertex 12.6428 3 11.2211
      vertex 8.79064 3 11.3422
      vertex 9.25165 3 11.5417
    endloop
  endfacet
  facet normal -2.35079e-07 1 3.97496e-07
    outer loop
      vertex 12.6428 3 11.2211
      vertex 8.35827 3 11.0865
      vertex 8.79064 3 11.3422
    endloop
  endfacet
  facet normal -0.27899 0 0.960294
    outer loop
      vertex 9.25165 3 11.5417
      vertex 9.73403 0 11.6818
      vertex 9.73403 3 11.6818
    endloop
  endfacet
  facet normal -0.27899 0 0.960294
    outer loop
      vertex 9.73403 0 11.6818
      vertex 9.25165 3 11.5417
      vertex 9.25165 0 11.5417
    endloop
  endfacet
  facet normal -0.612907 0 0.790155
    outer loop
      vertex 7.96135 3 10.7786
      vertex 8.35827 0 11.0865
      vertex 8.35827 3 11.0865
    endloop
  endfacet
  facet normal -0.612907 0 0.790155
    outer loop
      vertex 8.35827 0 11.0865
      vertex 7.96135 3 10.7786
      vertex 7.96135 0 10.7786
    endloop
  endfacet
  facet normal 1.10729e-06 1 4.95373e-06
    outer loop
      vertex 12.6428 3 11.2211
      vertex 11.2323 3 11.7289
      vertex 11.7226 3 11.6193
    endloop
  endfacet
  facet normal 2.40742e-07 1 2.54679e-06
    outer loop
      vertex 12.6428 3 11.2211
      vertex 10.7322 3 11.7762
      vertex 11.2323 3 11.7289
    endloop
  endfacet
  facet normal -0.156434 0 0.987688
    outer loop
      vertex 9.73403 3 11.6818
      vertex 10.2302 0 11.7604
      vertex 10.2302 3 11.7604
    endloop
  endfacet
  facet normal -0.156434 0 0.987688
    outer loop
      vertex 10.2302 0 11.7604
      vertex 9.73403 3 11.6818
      vertex 9.73403 0 11.6818
    endloop
  endfacet
  facet normal -1.63933e-07 1 1.03503e-06
    outer loop
      vertex 12.6428 3 11.2211
      vertex 9.73403 3 11.6818
      vertex 10.2302 3 11.7604
    endloop
  endfacet
  facet normal 0.587785 0 -0.809017
    outer loop
      vertex 4.91669 0 0
      vertex 6.18898 3 0.924372
      vertex 6.18898 0 0.924372
    endloop
  endfacet
  facet normal 0.587785 0 -0.809017
    outer loop
      vertex 6.18898 3 0.924372
      vertex 4.91669 0 0
      vertex 4.91669 3 0
    endloop
  endfacet
  facet normal -0.125333 0 -0.992115
    outer loop
      vertex 14.1705 0 2.97369
      vertex 15.8317 3 2.76383
      vertex 15.8317 0 2.76383
    endloop
  endfacet
  facet normal -0.125333 0 -0.992115
    outer loop
      vertex 15.8317 3 2.76383
      vertex 14.1705 0 2.97369
      vertex 14.1705 3 2.97369
    endloop
  endfacet
  facet normal -0.368125 0 -0.929776
    outer loop
      vertex 17.4536 0 2.34742
      vertex 19.0104 3 1.73103
      vertex 19.0104 0 1.73103
    endloop
  endfacet
  facet normal -0.368125 0 -0.929776
    outer loop
      vertex 19.0104 3 1.73103
      vertex 17.4536 0 2.34742
      vertex 17.4536 3 2.34742
    endloop
  endfacet
  facet normal -0.481754 0 -0.876306
    outer loop
      vertex 19.0104 0 1.73103
      vertex 20.4777 3 0.924372
      vertex 20.4777 0 0.924372
    endloop
  endfacet
  facet normal -0.481754 0 -0.876306
    outer loop
      vertex 20.4777 3 0.924372
      vertex 19.0104 0 1.73103
      vertex 19.0104 3 1.73103
    endloop
  endfacet
  facet normal 0.481754 0 -0.876307
    outer loop
      vertex 6.18898 0 0.924372
      vertex 7.65628 3 1.73103
      vertex 7.65628 0 1.73103
    endloop
  endfacet
  facet normal 0.481754 0 -0.876307
    outer loop
      vertex 7.65628 3 1.73103
      vertex 6.18898 0 0.924372
      vertex 6.18898 3 0.924372
    endloop
  endfacet
  facet normal 0.24869 0 -0.968583
    outer loop
      vertex 9.21311 0 2.34742
      vertex 10.8349 3 2.76383
      vertex 10.8349 0 2.76383
    endloop
  endfacet
  facet normal 0.24869 0 -0.968583
    outer loop
      vertex 10.8349 3 2.76383
      vertex 9.21311 0 2.34742
      vertex 9.21311 3 2.34742
    endloop
  endfacet
  facet normal 0 0 -1
    outer loop
      vertex 12.4961 0 2.97369
      vertex 14.1705 3 2.97369
      vertex 14.1705 0 2.97369
    endloop
  endfacet
  facet normal -0 0 -1
    outer loop
      vertex 14.1705 3 2.97369
      vertex 12.4961 0 2.97369
      vertex 12.4961 3 2.97369
    endloop
  endfacet
  facet normal -0.24869 0 -0.968583
    outer loop
      vertex 15.8317 0 2.76383
      vertex 17.4536 3 2.34742
      vertex 17.4536 0 2.34742
    endloop
  endfacet
  facet normal -0.24869 0 -0.968583
    outer loop
      vertex 17.4536 3 2.34742
      vertex 15.8317 0 2.76383
      vertex 15.8317 3 2.76383
    endloop
  endfacet
  facet normal -0.587785 0 -0.809017
    outer loop
      vertex 20.4777 0 0.924372
      vertex 21.75 3 0
      vertex 21.75 0 0
    endloop
  endfacet
  facet normal -0.587785 0 -0.809017
    outer loop
      vertex 21.75 3 0
      vertex 20.4777 0 0.924372
      vertex 20.4777 3 0.924372
    endloop
  endfacet
  facet normal 0.368125 0 -0.929776
    outer loop
      vertex 7.65628 0 1.73103
      vertex 9.21311 3 2.34742
      vertex 9.21311 0 2.34742
    endloop
  endfacet
  facet normal 0.368125 0 -0.929776
    outer loop
      vertex 9.21311 3 2.34742
      vertex 7.65628 0 1.73103
      vertex 7.65628 3 1.73103
    endloop
  endfacet
  facet normal 0.125333 0 -0.992115
    outer loop
      vertex 10.8349 0 2.76383
      vertex 12.4961 3 2.97369
      vertex 12.4961 0 2.97369
    endloop
  endfacet
  facet normal 0.125333 0 -0.992115
    outer loop
      vertex 12.4961 3 2.97369
      vertex 10.8349 0 2.76383
      vertex 10.8349 3 2.76383
    endloop
  endfacet
  facet normal 0 -1 0
    outer loop
      vertex 10.7948 28 5.78705
      vertex 10.8349 28 2.76383
      vertex 12.4961 28 2.97369
    endloop
  endfacet
  facet normal 0 -1 -0
    outer loop
      vertex 9.38079 28 6.19786
      vertex 9.21311 28 2.34742
      vertex 10.8349 28 2.76383
    endloop
  endfacet
  facet normal 0 -1 0
    outer loop
      vertex 9.19239 28 6.36396
      vertex 9.21311 28 2.34742
      vertex 9.38079 28 6.19786
    endloop
  endfacet
  facet normal 0 -1 0
    outer loop
      vertex 3 28 3
      vertex 6.18898 28 0.924372
      vertex 7.65628 28 1.73103
    endloop
  endfacet
  facet normal 0 -1 0
    outer loop
      vertex 4.91669 28 0
      vertex 3 28 3
      vertex 0 28 0
    endloop
  endfacet
  facet normal 0 -1 0
    outer loop
      vertex 3 28 3
      vertex 4.91669 28 0
      vertex 6.18898 28 0.924372
    endloop
  endfacet
  facet normal 0 -1 0
    outer loop
      vertex 21.9842 28 3.74933
      vertex 30 28 4
      vertex 22 28 4
    endloop
  endfacet
  facet normal 0 -1 0
    outer loop
      vertex 21.9372 28 3.50262
      vertex 30 28 4
      vertex 21.9842 28 3.74933
    endloop
  endfacet
  facet normal 0 -1 0
    outer loop
      vertex 21.8596 28 3.26375
      vertex 30 28 4
      vertex 21.9372 28 3.50262
    endloop
  endfacet
  facet normal 0 -1 0
    outer loop
      vertex 21.75 28 0
      vertex 21.8596 28 3.26375
      vertex 21.7526 28 3.03649
    endloop
  endfacet
  facet normal 0 -1 0
    outer loop
      vertex 21.75 28 0
      vertex 21.7526 28 3.03649
      vertex 21.618 28 2.82443
    endloop
  endfacet
  facet normal 0 -1 0
    outer loop
      vertex 21.75 28 0
      vertex 21.618 28 2.82443
      vertex 21.4579 28 2.63091
    endloop
  endfacet
  facet normal 0 -1 0
    outer loop
      vertex 21.75 28 0
      vertex 21.4579 28 2.63091
      vertex 21.2748 28 2.45897
    endloop
  endfacet
  facet normal 0 -1 0
    outer loop
      vertex 21.75 28 0
      vertex 21.2748 28 2.45897
      vertex 21.0717 28 2.31134
    endloop
  endfacet
  facet normal 0 -1 0
    outer loop
      vertex 20.4777 28 0.924372
      vertex 21.0717 28 2.31134
      vertex 20.8516 28 2.19035
    endloop
  endfacet
  facet normal 0 -1 0
    outer loop
      vertex 20.4777 28 0.924372
      vertex 20.8516 28 2.19035
      vertex 20.618 28 2.09789
    endloop
  endfacet
  facet normal 0 -1 0
    outer loop
      vertex 20.4777 28 0.924372
      vertex 20.618 28 2.09789
      vertex 20.3748 28 2.03543
    endloop
  endfacet
  facet normal 0 -1 0
    outer loop
      vertex 19.8744 28 2.00395
      vertex 20.4777 28 0.924372
      vertex 20.1256 28 2.00395
    endloop
  endfacet
  facet normal 0 -1 0
    outer loop
      vertex 20.1256 28 2.00395
      vertex 20.4777 28 0.924372
      vertex 20.3748 28 2.03543
    endloop
  endfacet
  facet normal 0 -1 -0
    outer loop
      vertex 21.0717 28 2.31134
      vertex 20.4777 28 0.924372
      vertex 21.75 28 0
    endloop
  endfacet
  facet normal 0 -1 -0
    outer loop
      vertex 21.8596 28 3.26375
      vertex 21.75 28 0
      vertex 30 28 0
    endloop
  endfacet
  facet normal 0 -1 0
    outer loop
      vertex 21.8596 28 3.26375
      vertex 30 28 0
      vertex 30 28 4
    endloop
  endfacet
  facet normal 0 -1 0
    outer loop
      vertex 11.7308 28 6.12401
      vertex 18.7252 28 5.54103
      vertex 18.9283 28 5.68865
    endloop
  endfacet
  facet normal 0 -1 0
    outer loop
      vertex 10.7948 28 5.78705
      vertex 18.5421 28 5.36909
      vertex 18.7252 28 5.54103
    endloop
  endfacet
  facet normal 0 -1 0
    outer loop
      vertex 10.7948 28 5.78705
      vertex 18.382 28 5.17557
      vertex 18.5421 28 5.36909
    endloop
  endfacet
  facet normal 0 -1 0
    outer loop
      vertex 10.7948 28 5.78705
      vertex 18.2474 28 4.96351
      vertex 18.382 28 5.17557
    endloop
  endfacet
  facet normal 0 -1 0
    outer loop
      vertex 10.8349 28 2.76383
      vertex 10.5438 28 5.77916
      vertex 10.2937 28 5.8028
    endloop
  endfacet
  facet normal 0 -1 0
    outer loop
      vertex 10.7948 28 5.78705
      vertex 14.1705 28 2.97369
      vertex 18.2474 28 4.96351
    endloop
  endfacet
  facet normal 0 -1 0
    outer loop
      vertex 18.2474 28 4.96351
      vertex 14.1705 28 2.97369
      vertex 18.1404 28 4.73625
    endloop
  endfacet
  facet normal 0 -1 0
    outer loop
      vertex 15.8317 28 2.76383
      vertex 18.1404 28 4.73625
      vertex 14.1705 28 2.97369
    endloop
  endfacet
  facet normal 0 -1 0
    outer loop
      vertex 18.1404 28 4.73625
      vertex 15.8317 28 2.76383
      vertex 18.0628 28 4.49738
    endloop
  endfacet
  facet normal 0 -1 0
    outer loop
      vertex 10.8349 28 2.76383
      vertex 10.2937 28 5.8028
      vertex 10.0486 28 5.85759
    endloop
  endfacet
  facet normal 0 -1 0
    outer loop
      vertex 18.0628 28 4.49738
      vertex 15.8317 28 2.76383
      vertex 18.0158 28 4.25067
    endloop
  endfacet
  facet normal 0 -1 0
    outer loop
      vertex 18.0158 28 4.25067
      vertex 15.8317 28 2.76383
      vertex 18.0015 28 4.02426
    endloop
  endfacet
  facet normal 0 -1 0
    outer loop
      vertex 18.0015 28 4.02426
      vertex 15.8317 28 2.76383
      vertex 18 28 4
    endloop
  endfacet
  facet normal 0 -1 -0
    outer loop
      vertex 18 28 4
      vertex 15.8317 28 2.76383
      vertex 18.0142 28 3.77359
    endloop
  endfacet
  facet normal 0 -1 -0
    outer loop
      vertex 18.0142 28 3.77359
      vertex 15.8317 28 2.76383
      vertex 18.0158 28 3.74933
    endloop
  endfacet
  facet normal 0 -1 -0
    outer loop
      vertex 18.0158 28 3.74933
      vertex 15.8317 28 2.76383
      vertex 18.0628 28 3.50262
    endloop
  endfacet
  facet normal 0 -1 0
    outer loop
      vertex -1 28 3
      vertex 8.95244 28 8.90234
      vertex 9.09082 28 9.08073
    endloop
  endfacet
  facet normal 0 -1 0
    outer loop
      vertex -1 28 3
      vertex 8.82459 28 8.68616
      vertex 8.95244 28 8.90234
    endloop
  endfacet
  facet normal 0 -1 0
    outer loop
      vertex -1 28 3
      vertex 8.72484 28 8.45565
      vertex 8.82459 28 8.68616
    endloop
  endfacet
  facet normal 0 -1 0
    outer loop
      vertex 3 28 3
      vertex 8.72484 28 8.45565
      vertex -1 28 3
    endloop
  endfacet
  facet normal 0 -1 0
    outer loop
      vertex 8.72484 28 8.45565
      vertex 3 28 3
      vertex 8.65477 28 8.21446
    endloop
  endfacet
  facet normal 0 -1 0
    outer loop
      vertex 8.65477 28 8.21446
      vertex 3 28 3
      vertex 8.61548 28 7.96639
    endloop
  endfacet
  facet normal 0 -1 0
    outer loop
      vertex 8.61548 28 7.96639
      vertex 3 28 3
      vertex 8.60759 28 7.71535
    endloop
  endfacet
  facet normal 0 -1 -0
    outer loop
      vertex 8.60759 28 7.71535
      vertex 3 28 3
      vertex 8.63122 28 7.46531
    endloop
  endfacet
  facet normal 0 -1 -0
    outer loop
      vertex 8.63122 28 7.46531
      vertex 3 28 3
      vertex 8.68601 28 7.22019
    endloop
  endfacet
  facet normal 0 -1 -0
    outer loop
      vertex 8.68601 28 7.22019
      vertex 3 28 3
      vertex 8.77109 28 6.98388
    endloop
  endfacet
  facet normal 0 -1 -0
    outer loop
      vertex 8.77109 28 6.98388
      vertex 3 28 3
      vertex 8.88512 28 6.76009
    endloop
  endfacet
  facet normal 0 -1 0
    outer loop
      vertex 7.65628 28 1.73103
      vertex 8.88512 28 6.76009
      vertex 3 28 3
    endloop
  endfacet
  facet normal 0 -1 -0
    outer loop
      vertex 8.88512 28 6.76009
      vertex 7.65628 28 1.73103
      vertex 9.02629 28 6.55236
    endloop
  endfacet
  facet normal 0 -1 -0
    outer loop
      vertex 9.02629 28 6.55236
      vertex 7.65628 28 1.73103
      vertex 9.19239 28 6.36396
    endloop
  endfacet
  facet normal -0 -1 0
    outer loop
      vertex 9.21311 28 2.34742
      vertex 9.19239 28 6.36396
      vertex 7.65628 28 1.73103
    endloop
  endfacet
  facet normal 0 -1 0
    outer loop
      vertex 9.38079 28 6.19786
      vertex 10.8349 28 2.76383
      vertex 9.58852 28 6.05669
    endloop
  endfacet
  facet normal 0 -1 0
    outer loop
      vertex 9.58852 28 6.05669
      vertex 10.8349 28 2.76383
      vertex 9.81231 28 5.94267
    endloop
  endfacet
  facet normal 0 -1 0
    outer loop
      vertex 10.8349 28 2.76383
      vertex 10.0486 28 5.85759
      vertex 9.81231 28 5.94267
    endloop
  endfacet
  facet normal 0 -1 0
    outer loop
      vertex 10.7948 28 5.78705
      vertex 12.4961 28 2.97369
      vertex 14.1705 28 2.97369
    endloop
  endfacet
  facet normal 0 -1 0
    outer loop
      vertex 17.4536 28 2.34742
      vertex 18.0628 28 3.50262
      vertex 15.8317 28 2.76383
    endloop
  endfacet
  facet normal 0 -1 -0
    outer loop
      vertex 18.0628 28 3.50262
      vertex 17.4536 28 2.34742
      vertex 18.1404 28 3.26375
    endloop
  endfacet
  facet normal 0 -1 -0
    outer loop
      vertex 18.1404 28 3.26375
      vertex 17.4536 28 2.34742
      vertex 18.2474 28 3.03649
    endloop
  endfacet
  facet normal 0 -1 -0
    outer loop
      vertex 18.2474 28 3.03649
      vertex 17.4536 28 2.34742
      vertex 18.382 28 2.82443
    endloop
  endfacet
  facet normal 0 -1 -0
    outer loop
      vertex 18.382 28 2.82443
      vertex 17.4536 28 2.34742
      vertex 18.5421 28 2.63091
    endloop
  endfacet
  facet normal 0 -1 -0
    outer loop
      vertex 18.5421 28 2.63091
      vertex 17.4536 28 2.34742
      vertex 18.7252 28 2.45897
    endloop
  endfacet
  facet normal 0 -1 0
    outer loop
      vertex 19.0104 28 1.73103
      vertex 18.7252 28 2.45897
      vertex 17.4536 28 2.34742
    endloop
  endfacet
  facet normal 0 -1 0
    outer loop
      vertex 18.7252 28 2.45897
      vertex 19.0104 28 1.73103
      vertex 18.9283 28 2.31134
    endloop
  endfacet
  facet normal 0 -1 0
    outer loop
      vertex 18.9283 28 2.31134
      vertex 19.0104 28 1.73103
      vertex 19.1484 28 2.19035
    endloop
  endfacet
  facet normal 0 -1 -0
    outer loop
      vertex 19.1484 28 2.19035
      vertex 19.0104 28 1.73103
      vertex 19.382 28 2.09789
    endloop
  endfacet
  facet normal 0 -1 0
    outer loop
      vertex 20.4777 28 0.924372
      vertex 19.8744 28 2.00395
      vertex 19.0104 28 1.73103
    endloop
  endfacet
  facet normal 0 -1 -0
    outer loop
      vertex 19.6252 28 2.03543
      vertex 19.0104 28 1.73103
      vertex 19.8744 28 2.00395
    endloop
  endfacet
  facet normal 0 -1 -0
    outer loop
      vertex 19.382 28 2.09789
      vertex 19.0104 28 1.73103
      vertex 19.6252 28 2.03543
    endloop
  endfacet
  facet normal 0 -1 0
    outer loop
      vertex 12.6428 28 11.2211
      vertex 19.6252 28 5.96457
      vertex 19.8744 28 5.99605
    endloop
  endfacet
  facet normal 0 -1 0
    outer loop
      vertex 11.7308 28 6.12401
      vertex 19.382 28 5.90211
      vertex 19.6252 28 5.96457
    endloop
  endfacet
  facet normal 0 -1 0
    outer loop
      vertex 18.7252 28 5.54103
      vertex 11.5146 28 5.99616
      vertex 11.2841 28 5.89641
    endloop
  endfacet
  facet normal 0 -1 0
    outer loop
      vertex 18.7252 28 5.54103
      vertex 11.2841 28 5.89641
      vertex 11.0429 28 5.82634
    endloop
  endfacet
  facet normal 0 -1 0
    outer loop
      vertex 11.7308 28 6.12401
      vertex 19.1484 28 5.80965
      vertex 19.382 28 5.90211
    endloop
  endfacet
  facet normal 0 -1 0
    outer loop
      vertex 18.7252 28 5.54103
      vertex 11.0429 28 5.82634
      vertex 10.7948 28 5.78705
    endloop
  endfacet
  facet normal 0 -1 0
    outer loop
      vertex 10.8349 28 2.76383
      vertex 10.7948 28 5.78705
      vertex 10.5438 28 5.77916
    endloop
  endfacet
  facet normal 0 -1 0
    outer loop
      vertex 11.7308 28 6.12401
      vertex 18.9283 28 5.68865
      vertex 19.1484 28 5.80965
    endloop
  endfacet
  facet normal 0 -1 0
    outer loop
      vertex 12.6428 28 11.2211
      vertex 10.4184 28 9.7693
      vertex 10.6694 28 9.77719
    endloop
  endfacet
  facet normal 0 -1 0
    outer loop
      vertex 12.6428 28 11.2211
      vertex 10.1703 28 9.73001
      vertex 10.4184 28 9.7693
    endloop
  endfacet
  facet normal -0 -1 0
    outer loop
      vertex 10.1703 28 9.73001
      vertex 12.6428 28 11.2211
      vertex 10.1664 28 9.72886
    endloop
  endfacet
  facet normal 0 -1 0
    outer loop
      vertex 10.9195 28 9.75355
      vertex 12.6428 28 11.2211
      vertex 10.6694 28 9.77719
    endloop
  endfacet
  facet normal 0 -1 0
    outer loop
      vertex 11.1646 28 9.69876
      vertex 12.6428 28 11.2211
      vertex 10.9195 28 9.75355
    endloop
  endfacet
  facet normal 0 -1 0
    outer loop
      vertex 11.4009 28 9.61368
      vertex 12.6428 28 11.2211
      vertex 11.1646 28 9.69876
    endloop
  endfacet
  facet normal 0 -1 0
    outer loop
      vertex 11.6247 28 9.49966
      vertex 12.6428 28 11.2211
      vertex 11.4009 28 9.61368
    endloop
  endfacet
  facet normal 0 -1 0
    outer loop
      vertex 11.8324 28 9.35848
      vertex 12.6428 28 11.2211
      vertex 11.6247 28 9.49966
    endloop
  endfacet
  facet normal 0 -1 0
    outer loop
      vertex 12.0208 28 9.19239
      vertex 12.6428 28 11.2211
      vertex 11.8324 28 9.35848
    endloop
  endfacet
  facet normal 0 -1 0
    outer loop
      vertex 12.1869 28 9.00399
      vertex 12.6428 28 11.2211
      vertex 12.0208 28 9.19239
    endloop
  endfacet
  facet normal 0 -1 0
    outer loop
      vertex 12.3281 28 8.79626
      vertex 12.6428 28 11.2211
      vertex 12.1869 28 9.00399
    endloop
  endfacet
  facet normal 0 -1 0
    outer loop
      vertex 12.4421 28 8.57247
      vertex 12.6428 28 11.2211
      vertex 12.3281 28 8.79626
    endloop
  endfacet
  facet normal 0 -1 0
    outer loop
      vertex 12.5272 28 8.33616
      vertex 12.6428 28 11.2211
      vertex 12.4421 28 8.57247
    endloop
  endfacet
  facet normal 0 -1 0
    outer loop
      vertex 19.6252 28 5.96457
      vertex 12.5272 28 8.33616
      vertex 12.582 28 8.09104
    endloop
  endfacet
  facet normal 0 -1 0
    outer loop
      vertex 19.6252 28 5.96457
      vertex 12.582 28 8.09104
      vertex 12.6056 28 7.841
    endloop
  endfacet
  facet normal 0 -1 0
    outer loop
      vertex 18.7252 28 5.54103
      vertex 11.7308 28 6.12401
      vertex 11.5146 28 5.99616
    endloop
  endfacet
  facet normal 0 -1 0
    outer loop
      vertex 19.6252 28 5.96457
      vertex 11.9292 28 6.27795
      vertex 11.7308 28 6.12401
    endloop
  endfacet
  facet normal 0 -1 0
    outer loop
      vertex 19.6252 28 5.96457
      vertex 12.1068 28 6.45555
      vertex 11.9292 28 6.27795
    endloop
  endfacet
  facet normal 0 -1 0
    outer loop
      vertex 19.6252 28 5.96457
      vertex 12.2608 28 6.65401
      vertex 12.1068 28 6.45555
    endloop
  endfacet
  facet normal 0 -1 0
    outer loop
      vertex 19.6252 28 5.96457
      vertex 12.3886 28 6.87019
      vertex 12.2608 28 6.65401
    endloop
  endfacet
  facet normal 0 -1 0
    outer loop
      vertex 19.6252 28 5.96457
      vertex 12.4884 28 7.1007
      vertex 12.3886 28 6.87019
    endloop
  endfacet
  facet normal 0 -1 0
    outer loop
      vertex 19.6252 28 5.96457
      vertex 12.5584 28 7.34189
      vertex 12.4884 28 7.1007
    endloop
  endfacet
  facet normal 0 -1 0
    outer loop
      vertex 19.6252 28 5.96457
      vertex 12.5977 28 7.58996
      vertex 12.5584 28 7.34189
    endloop
  endfacet
  facet normal 0 -1 0
    outer loop
      vertex 19.6252 28 5.96457
      vertex 12.6056 28 7.841
      vertex 12.5977 28 7.58996
    endloop
  endfacet
  facet normal 0 -1 0
    outer loop
      vertex 19.6252 28 5.96457
      vertex 12.6428 28 11.2211
      vertex 12.5272 28 8.33616
    endloop
  endfacet
  facet normal 0 -1 0
    outer loop
      vertex 20.1256 28 5.99605
      vertex 12.6428 28 11.2211
      vertex 19.8744 28 5.99605
    endloop
  endfacet
  facet normal 0 -1 0
    outer loop
      vertex 20.3748 28 5.96457
      vertex 12.6428 28 11.2211
      vertex 20.1256 28 5.99605
    endloop
  endfacet
  facet normal 0 -1 0
    outer loop
      vertex 20.618 28 5.90211
      vertex 12.6428 28 11.2211
      vertex 20.3748 28 5.96457
    endloop
  endfacet
  facet normal 0 -1 0
    outer loop
      vertex 20.8516 28 5.80965
      vertex 12.6428 28 11.2211
      vertex 20.618 28 5.90211
    endloop
  endfacet
  facet normal 0 -1 0
    outer loop
      vertex 30 28 4
      vertex 20.8516 28 5.80965
      vertex 21.0717 28 5.68865
    endloop
  endfacet
  facet normal 0 -1 0
    outer loop
      vertex 30 28 4
      vertex 21.9842 28 4.25067
      vertex 22 28 4
    endloop
  endfacet
  facet normal 0 -1 0
    outer loop
      vertex 30 28 4
      vertex 21.9372 28 4.49738
      vertex 21.9842 28 4.25067
    endloop
  endfacet
  facet normal 0 -1 0
    outer loop
      vertex 30 28 4
      vertex 21.8596 28 4.73625
      vertex 21.9372 28 4.49738
    endloop
  endfacet
  facet normal 0 -1 0
    outer loop
      vertex 30 28 4
      vertex 21.7526 28 4.96351
      vertex 21.8596 28 4.73625
    endloop
  endfacet
  facet normal 0 -1 0
    outer loop
      vertex 30 28 4
      vertex 21.618 28 5.17557
      vertex 21.7526 28 4.96351
    endloop
  endfacet
  facet normal 0 -1 0
    outer loop
      vertex 30 28 4
      vertex 21.4579 28 5.36909
      vertex 21.618 28 5.17557
    endloop
  endfacet
  facet normal 0 -1 0
    outer loop
      vertex 30 28 4
      vertex 21.2748 28 5.54103
      vertex 21.4579 28 5.36909
    endloop
  endfacet
  facet normal 0 -1 0
    outer loop
      vertex 30 28 4
      vertex 21.0717 28 5.68865
      vertex 21.2748 28 5.54103
    endloop
  endfacet
  facet normal 0 -1 0
    outer loop
      vertex 20.8516 28 5.80965
      vertex 30 28 4
      vertex 12.6428 28 11.2211
    endloop
  endfacet
  facet normal 0 -1 0
    outer loop
      vertex 12.6428 28 11.2211
      vertex 30 28 4
      vertex 34 28 4
    endloop
  endfacet
  facet normal 0 -1 0
    outer loop
      vertex 8.35827 28 11.0865
      vertex 10.1664 28 9.72886
      vertex 12.6428 28 11.2211
    endloop
  endfacet
  facet normal 0 -1 0
    outer loop
      vertex 8.35827 28 11.0865
      vertex 9.92913 28 9.65994
      vertex 10.1664 28 9.72886
    endloop
  endfacet
  facet normal 0 -1 0
    outer loop
      vertex 8.35827 28 11.0865
      vertex 9.69862 28 9.56019
      vertex 9.92913 28 9.65994
    endloop
  endfacet
  facet normal 0 -1 0
    outer loop
      vertex 8.35827 28 11.0865
      vertex 9.48243 28 9.43233
      vertex 9.69862 28 9.56019
    endloop
  endfacet
  facet normal 0 -1 0
    outer loop
      vertex 8.35827 28 11.0865
      vertex 9.28398 28 9.2784
      vertex 9.48243 28 9.43233
    endloop
  endfacet
  facet normal 0 -1 0
    outer loop
      vertex 8.35827 28 11.0865
      vertex 9.10638 28 9.1008
      vertex 9.28398 28 9.2784
    endloop
  endfacet
  facet normal 0 -1 0
    outer loop
      vertex 8.35827 28 11.0865
      vertex 9.09082 28 9.08073
      vertex 9.10638 28 9.1008
    endloop
  endfacet
  facet normal -0 -1 0
    outer loop
      vertex 9.09082 28 9.08073
      vertex 8.35827 28 11.0865
      vertex -1 28 3
    endloop
  endfacet
  facet normal -0.397148 0 0.917755
    outer loop
      vertex 8.79064 31 11.3422
      vertex 9.25165 28 11.5417
      vertex 9.25165 31 11.5417
    endloop
  endfacet
  facet normal -0.397148 0 0.917755
    outer loop
      vertex 9.25165 28 11.5417
      vertex 8.79064 31 11.3422
      vertex 8.79064 28 11.3422
    endloop
  endfacet
  facet normal 0 -1 0
    outer loop
      vertex 12.6428 28 11.2211
      vertex 10.7322 28 11.7762
      vertex 10.2302 28 11.7604
    endloop
  endfacet
  facet normal 0 -1 0
    outer loop
      vertex 8.35827 28 11.0865
      vertex 7.96135 28 10.7786
      vertex -1 28 3
    endloop
  endfacet
  facet normal -0.509042 0 0.860742
    outer loop
      vertex 8.35827 31 11.0865
      vertex 8.79064 28 11.3422
      vertex 8.79064 31 11.3422
    endloop
  endfacet
  facet normal -0.509042 0 0.860742
    outer loop
      vertex 8.79064 28 11.3422
      vertex 8.35827 31 11.0865
      vertex 8.35827 28 11.0865
    endloop
  endfacet
  facet normal -0.655513 0 0.755184
    outer loop
      vertex -1 31 3
      vertex 7.96135 28 10.7786
      vertex 7.96135 31 10.7786
    endloop
  endfacet
  facet normal -0.655513 0 0.755184
    outer loop
      vertex 7.96135 28 10.7786
      vertex -1 31 3
      vertex -1 28 3
    endloop
  endfacet
  facet normal 0.323616 0 0.946188
    outer loop
      vertex 11.7226 31 11.6193
      vertex 34 28 4
      vertex 34 31 4
    endloop
  endfacet
  facet normal 0.323616 0 0.946188
    outer loop
      vertex 34 28 4
      vertex 11.7226 31 11.6193
      vertex 11.7226 28 11.6193
    endloop
  endfacet
  facet normal 0 -1 0
    outer loop
      vertex 12.6428 28 11.2211
      vertex 9.73403 28 11.6818
      vertex 9.25165 28 11.5417
    endloop
  endfacet
  facet normal 0 -1 0
    outer loop
      vertex 12.6428 28 11.2211
      vertex 34 28 4
      vertex 11.7226 28 11.6193
    endloop
  endfacet
  facet normal 0.218144 0 0.975917
    outer loop
      vertex 11.2323 31 11.7289
      vertex 11.7226 28 11.6193
      vertex 11.7226 31 11.6193
    endloop
  endfacet
  facet normal 0.218144 0 0.975917
    outer loop
      vertex 11.7226 28 11.6193
      vertex 11.2323 31 11.7289
      vertex 11.2323 28 11.7289
    endloop
  endfacet
  facet normal 0.094108 0 0.995562
    outer loop
      vertex 10.7322 31 11.7762
      vertex 11.2323 28 11.7289
      vertex 11.2323 31 11.7289
    endloop
  endfacet
  facet normal 0.094108 0 0.995562
    outer loop
      vertex 11.2323 28 11.7289
      vertex 10.7322 31 11.7762
      vertex 10.7322 28 11.7762
    endloop
  endfacet
  facet normal -0.0314111 0 0.999507
    outer loop
      vertex 10.2302 31 11.7604
      vertex 10.7322 28 11.7762
      vertex 10.7322 31 11.7762
    endloop
  endfacet
  facet normal -0.0314111 0 0.999507
    outer loop
      vertex 10.7322 28 11.7762
      vertex 10.2302 31 11.7604
      vertex 10.2302 28 11.7604
    endloop
  endfacet
  facet normal 0 -1 0
    outer loop
      vertex 12.6428 28 11.2211
      vertex 9.25165 28 11.5417
      vertex 8.79064 28 11.3422
    endloop
  endfacet
  facet normal -0 -1 0
    outer loop
      vertex 12.6428 28 11.2211
      vertex 8.79064 28 11.3422
      vertex 8.35827 28 11.0865
    endloop
  endfacet
  facet normal -0.27899 0 0.960294
    outer loop
      vertex 9.25165 31 11.5417
      vertex 9.73403 28 11.6818
      vertex 9.73403 31 11.6818
    endloop
  endfacet
  facet normal -0.27899 0 0.960294
    outer loop
      vertex 9.73403 28 11.6818
      vertex 9.25165 31 11.5417
      vertex 9.25165 28 11.5417
    endloop
  endfacet
  facet normal -0.612907 0 0.790155
    outer loop
      vertex 7.96135 31 10.7786
      vertex 8.35827 28 11.0865
      vertex 8.35827 31 11.0865
    endloop
  endfacet
  facet normal -0.612907 0 0.790155
    outer loop
      vertex 8.35827 28 11.0865
      vertex 7.96135 31 10.7786
      vertex 7.96135 28 10.7786
    endloop
  endfacet
  facet normal 0 -1 0
    outer loop
      vertex 12.6428 28 11.2211
      vertex 11.7226 28 11.6193
      vertex 11.2323 28 11.7289
    endloop
  endfacet
  facet normal 0 -1 0
    outer loop
      vertex 12.6428 28 11.2211
      vertex 11.2323 28 11.7289
      vertex 10.7322 28 11.7762
    endloop
  endfacet
  facet normal -0.156434 0 0.987688
    outer loop
      vertex 9.73403 31 11.6818
      vertex 10.2302 28 11.7604
      vertex 10.2302 31 11.7604
    endloop
  endfacet
  facet normal -0.156434 0 0.987688
    outer loop
      vertex 10.2302 28 11.7604
      vertex 9.73403 31 11.6818
      vertex 9.73403 28 11.6818
    endloop
  endfacet
  facet normal 0 -1 0
    outer loop
      vertex 12.6428 28 11.2211
      vertex 10.2302 28 11.7604
      vertex 9.73403 28 11.6818
    endloop
  endfacet
  facet normal 0.587785 0 -0.809017
    outer loop
      vertex 4.91669 28 0
      vertex 6.18898 31 0.924372
      vertex 6.18898 28 0.924372
    endloop
  endfacet
  facet normal 0.587785 0 -0.809017
    outer loop
      vertex 6.18898 31 0.924372
      vertex 4.91669 28 0
      vertex 4.91669 31 0
    endloop
  endfacet
  facet normal 0.24869 0 -0.968583
    outer loop
      vertex 9.21311 28 2.34742
      vertex 10.8349 31 2.76383
      vertex 10.8349 28 2.76383
    endloop
  endfacet
  facet normal 0.24869 0 -0.968583
    outer loop
      vertex 10.8349 31 2.76383
      vertex 9.21311 28 2.34742
      vertex 9.21311 31 2.34742
    endloop
  endfacet
  facet normal -0.125333 0 -0.992115
    outer loop
      vertex 14.1705 28 2.97369
      vertex 15.8317 31 2.76383
      vertex 15.8317 28 2.76383
    endloop
  endfacet
  facet normal -0.125333 0 -0.992115
    outer loop
      vertex 15.8317 31 2.76383
      vertex 14.1705 28 2.97369
      vertex 14.1705 31 2.97369
    endloop
  endfacet
  facet normal -0.368125 0 -0.929776
    outer loop
      vertex 17.4536 28 2.34742
      vertex 19.0104 31 1.73103
      vertex 19.0104 28 1.73103
    endloop
  endfacet
  facet normal -0.368125 0 -0.929776
    outer loop
      vertex 19.0104 31 1.73103
      vertex 17.4536 28 2.34742
      vertex 17.4536 31 2.34742
    endloop
  endfacet
  facet normal -0.481754 0 -0.876306
    outer loop
      vertex 19.0104 28 1.73103
      vertex 20.4777 31 0.924372
      vertex 20.4777 28 0.924372
    endloop
  endfacet
  facet normal -0.481754 0 -0.876306
    outer loop
      vertex 20.4777 31 0.924372
      vertex 19.0104 28 1.73103
      vertex 19.0104 31 1.73103
    endloop
  endfacet
  facet normal 0.481754 0 -0.876307
    outer loop
      vertex 6.18898 28 0.924372
      vertex 7.65628 31 1.73103
      vertex 7.65628 28 1.73103
    endloop
  endfacet
  facet normal 0.481754 0 -0.876307
    outer loop
      vertex 7.65628 31 1.73103
      vertex 6.18898 28 0.924372
      vertex 6.18898 31 0.924372
    endloop
  endfacet
  facet normal 0 0 -1
    outer loop
      vertex 12.4961 28 2.97369
      vertex 14.1705 31 2.97369
      vertex 14.1705 28 2.97369
    endloop
  endfacet
  facet normal -0 0 -1
    outer loop
      vertex 14.1705 31 2.97369
      vertex 12.4961 28 2.97369
      vertex 12.4961 31 2.97369
    endloop
  endfacet
  facet normal -0.24869 0 -0.968583
    outer loop
      vertex 15.8317 28 2.76383
      vertex 17.4536 31 2.34742
      vertex 17.4536 28 2.34742
    endloop
  endfacet
  facet normal -0.24869 0 -0.968583
    outer loop
      vertex 17.4536 31 2.34742
      vertex 15.8317 28 2.76383
      vertex 15.8317 31 2.76383
    endloop
  endfacet
  facet normal -0.587785 0 -0.809017
    outer loop
      vertex 20.4777 28 0.924372
      vertex 21.75 31 0
      vertex 21.75 28 0
    endloop
  endfacet
  facet normal -0.587785 0 -0.809017
    outer loop
      vertex 21.75 31 0
      vertex 20.4777 28 0.924372
      vertex 20.4777 31 0.924372
    endloop
  endfacet
  facet normal 0.368125 0 -0.929776
    outer loop
      vertex 7.65628 28 1.73103
      vertex 9.21311 31 2.34742
      vertex 9.21311 28 2.34742
    endloop
  endfacet
  facet normal 0.368125 0 -0.929776
    outer loop
      vertex 9.21311 31 2.34742
      vertex 7.65628 28 1.73103
      vertex 7.65628 31 1.73103
    endloop
  endfacet
  facet normal 0.125333 0 -0.992115
    outer loop
      vertex 10.8349 28 2.76383
      vertex 12.4961 31 2.97369
      vertex 12.4961 28 2.97369
    endloop
  endfacet
  facet normal 0.125333 0 -0.992115
    outer loop
      vertex 12.4961 31 2.97369
      vertex 10.8349 28 2.76383
      vertex 10.8349 31 2.76383
    endloop
  endfacet
  facet normal 0.75011 -0 0.661313
    outer loop
      vertex 12.0208 3 9.19239
      vertex 12.1869 28 9.00399
      vertex 12.0208 28 9.19239
    endloop
  endfacet
  facet normal 0.75011 0 0.661313
    outer loop
      vertex 12.1869 28 9.00399
      vertex 12.0208 3 9.19239
      vertex 12.1869 3 9.00399
    endloop
  endfacet
  facet normal -0.661311 0 -0.750112
    outer loop
      vertex 9.19239 3 6.36396
      vertex 9.38079 28 6.19786
      vertex 9.38079 3 6.19786
    endloop
  endfacet
  facet normal -0.661311 0 -0.750112
    outer loop
      vertex 9.38079 28 6.19786
      vertex 9.19239 3 6.36396
      vertex 9.19239 28 6.36396
    endloop
  endfacet
  facet normal 0.707107 0 -0.707107
    outer loop
      vertex 12.1068 3 6.45555
      vertex 11.9292 28 6.27795
      vertex 12.1068 28 6.45555
    endloop
  endfacet
  facet normal 0.707107 0 -0.707107
    outer loop
      vertex 11.9292 28 6.27795
      vertex 12.1068 3 6.45555
      vertex 11.9292 3 6.27795
    endloop
  endfacet
  facet normal -0.707109 0 0.707105
    outer loop
      vertex 9.10638 3 9.1008
      vertex 9.28398 28 9.2784
      vertex 9.10638 28 9.1008
    endloop
  endfacet
  facet normal -0.707109 0 0.707105
    outer loop
      vertex 9.28398 28 9.2784
      vertex 9.10638 3 9.1008
      vertex 9.28398 3 9.2784
    endloop
  endfacet
  facet normal -0.995562 0 -0.0941097
    outer loop
      vertex 8.63122 3 7.46531
      vertex 8.60759 28 7.71535
      vertex 8.63122 28 7.46531
    endloop
  endfacet
  facet normal -0.995562 -0 -0.0941097
    outer loop
      vertex 8.60759 28 7.71535
      vertex 8.63122 3 7.46531
      vertex 8.60759 3 7.71535
    endloop
  endfacet
  facet normal 0.999506 0 -0.0314129
    outer loop
      vertex 12.6056 3 7.841
      vertex 12.5977 28 7.58996
      vertex 12.6056 28 7.841
    endloop
  endfacet
  facet normal 0.999506 0 -0.0314129
    outer loop
      vertex 12.5977 28 7.58996
      vertex 12.6056 3 7.841
      vertex 12.5977 3 7.58996
    endloop
  endfacet
  facet normal 0.0314091 0 -0.999507
    outer loop
      vertex 10.5438 3 5.77916
      vertex 10.7948 28 5.78705
      vertex 10.7948 3 5.78705
    endloop
  endfacet
  facet normal 0.0314091 0 -0.999507
    outer loop
      vertex 10.7948 28 5.78705
      vertex 10.5438 3 5.77916
      vertex 10.5438 28 5.77916
    endloop
  endfacet
  facet normal 0.397147 0 -0.917755
    outer loop
      vertex 11.2841 3 5.89641
      vertex 11.5146 28 5.99616
      vertex 11.5146 3 5.99616
    endloop
  endfacet
  facet normal 0.397147 0 -0.917755
    outer loop
      vertex 11.5146 28 5.99616
      vertex 11.2841 3 5.89641
      vertex 11.2841 28 5.89641
    endloop
  endfacet
  facet normal -0.891007 0 -0.45399
    outer loop
      vertex 8.88512 3 6.76009
      vertex 8.77109 28 6.98388
      vertex 8.88512 28 6.76009
    endloop
  endfacet
  facet normal -0.891007 -0 -0.45399
    outer loop
      vertex 8.77109 28 6.98388
      vertex 8.88512 3 6.76009
      vertex 8.77109 3 6.98388
    endloop
  endfacet
  facet normal 0.917756 0 -0.397145
    outer loop
      vertex 12.4884 3 7.1007
      vertex 12.3886 28 6.87019
      vertex 12.4884 28 7.1007
    endloop
  endfacet
  facet normal 0.917756 0 -0.397145
    outer loop
      vertex 12.3886 28 6.87019
      vertex 12.4884 3 7.1007
      vertex 12.3886 3 6.87019
    endloop
  endfacet
  facet normal 0.860742 0 -0.509042
    outer loop
      vertex 12.3886 3 6.87019
      vertex 12.2608 28 6.65401
      vertex 12.3886 28 6.87019
    endloop
  endfacet
  facet normal 0.860742 0 -0.509042
    outer loop
      vertex 12.2608 28 6.65401
      vertex 12.3886 3 6.87019
      vertex 12.2608 3 6.65401
    endloop
  endfacet
  facet normal 0.987688 0 -0.156435
    outer loop
      vertex 12.5977 3 7.58996
      vertex 12.5584 28 7.34189
      vertex 12.5977 28 7.58996
    endloop
  endfacet
  facet normal 0.987688 0 -0.156435
    outer loop
      vertex 12.5584 28 7.34189
      vertex 12.5977 3 7.58996
      vertex 12.5584 3 7.34189
    endloop
  endfacet
  facet normal -0.338738 0 -0.940881
    outer loop
      vertex 9.81231 3 5.94267
      vertex 10.0486 28 5.85759
      vertex 10.0486 3 5.85759
    endloop
  endfacet
  facet normal -0.338738 0 -0.940881
    outer loop
      vertex 10.0486 28 5.85759
      vertex 9.81231 3 5.94267
      vertex 9.81231 28 5.94267
    endloop
  endfacet
  facet normal -0.0941063 0 -0.995562
    outer loop
      vertex 10.2937 3 5.8028
      vertex 10.5438 28 5.77916
      vertex 10.5438 3 5.77916
    endloop
  endfacet
  facet normal -0.0941063 0 -0.995562
    outer loop
      vertex 10.5438 28 5.77916
      vertex 10.2937 3 5.8028
      vertex 10.2937 28 5.8028
    endloop
  endfacet
  facet normal -0.45399 0 -0.891007
    outer loop
      vertex 9.58852 3 6.05669
      vertex 9.81231 28 5.94267
      vertex 9.81231 3 5.94267
    endloop
  endfacet
  facet normal -0.45399 0 -0.891007
    outer loop
      vertex 9.81231 28 5.94267
      vertex 9.58852 3 6.05669
      vertex 9.58852 28 6.05669
    endloop
  endfacet
  facet normal 0.612908 0 -0.790154
    outer loop
      vertex 11.7308 3 6.12401
      vertex 11.9292 28 6.27795
      vertex 11.9292 3 6.27795
    endloop
  endfacet
  facet normal 0.612908 0 -0.790154
    outer loop
      vertex 11.9292 28 6.27795
      vertex 11.7308 3 6.12401
      vertex 11.7308 28 6.12401
    endloop
  endfacet
  facet normal 0.45399 0 0.891007
    outer loop
      vertex 11.4009 28 9.61368
      vertex 11.6247 3 9.49966
      vertex 11.6247 28 9.49966
    endloop
  endfacet
  facet normal 0.45399 0 0.891007
    outer loop
      vertex 11.6247 3 9.49966
      vertex 11.4009 28 9.61368
      vertex 11.4009 3 9.61368
    endloop
  endfacet
  facet normal 0.562084 0 0.82708
    outer loop
      vertex 11.6247 28 9.49966
      vertex 11.8324 3 9.35848
      vertex 11.8324 28 9.35848
    endloop
  endfacet
  facet normal 0.562084 0 0.82708
    outer loop
      vertex 11.8324 3 9.35848
      vertex 11.6247 28 9.49966
      vertex 11.6247 3 9.49966
    endloop
  endfacet
  facet normal -0.917756 0 0.397145
    outer loop
      vertex 8.72484 3 8.45565
      vertex 8.82459 28 8.68616
      vertex 8.72484 28 8.45565
    endloop
  endfacet
  facet normal -0.917756 0 0.397145
    outer loop
      vertex 8.82459 28 8.68616
      vertex 8.72484 3 8.45565
      vertex 8.82459 3 8.68616
    endloop
  endfacet
  facet normal -0.860741 0 0.509043
    outer loop
      vertex 8.82459 3 8.68616
      vertex 8.95244 28 8.90234
      vertex 8.82459 28 8.68616
    endloop
  endfacet
  facet normal -0.860741 0 0.509043
    outer loop
      vertex 8.95244 28 8.90234
      vertex 8.82459 3 8.68616
      vertex 8.95244 3 8.90234
    endloop
  endfacet
  facet normal -0.75011 0 -0.661313
    outer loop
      vertex 9.19239 3 6.36396
      vertex 9.02629 28 6.55236
      vertex 9.19239 28 6.36396
    endloop
  endfacet
  facet normal -0.75011 -0 -0.661313
    outer loop
      vertex 9.02629 28 6.55236
      vertex 9.19239 3 6.36396
      vertex 9.02629 3 6.55236
    endloop
  endfacet
  facet normal 0.827082 -0 0.562082
    outer loop
      vertex 12.1869 3 9.00399
      vertex 12.3281 28 8.79626
      vertex 12.1869 28 9.00399
    endloop
  endfacet
  facet normal 0.827082 0 0.562082
    outer loop
      vertex 12.3281 28 8.79626
      vertex 12.1869 3 9.00399
      vertex 12.3281 3 8.79626
    endloop
  endfacet
  facet normal 0.940881 -0 0.338738
    outer loop
      vertex 12.4421 3 8.57247
      vertex 12.5272 28 8.33616
      vertex 12.4421 28 8.57247
    endloop
  endfacet
  facet normal 0.940881 0 0.338738
    outer loop
      vertex 12.5272 28 8.33616
      vertex 12.4421 3 8.57247
      vertex 12.5272 3 8.33616
    endloop
  endfacet
  facet normal 0.975916 -0 0.218145
    outer loop
      vertex 12.5272 3 8.33616
      vertex 12.582 28 8.09104
      vertex 12.5272 28 8.33616
    endloop
  endfacet
  facet normal 0.975916 0 0.218145
    outer loop
      vertex 12.582 28 8.09104
      vertex 12.5272 3 8.33616
      vertex 12.582 3 8.09104
    endloop
  endfacet
  facet normal 0.790154 0 -0.612908
    outer loop
      vertex 12.2608 3 6.65401
      vertex 12.1068 28 6.45555
      vertex 12.2608 28 6.65401
    endloop
  endfacet
  facet normal 0.790154 0 -0.612908
    outer loop
      vertex 12.1068 28 6.45555
      vertex 12.2608 3 6.65401
      vertex 12.1068 3 6.45555
    endloop
  endfacet
  facet normal 0.960293 0 -0.278992
    outer loop
      vertex 12.5584 3 7.34189
      vertex 12.4884 28 7.1007
      vertex 12.5584 28 7.34189
    endloop
  endfacet
  facet normal 0.960293 0 -0.278992
    outer loop
      vertex 12.4884 28 7.1007
      vertex 12.5584 3 7.34189
      vertex 12.4884 3 7.1007
    endloop
  endfacet
  facet normal -0.218144 0 -0.975917
    outer loop
      vertex 10.0486 3 5.85759
      vertex 10.2937 28 5.8028
      vertex 10.2937 3 5.8028
    endloop
  endfacet
  facet normal -0.218144 0 -0.975917
    outer loop
      vertex 10.2937 28 5.8028
      vertex 10.0486 3 5.85759
      vertex 10.0486 28 5.85759
    endloop
  endfacet
  facet normal -0.562084 0 -0.82708
    outer loop
      vertex 9.38079 3 6.19786
      vertex 9.58852 28 6.05669
      vertex 9.58852 3 6.05669
    endloop
  endfacet
  facet normal -0.562084 0 -0.82708
    outer loop
      vertex 9.58852 28 6.05669
      vertex 9.38079 3 6.19786
      vertex 9.38079 28 6.19786
    endloop
  endfacet
  facet normal 0.278992 0 -0.960293
    outer loop
      vertex 11.0429 3 5.82634
      vertex 11.2841 28 5.89641
      vertex 11.2841 3 5.89641
    endloop
  endfacet
  facet normal 0.278992 0 -0.960293
    outer loop
      vertex 11.2841 28 5.89641
      vertex 11.0429 3 5.82634
      vertex 11.0429 28 5.82634
    endloop
  endfacet
  facet normal 0.156435 0 -0.987688
    outer loop
      vertex 10.7948 3 5.78705
      vertex 11.0429 28 5.82634
      vertex 11.0429 3 5.82634
    endloop
  endfacet
  facet normal 0.156435 0 -0.987688
    outer loop
      vertex 11.0429 28 5.82634
      vertex 10.7948 3 5.78705
      vertex 10.7948 28 5.78705
    endloop
  endfacet
  facet normal 0.509041 0 -0.860743
    outer loop
      vertex 11.5146 3 5.99616
      vertex 11.7308 28 6.12401
      vertex 11.7308 3 6.12401
    endloop
  endfacet
  facet normal 0.509041 0 -0.860743
    outer loop
      vertex 11.7308 28 6.12401
      vertex 11.5146 3 5.99616
      vertex 11.5146 28 5.99616
    endloop
  endfacet
  facet normal 0.661313 0 0.75011
    outer loop
      vertex 11.8324 28 9.35848
      vertex 12.0208 3 9.19239
      vertex 12.0208 28 9.19239
    endloop
  endfacet
  facet normal 0.661313 0 0.75011
    outer loop
      vertex 12.0208 3 9.19239
      vertex 11.8324 28 9.35848
      vertex 11.8324 3 9.35848
    endloop
  endfacet
  facet normal -0.612906 0 0.790156
    outer loop
      vertex 9.28398 28 9.2784
      vertex 9.48243 3 9.43233
      vertex 9.48243 28 9.43233
    endloop
  endfacet
  facet normal -0.612906 0 0.790156
    outer loop
      vertex 9.48243 3 9.43233
      vertex 9.28398 28 9.2784
      vertex 9.28398 3 9.2784
    endloop
  endfacet
  facet normal -0.397147 0 0.917755
    outer loop
      vertex 9.69862 28 9.56019
      vertex 9.92913 3 9.65994
      vertex 9.92913 28 9.65994
    endloop
  endfacet
  facet normal -0.397147 0 0.917755
    outer loop
      vertex 9.92913 3 9.65994
      vertex 9.69862 28 9.56019
      vertex 9.69862 3 9.56019
    endloop
  endfacet
  facet normal -0.0314129 0 0.999506
    outer loop
      vertex 10.4184 28 9.7693
      vertex 10.6694 3 9.77719
      vertex 10.6694 28 9.77719
    endloop
  endfacet
  facet normal -0.0314129 0 0.999506
    outer loop
      vertex 10.6694 3 9.77719
      vertex 10.4184 28 9.7693
      vertex 10.4184 3 9.7693
    endloop
  endfacet
  facet normal -0.279065 0 0.960272
    outer loop
      vertex 10.1664 28 9.72886
      vertex 10.1703 3 9.73001
      vertex 10.1703 28 9.73001
    endloop
  endfacet
  facet normal -0.279065 0 0.960272
    outer loop
      vertex 10.1664 28 9.72886
      vertex 10.1664 3 9.72886
      vertex 10.1703 3 9.73001
    endloop
  endfacet
  facet normal -0.278987 0 0.960295
    outer loop
      vertex 9.92913 28 9.65994
      vertex 10.1664 3 9.72886
      vertex 10.1664 28 9.72886
    endloop
  endfacet
  facet normal -0.278987 0 0.960295
    outer loop
      vertex 10.1664 3 9.72886
      vertex 9.92913 28 9.65994
      vertex 9.92913 3 9.65994
    endloop
  endfacet
  facet normal 0.0941101 0 0.995562
    outer loop
      vertex 10.6694 28 9.77719
      vertex 10.9195 3 9.75355
      vertex 10.9195 28 9.75355
    endloop
  endfacet
  facet normal 0.0941101 0 0.995562
    outer loop
      vertex 10.9195 3 9.75355
      vertex 10.6694 28 9.77719
      vertex 10.6694 3 9.77719
    endloop
  endfacet
  facet normal 0.338738 0 0.940881
    outer loop
      vertex 11.1646 28 9.69876
      vertex 11.4009 3 9.61368
      vertex 11.4009 28 9.61368
    endloop
  endfacet
  facet normal 0.338738 0 0.940881
    outer loop
      vertex 11.4009 3 9.61368
      vertex 11.1646 28 9.69876
      vertex 11.1646 3 9.69876
    endloop
  endfacet
  facet normal -0.999506 0 0.031413
    outer loop
      vertex 8.60759 3 7.71535
      vertex 8.61548 28 7.96639
      vertex 8.60759 28 7.71535
    endloop
  endfacet
  facet normal -0.999506 0 0.031413
    outer loop
      vertex 8.61548 28 7.96639
      vertex 8.60759 3 7.71535
      vertex 8.61548 3 7.96639
    endloop
  endfacet
  facet normal -0.960294 0 0.278991
    outer loop
      vertex 8.65477 3 8.21446
      vertex 8.72484 28 8.45565
      vertex 8.65477 28 8.21446
    endloop
  endfacet
  facet normal -0.960294 0 0.278991
    outer loop
      vertex 8.72484 28 8.45565
      vertex 8.65477 3 8.21446
      vertex 8.72484 3 8.45565
    endloop
  endfacet
  facet normal 0 1 0
    outer loop
      vertex 8.95244 28 8.90234
      vertex 9.10638 28 9.1008
      vertex 9.09082 28 9.08073
    endloop
  endfacet
  facet normal -0.790154 0 0.612908
    outer loop
      vertex 8.95244 3 8.90234
      vertex 9.10638 28 9.1008
      vertex 8.95244 28 8.90234
    endloop
  endfacet
  facet normal -0.790153 -1.89046e-08 0.61291
    outer loop
      vertex 9.09082 3 9.08073
      vertex 9.10638 28 9.1008
      vertex 8.95244 3 8.90234
    endloop
  endfacet
  facet normal -0.790164 0 0.612895
    outer loop
      vertex 9.10638 28 9.1008
      vertex 9.09082 3 9.08073
      vertex 9.10638 3 9.1008
    endloop
  endfacet
  facet normal -0.940881 0 -0.338738
    outer loop
      vertex 8.77109 3 6.98388
      vertex 8.68601 28 7.22019
      vertex 8.77109 28 6.98388
    endloop
  endfacet
  facet normal -0.940881 -0 -0.338738
    outer loop
      vertex 8.68601 28 7.22019
      vertex 8.77109 3 6.98388
      vertex 8.68601 3 7.22019
    endloop
  endfacet
  facet normal -0.975917 0 -0.218144
    outer loop
      vertex 8.68601 3 7.22019
      vertex 8.63122 28 7.46531
      vertex 8.68601 28 7.22019
    endloop
  endfacet
  facet normal -0.975917 -0 -0.218144
    outer loop
      vertex 8.63122 28 7.46531
      vertex 8.68601 3 7.22019
      vertex 8.63122 3 7.46531
    endloop
  endfacet
  facet normal -0.827082 0 -0.562082
    outer loop
      vertex 9.02629 3 6.55236
      vertex 8.88512 28 6.76009
      vertex 9.02629 28 6.55236
    endloop
  endfacet
  facet normal -0.827082 -0 -0.562082
    outer loop
      vertex 8.88512 28 6.76009
      vertex 9.02629 3 6.55236
      vertex 8.88512 3 6.76009
    endloop
  endfacet
  facet normal 0.891007 -0 0.45399
    outer loop
      vertex 12.3281 3 8.79626
      vertex 12.4421 28 8.57247
      vertex 12.3281 28 8.79626
    endloop
  endfacet
  facet normal 0.891007 0 0.45399
    outer loop
      vertex 12.4421 28 8.57247
      vertex 12.3281 3 8.79626
      vertex 12.4421 3 8.57247
    endloop
  endfacet
  facet normal 0.995562 -0 0.0941097
    outer loop
      vertex 12.582 3 8.09104
      vertex 12.6056 28 7.841
      vertex 12.582 28 8.09104
    endloop
  endfacet
  facet normal 0.995562 0 0.0941097
    outer loop
      vertex 12.6056 28 7.841
      vertex 12.582 3 8.09104
      vertex 12.6056 3 7.841
    endloop
  endfacet
  facet normal -0.509043 0 0.860741
    outer loop
      vertex 9.48243 28 9.43233
      vertex 9.69862 3 9.56019
      vertex 9.69862 28 9.56019
    endloop
  endfacet
  facet normal -0.509043 0 0.860741
    outer loop
      vertex 9.69862 3 9.56019
      vertex 9.48243 28 9.43233
      vertex 9.48243 3 9.43233
    endloop
  endfacet
  facet normal -0.156435 0 0.987688
    outer loop
      vertex 10.1703 28 9.73001
      vertex 10.4184 3 9.7693
      vertex 10.4184 28 9.7693
    endloop
  endfacet
  facet normal -0.156435 0 0.987688
    outer loop
      vertex 10.4184 3 9.7693
      vertex 10.1703 28 9.73001
      vertex 10.1703 3 9.73001
    endloop
  endfacet
  facet normal 0.21814 0 0.975917
    outer loop
      vertex 10.9195 28 9.75355
      vertex 11.1646 3 9.69876
      vertex 11.1646 28 9.69876
    endloop
  endfacet
  facet normal 0.21814 0 0.975917
    outer loop
      vertex 11.1646 3 9.69876
      vertex 10.9195 28 9.75355
      vertex 10.9195 3 9.75355
    endloop
  endfacet
  facet normal -0.987688 0 0.156435
    outer loop
      vertex 8.61548 3 7.96639
      vertex 8.65477 28 8.21446
      vertex 8.61548 28 7.96639
    endloop
  endfacet
  facet normal -0.987688 0 0.156435
    outer loop
      vertex 8.65477 28 8.21446
      vertex 8.61548 3 7.96639
      vertex 8.65477 3 8.21446
    endloop
  endfacet
  facet normal 0.998027 0 -0.0627879
    outer loop
      vertex 22 3 4
      vertex 21.9842 28 3.74933
      vertex 22 28 4
    endloop
  endfacet
  facet normal 0.998027 0 -0.0627879
    outer loop
      vertex 21.9842 28 3.74933
      vertex 22 3 4
      vertex 21.9842 3 3.74933
    endloop
  endfacet
  facet normal -0.998028 -2.39478e-09 0.0627777
    outer loop
      vertex 18 3 4
      vertex 18.0015 28 4.02426
      vertex 18 28 4
    endloop
  endfacet
  facet normal -0.998027 -1.34867e-08 0.062789
    outer loop
      vertex 18.0015 28 4.02426
      vertex 18 3 4
      vertex 18.0142 3 4.22641
    endloop
  endfacet
  facet normal -0.125333 0 -0.992115
    outer loop
      vertex 19.6252 3 2.03543
      vertex 19.8744 28 2.00395
      vertex 19.8744 3 2.00395
    endloop
  endfacet
  facet normal -0.125333 0 -0.992115
    outer loop
      vertex 19.8744 28 2.00395
      vertex 19.6252 3 2.03543
      vertex 19.6252 28 2.03543
    endloop
  endfacet
  facet normal 0.684545 0 -0.72897
    outer loop
      vertex 21.2748 3 2.45897
      vertex 21.4579 28 2.63091
      vertex 21.4579 3 2.63091
    endloop
  endfacet
  facet normal 0.684545 0 -0.72897
    outer loop
      vertex 21.4579 28 2.63091
      vertex 21.2748 3 2.45897
      vertex 21.2748 28 2.45897
    endloop
  endfacet
  facet normal -0.770516 0 -0.637421
    outer loop
      vertex 18.5421 3 2.63091
      vertex 18.382 28 2.82443
      vertex 18.5421 28 2.63091
    endloop
  endfacet
  facet normal -0.770516 -0 -0.637421
    outer loop
      vertex 18.382 28 2.82443
      vertex 18.5421 3 2.63091
      vertex 18.382 3 2.82443
    endloop
  endfacet
  facet normal -0.481751 0 -0.876308
    outer loop
      vertex 18.9283 3 2.31134
      vertex 19.1484 28 2.19035
      vertex 19.1484 3 2.19035
    endloop
  endfacet
  facet normal -0.481751 0 -0.876308
    outer loop
      vertex 19.1484 28 2.19035
      vertex 18.9283 3 2.31134
      vertex 18.9283 28 2.31134
    endloop
  endfacet
  facet normal 0.904827 0 -0.425779
    outer loop
      vertex 21.8596 3 3.26375
      vertex 21.7526 28 3.03649
      vertex 21.8596 28 3.26375
    endloop
  endfacet
  facet normal 0.904827 0 -0.425779
    outer loop
      vertex 21.7526 28 3.03649
      vertex 21.8596 3 3.26375
      vertex 21.7526 3 3.03649
    endloop
  endfacet
  facet normal 0.982287 0 -0.187384
    outer loop
      vertex 21.9842 3 3.74933
      vertex 21.9372 28 3.50262
      vertex 21.9842 28 3.74933
    endloop
  endfacet
  facet normal 0.982287 0 -0.187384
    outer loop
      vertex 21.9372 28 3.50262
      vertex 21.9842 3 3.74933
      vertex 21.9372 3 3.50262
    endloop
  endfacet
  facet normal 0.368128 0 -0.929775
    outer loop
      vertex 20.618 3 2.09789
      vertex 20.8516 28 2.19035
      vertex 20.8516 3 2.19035
    endloop
  endfacet
  facet normal 0.368128 0 -0.929775
    outer loop
      vertex 20.8516 28 2.19035
      vertex 20.618 3 2.09789
      vertex 20.618 28 2.09789
    endloop
  endfacet
  facet normal 0.125332 0 -0.992115
    outer loop
      vertex 20.1256 3 2.00395
      vertex 20.3748 28 2.03543
      vertex 20.3748 3 2.03543
    endloop
  endfacet
  facet normal 0.125332 0 -0.992115
    outer loop
      vertex 20.3748 28 2.03543
      vertex 20.1256 3 2.00395
      vertex 20.1256 28 2.00395
    endloop
  endfacet
  facet normal 0.587785 0 -0.809017
    outer loop
      vertex 21.0717 3 2.31134
      vertex 21.2748 28 2.45897
      vertex 21.2748 3 2.45897
    endloop
  endfacet
  facet normal 0.587785 0 -0.809017
    outer loop
      vertex 21.2748 28 2.45897
      vertex 21.0717 3 2.31134
      vertex 21.0717 28 2.31134
    endloop
  endfacet
  facet normal -0.904824 0 -0.425785
    outer loop
      vertex 18.2474 3 3.03649
      vertex 18.1404 28 3.26375
      vertex 18.2474 28 3.03649
    endloop
  endfacet
  facet normal -0.904824 -0 -0.425785
    outer loop
      vertex 18.1404 28 3.26375
      vertex 18.2474 3 3.03649
      vertex 18.1404 3 3.26375
    endloop
  endfacet
  facet normal -0.84433 0 -0.535824
    outer loop
      vertex 18.382 3 2.82443
      vertex 18.2474 28 3.03649
      vertex 18.382 28 2.82443
    endloop
  endfacet
  facet normal -0.84433 -0 -0.535824
    outer loop
      vertex 18.2474 28 3.03649
      vertex 18.382 3 2.82443
      vertex 18.2474 3 3.03649
    endloop
  endfacet
  facet normal -0.982288 0 -0.187377
    outer loop
      vertex 18.0628 3 3.50262
      vertex 18.0158 28 3.74933
      vertex 18.0628 28 3.50262
    endloop
  endfacet
  facet normal -0.982288 -0 -0.187377
    outer loop
      vertex 18.0158 28 3.74933
      vertex 18.0628 3 3.50262
      vertex 18.0158 3 3.74933
    endloop
  endfacet
  facet normal -0.998027 -1.13481e-08 0.0627893
    outer loop
      vertex 18.0142 3 4.22641
      vertex 18.0158 28 4.25067
      vertex 18.0015 28 4.02426
    endloop
  endfacet
  facet normal -0.998028 0 0.0627777
    outer loop
      vertex 18.0158 28 4.25067
      vertex 18.0142 3 4.22641
      vertex 18.0158 3 4.25067
    endloop
  endfacet
  facet normal -0.684545 0 -0.72897
    outer loop
      vertex 18.5421 3 2.63091
      vertex 18.7252 28 2.45897
      vertex 18.7252 3 2.45897
    endloop
  endfacet
  facet normal -0.684545 0 -0.72897
    outer loop
      vertex 18.7252 28 2.45897
      vertex 18.5421 3 2.63091
      vertex 18.5421 28 2.63091
    endloop
  endfacet
  facet normal -0.248688 0 -0.968584
    outer loop
      vertex 19.382 3 2.09789
      vertex 19.6252 28 2.03543
      vertex 19.6252 3 2.03543
    endloop
  endfacet
  facet normal -0.248688 0 -0.968584
    outer loop
      vertex 19.6252 28 2.03543
      vertex 19.382 3 2.09789
      vertex 19.382 28 2.09789
    endloop
  endfacet
  facet normal 0.998027 -0 0.0627882
    outer loop
      vertex 21.9842 3 4.25067
      vertex 22 28 4
      vertex 21.9842 28 4.25067
    endloop
  endfacet
  facet normal 0.998027 0 0.0627882
    outer loop
      vertex 22 28 4
      vertex 21.9842 3 4.25067
      vertex 22 3 4
    endloop
  endfacet
  facet normal 0.248688 0 0.968584
    outer loop
      vertex 20.3748 28 5.96457
      vertex 20.618 3 5.90211
      vertex 20.618 28 5.90211
    endloop
  endfacet
  facet normal 0.248688 0 0.968584
    outer loop
      vertex 20.618 3 5.90211
      vertex 20.3748 28 5.96457
      vertex 20.3748 3 5.96457
    endloop
  endfacet
  facet normal 0.951056 0 -0.309018
    outer loop
      vertex 21.9372 3 3.50262
      vertex 21.8596 28 3.26375
      vertex 21.9372 28 3.50262
    endloop
  endfacet
  facet normal 0.951056 0 -0.309018
    outer loop
      vertex 21.8596 28 3.26375
      vertex 21.9372 3 3.50262
      vertex 21.8596 3 3.26375
    endloop
  endfacet
  facet normal 0.770512 0 -0.637425
    outer loop
      vertex 21.618 3 2.82443
      vertex 21.4579 28 2.63091
      vertex 21.618 28 2.82443
    endloop
  endfacet
  facet normal 0.770512 0 -0.637425
    outer loop
      vertex 21.4579 28 2.63091
      vertex 21.618 3 2.82443
      vertex 21.4579 3 2.63091
    endloop
  endfacet
  facet normal 0.84433 0 -0.535824
    outer loop
      vertex 21.7526 3 3.03649
      vertex 21.618 28 2.82443
      vertex 21.7526 28 3.03649
    endloop
  endfacet
  facet normal 0.84433 0 -0.535824
    outer loop
      vertex 21.618 28 2.82443
      vertex 21.7526 3 3.03649
      vertex 21.618 3 2.82443
    endloop
  endfacet
  facet normal 0 0 -1
    outer loop
      vertex 19.8744 3 2.00395
      vertex 20.1256 28 2.00395
      vertex 20.1256 3 2.00395
    endloop
  endfacet
  facet normal -0 0 -1
    outer loop
      vertex 20.1256 28 2.00395
      vertex 19.8744 3 2.00395
      vertex 19.8744 28 2.00395
    endloop
  endfacet
  facet normal 0.481755 0 -0.876306
    outer loop
      vertex 20.8516 3 2.19035
      vertex 21.0717 28 2.31134
      vertex 21.0717 3 2.31134
    endloop
  endfacet
  facet normal 0.481755 0 -0.876306
    outer loop
      vertex 21.0717 28 2.31134
      vertex 20.8516 3 2.19035
      vertex 20.8516 28 2.19035
    endloop
  endfacet
  facet normal -0.951056 0 -0.309018
    outer loop
      vertex 18.1404 3 3.26375
      vertex 18.0628 28 3.50262
      vertex 18.1404 28 3.26375
    endloop
  endfacet
  facet normal -0.951056 -0 -0.309018
    outer loop
      vertex 18.0628 28 3.50262
      vertex 18.1404 3 3.26375
      vertex 18.0628 3 3.50262
    endloop
  endfacet
  facet normal -0.998027 0 -0.0627783
    outer loop
      vertex 18.0158 3 3.74933
      vertex 18.0142 28 3.77359
      vertex 18.0158 28 3.74933
    endloop
  endfacet
  facet normal -0.998027 1.06852e-08 -0.0627892
    outer loop
      vertex 18.0142 28 3.77359
      vertex 18.0158 3 3.74933
      vertex 18.0015 3 3.97574
    endloop
  endfacet
  facet normal -0.587785 0 -0.809017
    outer loop
      vertex 18.7252 3 2.45897
      vertex 18.9283 28 2.31134
      vertex 18.9283 3 2.31134
    endloop
  endfacet
  facet normal -0.587785 0 -0.809017
    outer loop
      vertex 18.9283 28 2.31134
      vertex 18.7252 3 2.45897
      vertex 18.7252 28 2.45897
    endloop
  endfacet
  facet normal 0.84433 -0 0.535824
    outer loop
      vertex 21.618 3 5.17557
      vertex 21.7526 28 4.96351
      vertex 21.618 28 5.17557
    endloop
  endfacet
  facet normal 0.84433 0 0.535824
    outer loop
      vertex 21.7526 28 4.96351
      vertex 21.618 3 5.17557
      vertex 21.7526 3 4.96351
    endloop
  endfacet
  facet normal 0.982287 -0 0.187384
    outer loop
      vertex 21.9372 3 4.49738
      vertex 21.9842 28 4.25067
      vertex 21.9372 28 4.49738
    endloop
  endfacet
  facet normal 0.982287 0 0.187384
    outer loop
      vertex 21.9842 28 4.25067
      vertex 21.9372 3 4.49738
      vertex 21.9842 3 4.25067
    endloop
  endfacet
  facet normal -0.368128 0 0.929775
    outer loop
      vertex 19.1484 28 5.80965
      vertex 19.382 3 5.90211
      vertex 19.382 28 5.90211
    endloop
  endfacet
  facet normal -0.368128 0 0.929775
    outer loop
      vertex 19.382 3 5.90211
      vertex 19.1484 28 5.80965
      vertex 19.1484 3 5.80965
    endloop
  endfacet
  facet normal -0.982288 0 0.187377
    outer loop
      vertex 18.0158 3 4.25067
      vertex 18.0628 28 4.49738
      vertex 18.0158 28 4.25067
    endloop
  endfacet
  facet normal -0.982288 0 0.187377
    outer loop
      vertex 18.0628 28 4.49738
      vertex 18.0158 3 4.25067
      vertex 18.0628 3 4.49738
    endloop
  endfacet
  facet normal -0.904824 0 0.425785
    outer loop
      vertex 18.1404 3 4.73625
      vertex 18.2474 28 4.96351
      vertex 18.1404 28 4.73625
    endloop
  endfacet
  facet normal -0.904824 0 0.425785
    outer loop
      vertex 18.2474 28 4.96351
      vertex 18.1404 3 4.73625
      vertex 18.2474 3 4.96351
    endloop
  endfacet
  facet normal 0.481755 0 0.876306
    outer loop
      vertex 20.8516 28 5.80965
      vertex 21.0717 3 5.68865
      vertex 21.0717 28 5.68865
    endloop
  endfacet
  facet normal 0.481755 0 0.876306
    outer loop
      vertex 21.0717 3 5.68865
      vertex 20.8516 28 5.80965
      vertex 20.8516 3 5.80965
    endloop
  endfacet
  facet normal 0.368128 0 0.929775
    outer loop
      vertex 20.618 28 5.90211
      vertex 20.8516 3 5.80965
      vertex 20.8516 28 5.80965
    endloop
  endfacet
  facet normal 0.368128 0 0.929775
    outer loop
      vertex 20.8516 3 5.80965
      vertex 20.618 28 5.90211
      vertex 20.618 3 5.90211
    endloop
  endfacet
  facet normal 0.248688 0 -0.968584
    outer loop
      vertex 20.3748 3 2.03543
      vertex 20.618 28 2.09789
      vertex 20.618 3 2.09789
    endloop
  endfacet
  facet normal 0.248688 0 -0.968584
    outer loop
      vertex 20.618 28 2.09789
      vertex 20.3748 3 2.03543
      vertex 20.3748 28 2.03543
    endloop
  endfacet
  facet normal -0.998027 1.28237e-08 -0.062789
    outer loop
      vertex 18.0015 3 3.97574
      vertex 18 28 4
      vertex 18.0142 28 3.77359
    endloop
  endfacet
  facet normal -0.998027 2.3948e-09 -0.0627783
    outer loop
      vertex 18 28 4
      vertex 18.0015 3 3.97574
      vertex 18 3 4
    endloop
  endfacet
  facet normal -0.368128 0 -0.929775
    outer loop
      vertex 19.1484 3 2.19035
      vertex 19.382 28 2.09789
      vertex 19.382 3 2.09789
    endloop
  endfacet
  facet normal -0.368128 0 -0.929775
    outer loop
      vertex 19.382 28 2.09789
      vertex 19.1484 3 2.19035
      vertex 19.1484 28 2.19035
    endloop
  endfacet
  facet normal 0.587785 0 0.809017
    outer loop
      vertex 21.0717 28 5.68865
      vertex 21.2748 3 5.54103
      vertex 21.2748 28 5.54103
    endloop
  endfacet
  facet normal 0.587785 0 0.809017
    outer loop
      vertex 21.2748 3 5.54103
      vertex 21.0717 28 5.68865
      vertex 21.0717 3 5.68865
    endloop
  endfacet
  facet normal 0.770512 -0 0.637425
    outer loop
      vertex 21.4579 3 5.36909
      vertex 21.618 28 5.17557
      vertex 21.4579 28 5.36909
    endloop
  endfacet
  facet normal 0.770512 0 0.637425
    outer loop
      vertex 21.618 28 5.17557
      vertex 21.4579 3 5.36909
      vertex 21.618 3 5.17557
    endloop
  endfacet
  facet normal 0.904827 -0 0.425779
    outer loop
      vertex 21.7526 3 4.96351
      vertex 21.8596 28 4.73625
      vertex 21.7526 28 4.96351
    endloop
  endfacet
  facet normal 0.904827 0 0.425779
    outer loop
      vertex 21.8596 28 4.73625
      vertex 21.7526 3 4.96351
      vertex 21.8596 3 4.73625
    endloop
  endfacet
  facet normal 0.951056 -0 0.309018
    outer loop
      vertex 21.8596 3 4.73625
      vertex 21.9372 28 4.49738
      vertex 21.8596 28 4.73625
    endloop
  endfacet
  facet normal 0.951056 0 0.309018
    outer loop
      vertex 21.9372 28 4.49738
      vertex 21.8596 3 4.73625
      vertex 21.9372 3 4.49738
    endloop
  endfacet
  facet normal -0 0 1
    outer loop
      vertex 19.8744 28 5.99605
      vertex 20.1256 3 5.99605
      vertex 20.1256 28 5.99605
    endloop
  endfacet
  facet normal 0 0 1
    outer loop
      vertex 20.1256 3 5.99605
      vertex 19.8744 28 5.99605
      vertex 19.8744 3 5.99605
    endloop
  endfacet
  facet normal -0.587785 0 0.809017
    outer loop
      vertex 18.7252 28 5.54103
      vertex 18.9283 3 5.68865
      vertex 18.9283 28 5.68865
    endloop
  endfacet
  facet normal -0.587785 0 0.809017
    outer loop
      vertex 18.9283 3 5.68865
      vertex 18.7252 28 5.54103
      vertex 18.7252 3 5.54103
    endloop
  endfacet
  facet normal -0.684545 0 0.72897
    outer loop
      vertex 18.5421 28 5.36909
      vertex 18.7252 3 5.54103
      vertex 18.7252 28 5.54103
    endloop
  endfacet
  facet normal -0.684545 0 0.72897
    outer loop
      vertex 18.7252 3 5.54103
      vertex 18.5421 28 5.36909
      vertex 18.5421 3 5.36909
    endloop
  endfacet
  facet normal -0.84433 0 0.535824
    outer loop
      vertex 18.2474 3 4.96351
      vertex 18.382 28 5.17557
      vertex 18.2474 28 4.96351
    endloop
  endfacet
  facet normal -0.84433 0 0.535824
    outer loop
      vertex 18.382 28 5.17557
      vertex 18.2474 3 4.96351
      vertex 18.382 3 5.17557
    endloop
  endfacet
  facet normal -0.951056 0 0.309018
    outer loop
      vertex 18.0628 3 4.49738
      vertex 18.1404 28 4.73625
      vertex 18.0628 28 4.49738
    endloop
  endfacet
  facet normal -0.951056 0 0.309018
    outer loop
      vertex 18.1404 28 4.73625
      vertex 18.0628 3 4.49738
      vertex 18.1404 3 4.73625
    endloop
  endfacet
  facet normal 0.684545 0 0.72897
    outer loop
      vertex 21.2748 28 5.54103
      vertex 21.4579 3 5.36909
      vertex 21.4579 28 5.36909
    endloop
  endfacet
  facet normal 0.684545 0 0.72897
    outer loop
      vertex 21.4579 3 5.36909
      vertex 21.2748 28 5.54103
      vertex 21.2748 3 5.54103
    endloop
  endfacet
  facet normal 0.125332 0 0.992115
    outer loop
      vertex 20.1256 28 5.99605
      vertex 20.3748 3 5.96457
      vertex 20.3748 28 5.96457
    endloop
  endfacet
  facet normal 0.125332 0 0.992115
    outer loop
      vertex 20.3748 3 5.96457
      vertex 20.1256 28 5.99605
      vertex 20.1256 3 5.99605
    endloop
  endfacet
  facet normal -0.481751 0 0.876308
    outer loop
      vertex 18.9283 28 5.68865
      vertex 19.1484 3 5.80965
      vertex 19.1484 28 5.80965
    endloop
  endfacet
  facet normal -0.481751 0 0.876308
    outer loop
      vertex 19.1484 3 5.80965
      vertex 18.9283 28 5.68865
      vertex 18.9283 3 5.68865
    endloop
  endfacet
  facet normal -0.770516 0 0.637421
    outer loop
      vertex 18.382 3 5.17557
      vertex 18.5421 28 5.36909
      vertex 18.382 28 5.17557
    endloop
  endfacet
  facet normal -0.770516 0 0.637421
    outer loop
      vertex 18.5421 28 5.36909
      vertex 18.382 3 5.17557
      vertex 18.5421 3 5.36909
    endloop
  endfacet
  facet normal -0.125333 0 0.992115
    outer loop
      vertex 19.6252 28 5.96457
      vertex 19.8744 3 5.99605
      vertex 19.8744 28 5.99605
    endloop
  endfacet
  facet normal -0.125333 0 0.992115
    outer loop
      vertex 19.8744 3 5.99605
      vertex 19.6252 28 5.96457
      vertex 19.6252 3 5.96457
    endloop
  endfacet
  facet normal -0.248688 0 0.968584
    outer loop
      vertex 19.382 28 5.90211
      vertex 19.6252 3 5.96457
      vertex 19.6252 28 5.96457
    endloop
  endfacet
  facet normal -0.248688 0 0.968584
    outer loop
      vertex 19.6252 3 5.96457
      vertex 19.382 28 5.90211
      vertex 19.382 3 5.90211
    endloop
  endfacet
  facet normal -1 0 0
    outer loop
      vertex 30 3 0
      vertex 30 28 4
      vertex 30 28 0
    endloop
  endfacet
  facet normal -1 -0 0
    outer loop
      vertex 30 28 4
      vertex 30 3 0
      vertex 30 3 4
    endloop
  endfacet
  facet normal -0 0 1
    outer loop
      vertex 30 28 4
      vertex 34 3 4
      vertex 34 28 4
    endloop
  endfacet
  facet normal 0 0 1
    outer loop
      vertex 34 3 4
      vertex 30 28 4
      vertex 30 3 4
    endloop
  endfacet
endsolid OpenSCAD_Model
