solid OpenSCAD_Model
  facet normal -1 0 0
    outer loop
      vertex 0 -38 8.43769e-015
      vertex 0 0 0
      vertex 0 -38 0
    endloop
  endfacet
  facet normal -1 0 0
    outer loop
      vertex 0 0 0
      vertex 0 -38 8.43769e-015
      vertex 0 0 2
    endloop
  endfacet
  facet normal -1 -0 0
    outer loop
      vertex 0 0 2
      vertex 0 -38 8.43769e-015
      vertex 0 -38 2
    endloop
  endfacet
  facet normal 0 -1 0
    outer loop
      vertex 0 -38 0
      vertex 40 -38 8.43769e-015
      vertex 0 -38 8.43769e-015
    endloop
  endfacet
  facet normal 0 -1 -0
    outer loop
      vertex 40 -38 8.43769e-015
      vertex 0 -38 0
      vertex 40 -38 0
    endloop
  endfacet
  facet normal 1 -0 0
    outer loop
      vertex 40 -38 2
      vertex 40 0 0
      vertex 40 0 2
    endloop
  endfacet
  facet normal 1 -0 0
    outer loop
      vertex 40 -38 8.43769e-015
      vertex 40 0 0
      vertex 40 -38 2
    endloop
  endfacet
  facet normal 1 0 0
    outer loop
      vertex 40 0 0
      vertex 40 -38 8.43769e-015
      vertex 40 -38 0
    endloop
  endfacet
  facet normal 0 0 1
    outer loop
      vertex 36.4271 -7.76336 2
      vertex 40 0 2
      vertex 37 -6 2
    endloop
  endfacet
  facet normal 0 0 1
    outer loop
      vertex 40 0 2
      vertex 36.4271 -4.23664 2
      vertex 37 -6 2
    endloop
  endfacet
  facet normal 0 0 1
    outer loop
      vertex 40 0 2
      vertex 34.9271 -3.14683 2
      vertex 36.4271 -4.23664 2
    endloop
  endfacet
  facet normal 0 0 1
    outer loop
      vertex 40 0 2
      vertex 33.0729 -3.14683 2
      vertex 34.9271 -3.14683 2
    endloop
  endfacet
  facet normal 0 0 1
    outer loop
      vertex 31.5729 -4.23664 2
      vertex 9 -6 2
      vertex 31 -6 2
    endloop
  endfacet
  facet normal 0 0 1
    outer loop
      vertex 8.42705 -4.23664 2
      vertex 31.5729 -4.23664 2
      vertex 33.0729 -3.14683 2
    endloop
  endfacet
  facet normal 0 0 1
    outer loop
      vertex 6.92705 -3.14683 2
      vertex 33.0729 -3.14683 2
      vertex 40 0 2
    endloop
  endfacet
  facet normal 0 0 1
    outer loop
      vertex 31.5729 -4.23664 2
      vertex 8.42705 -4.23664 2
      vertex 9 -6 2
    endloop
  endfacet
  facet normal 0 0 1
    outer loop
      vertex 33.0729 -3.14683 2
      vertex 6.92705 -3.14683 2
      vertex 8.42705 -4.23664 2
    endloop
  endfacet
  facet normal -0 0 1
    outer loop
      vertex 0 0 2
      vertex 6.92705 -3.14683 2
      vertex 40 0 2
    endloop
  endfacet
  facet normal 0 0 1
    outer loop
      vertex 3.57295 -4.23664 2
      vertex 0 0 2
      vertex 3 -6 2
    endloop
  endfacet
  facet normal 0 0 1
    outer loop
      vertex 5.07295 -3.14683 2
      vertex 0 0 2
      vertex 3.57295 -4.23664 2
    endloop
  endfacet
  facet normal 0 0 1
    outer loop
      vertex 6.92705 -3.14683 2
      vertex 0 0 2
      vertex 5.07295 -3.14683 2
    endloop
  endfacet
  facet normal 0 0 1
    outer loop
      vertex 40 0 2
      vertex 36.4271 -7.76336 2
      vertex 40 -38 2
    endloop
  endfacet
  facet normal -0 0 1
    outer loop
      vertex 34.9271 -8.85317 2
      vertex 40 -38 2
      vertex 36.4271 -7.76336 2
    endloop
  endfacet
  facet normal -0 0 1
    outer loop
      vertex 33.0729 -8.85317 2
      vertex 40 -38 2
      vertex 34.9271 -8.85317 2
    endloop
  endfacet
  facet normal 0 0 1
    outer loop
      vertex 6.92705 -8.85317 2
      vertex 33.0729 -8.85317 2
      vertex 31.5729 -7.76336 2
    endloop
  endfacet
  facet normal 0 0 1
    outer loop
      vertex 8.42705 -7.76336 2
      vertex 31.5729 -7.76336 2
      vertex 31 -6 2
    endloop
  endfacet
  facet normal 0 0 1
    outer loop
      vertex 8.42705 -7.76336 2
      vertex 31 -6 2
      vertex 9 -6 2
    endloop
  endfacet
  facet normal 0 0 1
    outer loop
      vertex 6.92705 -8.85317 2
      vertex 31.5729 -7.76336 2
      vertex 8.42705 -7.76336 2
    endloop
  endfacet
  facet normal 0 0 1
    outer loop
      vertex 33.0729 -8.85317 2
      vertex 6.92705 -8.85317 2
      vertex 40 -38 2
    endloop
  endfacet
  facet normal 0 0 1
    outer loop
      vertex 0 -38 2
      vertex 6.92705 -8.85317 2
      vertex 5.07295 -8.85317 2
    endloop
  endfacet
  facet normal 0 0 1
    outer loop
      vertex 0 -38 2
      vertex 5.07295 -8.85317 2
      vertex 3.57295 -7.76336 2
    endloop
  endfacet
  facet normal 0 0 1
    outer loop
      vertex 0 0 2
      vertex 3.57295 -7.76336 2
      vertex 3 -6 2
    endloop
  endfacet
  facet normal 0 0 1
    outer loop
      vertex 6.92705 -8.85317 2
      vertex 0 -38 2
      vertex 40 -38 2
    endloop
  endfacet
  facet normal 0 0 1
    outer loop
      vertex 0 -38 2
      vertex 3.57295 -7.76336 2
      vertex 0 0 2
    endloop
  endfacet
  facet normal 0 1 -0
    outer loop
      vertex 40 0 0
      vertex 0 0 2
      vertex 40 0 2
    endloop
  endfacet
  facet normal 0 1 0
    outer loop
      vertex 0 0 2
      vertex 40 0 0
      vertex 0 0 0
    endloop
  endfacet
  facet normal 0 0 -1
    outer loop
      vertex 36.4271 -7.76336 0
      vertex 40 0 0
      vertex 40 -38 0
    endloop
  endfacet
  facet normal 0 0 -1
    outer loop
      vertex 40 0 0
      vertex 36.4271 -7.76336 0
      vertex 37 -6 0
    endloop
  endfacet
  facet normal 0 0 -1
    outer loop
      vertex 40 -38 0
      vertex 34.9271 -8.85317 0
      vertex 36.4271 -7.76336 0
    endloop
  endfacet
  facet normal 0 0 -1
    outer loop
      vertex 40 -38 0
      vertex 33.0729 -8.85317 0
      vertex 34.9271 -8.85317 0
    endloop
  endfacet
  facet normal 0 0 -1
    outer loop
      vertex 6.92705 -8.85317 0
      vertex 33.0729 -8.85317 0
      vertex 40 -38 0
    endloop
  endfacet
  facet normal 0 0 -1
    outer loop
      vertex 33.0729 -8.85317 0
      vertex 6.92705 -8.85317 0
      vertex 31.5729 -7.76336 0
    endloop
  endfacet
  facet normal 0 0 -1
    outer loop
      vertex 31.5729 -7.76336 0
      vertex 8.42705 -7.76336 0
      vertex 31 -6 0
    endloop
  endfacet
  facet normal -0 0 -1
    outer loop
      vertex 31 -6 0
      vertex 8.42705 -7.76336 0
      vertex 9 -6 0
    endloop
  endfacet
  facet normal -0 0 -1
    outer loop
      vertex 31.5729 -7.76336 0
      vertex 6.92705 -8.85317 0
      vertex 8.42705 -7.76336 0
    endloop
  endfacet
  facet normal 0 0 -1
    outer loop
      vertex 0 -38 0
      vertex 6.92705 -8.85317 0
      vertex 40 -38 0
    endloop
  endfacet
  facet normal -0 0 -1
    outer loop
      vertex 6.92705 -8.85317 0
      vertex 0 -38 0
      vertex 5.07295 -8.85317 0
    endloop
  endfacet
  facet normal 0 0 -1
    outer loop
      vertex 0 0 0
      vertex 3.57295 -7.76336 0
      vertex 0 -38 0
    endloop
  endfacet
  facet normal -0 0 -1
    outer loop
      vertex 5.07295 -8.85317 0
      vertex 0 -38 0
      vertex 3.57295 -7.76336 0
    endloop
  endfacet
  facet normal 0 0 -1
    outer loop
      vertex 36.4271 -4.23664 0
      vertex 40 0 0
      vertex 37 -6 0
    endloop
  endfacet
  facet normal 0 0 -1
    outer loop
      vertex 34.9271 -3.14683 0
      vertex 40 0 0
      vertex 36.4271 -4.23664 0
    endloop
  endfacet
  facet normal 0 0 -1
    outer loop
      vertex 33.0729 -3.14683 0
      vertex 40 0 0
      vertex 34.9271 -3.14683 0
    endloop
  endfacet
  facet normal 0 0 -1
    outer loop
      vertex 9 -6 0
      vertex 31.5729 -4.23664 0
      vertex 31 -6 0
    endloop
  endfacet
  facet normal 0 0 -1
    outer loop
      vertex 8.42705 -4.23664 0
      vertex 31.5729 -4.23664 0
      vertex 9 -6 0
    endloop
  endfacet
  facet normal 0 0 -1
    outer loop
      vertex 31.5729 -4.23664 0
      vertex 8.42705 -4.23664 0
      vertex 33.0729 -3.14683 0
    endloop
  endfacet
  facet normal 0 0 -1
    outer loop
      vertex 6.92705 -3.14683 0
      vertex 33.0729 -3.14683 0
      vertex 8.42705 -4.23664 0
    endloop
  endfacet
  facet normal 0 0 -1
    outer loop
      vertex 33.0729 -3.14683 0
      vertex 6.92705 -3.14683 0
      vertex 40 0 0
    endloop
  endfacet
  facet normal 0 0 -1
    outer loop
      vertex 0 0 0
      vertex 6.92705 -3.14683 0
      vertex 5.07295 -3.14683 0
    endloop
  endfacet
  facet normal 0 0 -1
    outer loop
      vertex 6.92705 -3.14683 0
      vertex 0 0 0
      vertex 40 0 0
    endloop
  endfacet
  facet normal 0 0 -1
    outer loop
      vertex 3.57295 -4.23664 0
      vertex 0 0 0
      vertex 5.07295 -3.14683 0
    endloop
  endfacet
  facet normal 0 0 -1
    outer loop
      vertex 3 -6 0
      vertex 0 0 0
      vertex 3.57295 -4.23664 0
    endloop
  endfacet
  facet normal 0 0 -1
    outer loop
      vertex 3.57295 -7.76336 0
      vertex 0 0 0
      vertex 3 -6 0
    endloop
  endfacet
  facet normal -0.951056 -0.309017 0
    outer loop
      vertex 9 -6 0
      vertex 8.42705 -4.23664 2
      vertex 8.42705 -4.23664 0
    endloop
  endfacet
  facet normal -0.951056 -0.309017 0
    outer loop
      vertex 8.42705 -4.23664 2
      vertex 9 -6 0
      vertex 9 -6 2
    endloop
  endfacet
  facet normal 0.951057 0.309017 0
    outer loop
      vertex 3.57295 -7.76336 2
      vertex 3 -6 0
      vertex 3 -6 2
    endloop
  endfacet
  facet normal 0.951057 0.309017 0
    outer loop
      vertex 3 -6 0
      vertex 3.57295 -7.76336 2
      vertex 3.57295 -7.76336 0
    endloop
  endfacet
  facet normal 0 -1 0
    outer loop
      vertex 5.07295 -3.14683 0
      vertex 6.92705 -3.14683 2
      vertex 5.07295 -3.14683 2
    endloop
  endfacet
  facet normal 0 -1 -0
    outer loop
      vertex 6.92705 -3.14683 2
      vertex 5.07295 -3.14683 0
      vertex 6.92705 -3.14683 0
    endloop
  endfacet
  facet normal -0.587785 -0.809017 0
    outer loop
      vertex 6.92705 -3.14683 0
      vertex 8.42705 -4.23664 2
      vertex 6.92705 -3.14683 2
    endloop
  endfacet
  facet normal -0.587785 -0.809017 -0
    outer loop
      vertex 8.42705 -4.23664 2
      vertex 6.92705 -3.14683 0
      vertex 8.42705 -4.23664 0
    endloop
  endfacet
  facet normal 0.587785 -0.809017 0
    outer loop
      vertex 3.57295 -4.23664 0
      vertex 5.07295 -3.14683 2
      vertex 3.57295 -4.23664 2
    endloop
  endfacet
  facet normal 0.587785 -0.809017 0
    outer loop
      vertex 5.07295 -3.14683 2
      vertex 3.57295 -4.23664 0
      vertex 5.07295 -3.14683 0
    endloop
  endfacet
  facet normal -0.587785 0.809017 0
    outer loop
      vertex 8.42705 -7.76336 0
      vertex 6.92705 -8.85317 2
      vertex 8.42705 -7.76336 2
    endloop
  endfacet
  facet normal -0.587785 0.809017 0
    outer loop
      vertex 6.92705 -8.85317 2
      vertex 8.42705 -7.76336 0
      vertex 6.92705 -8.85317 0
    endloop
  endfacet
  facet normal 0.587785 0.809017 -0
    outer loop
      vertex 5.07295 -8.85317 0
      vertex 3.57295 -7.76336 2
      vertex 5.07295 -8.85317 2
    endloop
  endfacet
  facet normal 0.587785 0.809017 0
    outer loop
      vertex 3.57295 -7.76336 2
      vertex 5.07295 -8.85317 0
      vertex 3.57295 -7.76336 0
    endloop
  endfacet
  facet normal 0.951057 -0.309017 0
    outer loop
      vertex 3 -6 2
      vertex 3.57295 -4.23664 0
      vertex 3.57295 -4.23664 2
    endloop
  endfacet
  facet normal 0.951057 -0.309017 0
    outer loop
      vertex 3.57295 -4.23664 0
      vertex 3 -6 2
      vertex 3 -6 0
    endloop
  endfacet
  facet normal -0.951056 0.309017 0
    outer loop
      vertex 8.42705 -7.76336 0
      vertex 9 -6 2
      vertex 9 -6 0
    endloop
  endfacet
  facet normal -0.951056 0.309017 0
    outer loop
      vertex 9 -6 2
      vertex 8.42705 -7.76336 0
      vertex 8.42705 -7.76336 2
    endloop
  endfacet
  facet normal 0 1 -0
    outer loop
      vertex 6.92705 -8.85317 0
      vertex 5.07295 -8.85317 2
      vertex 6.92705 -8.85317 2
    endloop
  endfacet
  facet normal 0 1 0
    outer loop
      vertex 5.07295 -8.85317 2
      vertex 6.92705 -8.85317 0
      vertex 5.07295 -8.85317 0
    endloop
  endfacet
  facet normal -0.951057 -0.309017 0
    outer loop
      vertex 37 -6 0
      vertex 36.4271 -4.23664 2
      vertex 36.4271 -4.23664 0
    endloop
  endfacet
  facet normal -0.951057 -0.309017 0
    outer loop
      vertex 36.4271 -4.23664 2
      vertex 37 -6 0
      vertex 37 -6 2
    endloop
  endfacet
  facet normal 0 -1 0
    outer loop
      vertex 33.0729 -3.14683 0
      vertex 34.9271 -3.14683 2
      vertex 33.0729 -3.14683 2
    endloop
  endfacet
  facet normal 0 -1 -0
    outer loop
      vertex 34.9271 -3.14683 2
      vertex 33.0729 -3.14683 0
      vertex 34.9271 -3.14683 0
    endloop
  endfacet
  facet normal -0.587785 -0.809017 0
    outer loop
      vertex 34.9271 -3.14683 0
      vertex 36.4271 -4.23664 2
      vertex 34.9271 -3.14683 2
    endloop
  endfacet
  facet normal -0.587785 -0.809017 -0
    outer loop
      vertex 36.4271 -4.23664 2
      vertex 34.9271 -3.14683 0
      vertex 36.4271 -4.23664 0
    endloop
  endfacet
  facet normal 0.587785 -0.809017 0
    outer loop
      vertex 31.5729 -4.23664 0
      vertex 33.0729 -3.14683 2
      vertex 31.5729 -4.23664 2
    endloop
  endfacet
  facet normal 0.587785 -0.809017 0
    outer loop
      vertex 33.0729 -3.14683 2
      vertex 31.5729 -4.23664 0
      vertex 33.0729 -3.14683 0
    endloop
  endfacet
  facet normal -0.587785 0.809017 0
    outer loop
      vertex 36.4271 -7.76336 0
      vertex 34.9271 -8.85317 2
      vertex 36.4271 -7.76336 2
    endloop
  endfacet
  facet normal -0.587785 0.809017 0
    outer loop
      vertex 34.9271 -8.85317 2
      vertex 36.4271 -7.76336 0
      vertex 34.9271 -8.85317 0
    endloop
  endfacet
  facet normal 0.587785 0.809017 -0
    outer loop
      vertex 33.0729 -8.85317 0
      vertex 31.5729 -7.76336 2
      vertex 33.0729 -8.85317 2
    endloop
  endfacet
  facet normal 0.587785 0.809017 0
    outer loop
      vertex 31.5729 -7.76336 2
      vertex 33.0729 -8.85317 0
      vertex 31.5729 -7.76336 0
    endloop
  endfacet
  facet normal 0.951057 -0.309017 0
    outer loop
      vertex 31 -6 2
      vertex 31.5729 -4.23664 0
      vertex 31.5729 -4.23664 2
    endloop
  endfacet
  facet normal 0.951057 -0.309017 0
    outer loop
      vertex 31.5729 -4.23664 0
      vertex 31 -6 2
      vertex 31 -6 0
    endloop
  endfacet
  facet normal -0.951057 0.309017 0
    outer loop
      vertex 36.4271 -7.76336 0
      vertex 37 -6 2
      vertex 37 -6 0
    endloop
  endfacet
  facet normal -0.951057 0.309017 0
    outer loop
      vertex 37 -6 2
      vertex 36.4271 -7.76336 0
      vertex 36.4271 -7.76336 2
    endloop
  endfacet
  facet normal 0 1 -0
    outer loop
      vertex 34.9271 -8.85317 0
      vertex 33.0729 -8.85317 2
      vertex 34.9271 -8.85317 2
    endloop
  endfacet
  facet normal 0 1 0
    outer loop
      vertex 33.0729 -8.85317 2
      vertex 34.9271 -8.85317 0
      vertex 33.0729 -8.85317 0
    endloop
  endfacet
  facet normal 0.951057 0.309017 0
    outer loop
      vertex 31.5729 -7.76336 2
      vertex 31 -6 0
      vertex 31 -6 2
    endloop
  endfacet
  facet normal 0.951057 0.309017 0
    outer loop
      vertex 31 -6 0
      vertex 31.5729 -7.76336 2
      vertex 31.5729 -7.76336 0
    endloop
  endfacet
  facet normal -1 0 0
    outer loop
      vertex -3 -66 1.46549e-014
      vertex -3 -38 5.3
      vertex -3 -38 8.43769e-015
    endloop
  endfacet
  facet normal -1 -0 0
    outer loop
      vertex -3 -38 5.3
      vertex -3 -66 1.46549e-014
      vertex -3 -66 5.3
    endloop
  endfacet
  facet normal 0 -1 0
    outer loop
      vertex -3 -66 5.3
      vertex 0 -66 2
      vertex 0 -66 5.3
    endloop
  endfacet
  facet normal 0 -1 -0
    outer loop
      vertex 0 -66 2
      vertex -3 -66 1.46549e-014
      vertex 40 -66 2
    endloop
  endfacet
  facet normal 0 -1 0
    outer loop
      vertex -3 -66 1.46549e-014
      vertex 0 -66 2
      vertex -3 -66 5.3
    endloop
  endfacet
  facet normal 0 -1 0
    outer loop
      vertex 40 -66 2
      vertex 43 -66 5.3
      vertex 40 -66 5.3
    endloop
  endfacet
  facet normal 0 -1 0
    outer loop
      vertex 40 -66 2
      vertex 43 -66 1.46549e-014
      vertex 43 -66 5.3
    endloop
  endfacet
  facet normal 0 -1 0
    outer loop
      vertex 43 -66 1.46549e-014
      vertex 40 -66 2
      vertex -3 -66 1.46549e-014
    endloop
  endfacet
  facet normal 1 -0 0
    outer loop
      vertex 43 -66 5.3
      vertex 43 -38 8.43769e-015
      vertex 43 -38 5.3
    endloop
  endfacet
  facet normal 1 0 0
    outer loop
      vertex 43 -38 8.43769e-015
      vertex 43 -66 5.3
      vertex 43 -66 1.46549e-014
    endloop
  endfacet
  facet normal 0 1 -0
    outer loop
      vertex 0 -38 2
      vertex -3 -38 5.3
      vertex 0 -38 5.3
    endloop
  endfacet
  facet normal 0 1 0
    outer loop
      vertex -3 -38 8.43769e-015
      vertex 0 -38 2
      vertex 0 -38 8.43769e-015
    endloop
  endfacet
  facet normal 0 1 0
    outer loop
      vertex 0 -38 2
      vertex -3 -38 8.43769e-015
      vertex -3 -38 5.3
    endloop
  endfacet
  facet normal 0 1 0
    outer loop
      vertex 43 -38 5.3
      vertex 40 -38 2
      vertex 40 -38 5.3
    endloop
  endfacet
  facet normal 0 1 -0
    outer loop
      vertex 43 -38 8.43769e-015
      vertex 40 -38 2
      vertex 43 -38 5.3
    endloop
  endfacet
  facet normal 0 1 0
    outer loop
      vertex 40 -38 2
      vertex 43 -38 8.43769e-015
      vertex 40 -38 8.43769e-015
    endloop
  endfacet
  facet normal 0 -2.22045e-016 -1
    outer loop
      vertex 39 -45 9.99201e-015
      vertex 43 -38 8.43769e-015
      vertex 43 -66 1.46549e-014
    endloop
  endfacet
  facet normal 0 -2.22045e-016 -1
    outer loop
      vertex 39 -45 9.99201e-015
      vertex 43 -66 1.46549e-014
      vertex 39 -59 1.31006e-014
    endloop
  endfacet
  facet normal 0 -2.22045e-016 -1
    outer loop
      vertex 43 -66 1.46549e-014
      vertex 1 -59 1.31006e-014
      vertex 39 -59 1.31006e-014
    endloop
  endfacet
  facet normal 0 -2.22045e-016 -1
    outer loop
      vertex -3 -38 8.43769e-015
      vertex 1 -45 9.99201e-015
      vertex 1 -59 1.31006e-014
    endloop
  endfacet
  facet normal 0 -2.22045e-016 -1
    outer loop
      vertex -3 -66 1.46549e-014
      vertex 1 -59 1.31006e-014
      vertex 43 -66 1.46549e-014
    endloop
  endfacet
  facet normal 0 -2.22045e-016 -1
    outer loop
      vertex -3 -38 8.43769e-015
      vertex 1 -59 1.31006e-014
      vertex -3 -66 1.46549e-014
    endloop
  endfacet
  facet normal 0 -2.22045e-016 -1
    outer loop
      vertex 1 -45 9.99201e-015
      vertex -3 -38 8.43769e-015
      vertex 0 -38 8.43769e-015
    endloop
  endfacet
  facet normal -0 -2.22045e-016 -1
    outer loop
      vertex 43 -38 8.43769e-015
      vertex 39 -45 9.99201e-015
      vertex 40 -38 8.43769e-015
    endloop
  endfacet
  facet normal 0 -2.22045e-016 -1
    outer loop
      vertex 1 -45 9.99201e-015
      vertex 40 -38 8.43769e-015
      vertex 39 -45 9.99201e-015
    endloop
  endfacet
  facet normal -0 -2.22045e-016 -1
    outer loop
      vertex 40 -38 8.43769e-015
      vertex 1 -45 9.99201e-015
      vertex 0 -38 8.43769e-015
    endloop
  endfacet
  facet normal -0 0 1
    outer loop
      vertex -3 -38 5.3
      vertex 0 -48 5.3
      vertex 0 -38 5.3
    endloop
  endfacet
  facet normal 0 0 1
    outer loop
      vertex 0 -48 5.3
      vertex -3 -38 5.3
      vertex 0 -56 5.3
    endloop
  endfacet
  facet normal 0 0 1
    outer loop
      vertex -3 -66 5.3
      vertex 0 -56 5.3
      vertex -3 -38 5.3
    endloop
  endfacet
  facet normal 0 0 1
    outer loop
      vertex 0 -56 5.3
      vertex -3 -66 5.3
      vertex 0 -66 5.3
    endloop
  endfacet
  facet normal -0 0 1
    outer loop
      vertex 0 -48 5.3
      vertex 40 -56 5.3
      vertex 40 -48 5.3
    endloop
  endfacet
  facet normal 0 0 1
    outer loop
      vertex 40 -56 5.3
      vertex 0 -48 5.3
      vertex 0 -56 5.3
    endloop
  endfacet
  facet normal 0 0 1
    outer loop
      vertex 40 -48 5.3
      vertex 43 -38 5.3
      vertex 40 -38 5.3
    endloop
  endfacet
  facet normal 0 0 1
    outer loop
      vertex 43 -38 5.3
      vertex 40 -48 5.3
      vertex 43 -66 5.3
    endloop
  endfacet
  facet normal -0 0 1
    outer loop
      vertex 40 -56 5.3
      vertex 43 -66 5.3
      vertex 40 -48 5.3
    endloop
  endfacet
  facet normal 0 0 1
    outer loop
      vertex 43 -66 5.3
      vertex 40 -56 5.3
      vertex 40 -66 5.3
    endloop
  endfacet
  facet normal 1 0 0
    outer loop
      vertex 0 -56 5.3
      vertex 0 -66 5.3
      vertex 0 -56 3.3
    endloop
  endfacet
  facet normal 1 0 0
    outer loop
      vertex 0 -48 3.3
      vertex 0 -38 5.3
      vertex 0 -48 5.3
    endloop
  endfacet
  facet normal 1 0 0
    outer loop
      vertex 0 -38 5.3
      vertex 0 -48 3.3
      vertex 0 -38 2
    endloop
  endfacet
  facet normal 1 -0 0
    outer loop
      vertex 0 -56 3.3
      vertex 0 -38 2
      vertex 0 -48 3.3
    endloop
  endfacet
  facet normal 1 0 0
    outer loop
      vertex 0 -56 3.3
      vertex 0 -66 2
      vertex 0 -38 2
    endloop
  endfacet
  facet normal 1 0 0
    outer loop
      vertex 0 -66 2
      vertex 0 -56 3.3
      vertex 0 -66 5.3
    endloop
  endfacet
  facet normal -1 0 0
    outer loop
      vertex 40 -38 2
      vertex 40 -48 3.3
      vertex 40 -38 5.3
    endloop
  endfacet
  facet normal -1 0 0
    outer loop
      vertex 40 -38 2
      vertex 40 -56 3.3
      vertex 40 -48 3.3
    endloop
  endfacet
  facet normal -1 0 0
    outer loop
      vertex 40 -66 2
      vertex 40 -56 3.3
      vertex 40 -38 2
    endloop
  endfacet
  facet normal -1 0 0
    outer loop
      vertex 40 -66 5.3
      vertex 40 -56 3.3
      vertex 40 -66 2
    endloop
  endfacet
  facet normal -1 0 0
    outer loop
      vertex 40 -56 3.3
      vertex 40 -66 5.3
      vertex 40 -56 5.3
    endloop
  endfacet
  facet normal -1 -0 0
    outer loop
      vertex 40 -38 5.3
      vertex 40 -48 3.3
      vertex 40 -48 5.3
    endloop
  endfacet
  facet normal 0 0 -1
    outer loop
      vertex 0 -56 3.3
      vertex 40 -48 3.3
      vertex 40 -56 3.3
    endloop
  endfacet
  facet normal -0 0 -1
    outer loop
      vertex 40 -48 3.3
      vertex 0 -56 3.3
      vertex 0 -48 3.3
    endloop
  endfacet
  facet normal 0 0 1
    outer loop
      vertex 40 -38 2
      vertex 39 -45 2
      vertex 40 -66 2
    endloop
  endfacet
  facet normal 0 0 1
    outer loop
      vertex 40 -38 2
      vertex 1 -45 2
      vertex 39 -45 2
    endloop
  endfacet
  facet normal 0 0 1
    outer loop
      vertex 1 -45 2
      vertex 0 -38 2
      vertex 1 -59 2
    endloop
  endfacet
  facet normal -0 0 1
    outer loop
      vertex 0 -38 2
      vertex 1 -45 2
      vertex 40 -38 2
    endloop
  endfacet
  facet normal -0 0 1
    outer loop
      vertex 39 -59 2
      vertex 40 -66 2
      vertex 39 -45 2
    endloop
  endfacet
  facet normal -0 0 1
    outer loop
      vertex 1 -59 2
      vertex 40 -66 2
      vertex 39 -59 2
    endloop
  endfacet
  facet normal 0 0 1
    outer loop
      vertex 1 -59 2
      vertex 0 -66 2
      vertex 40 -66 2
    endloop
  endfacet
  facet normal 0 0 1
    outer loop
      vertex 0 -66 2
      vertex 1 -59 2
      vertex 0 -38 2
    endloop
  endfacet
  facet normal 0 1 -0
    outer loop
      vertex 40 -48 3.3
      vertex 0 -48 5.3
      vertex 40 -48 5.3
    endloop
  endfacet
  facet normal 0 1 0
    outer loop
      vertex 0 -48 5.3
      vertex 40 -48 3.3
      vertex 0 -48 3.3
    endloop
  endfacet
  facet normal 0 -1 0
    outer loop
      vertex 0 -56 3.3
      vertex 40 -56 5.3
      vertex 0 -56 5.3
    endloop
  endfacet
  facet normal 0 -1 -0
    outer loop
      vertex 40 -56 5.3
      vertex 0 -56 3.3
      vertex 40 -56 3.3
    endloop
  endfacet
  facet normal 1 -0 0
    outer loop
      vertex 1 -59 2
      vertex 1 -45 9.99201e-015
      vertex 1 -45 2
    endloop
  endfacet
  facet normal 1 0 0
    outer loop
      vertex 1 -45 9.99201e-015
      vertex 1 -59 2
      vertex 1 -59 1.31006e-014
    endloop
  endfacet
  facet normal 0 1 -0
    outer loop
      vertex 39 -59 1.31006e-014
      vertex 1 -59 2
      vertex 39 -59 2
    endloop
  endfacet
  facet normal 0 1 0
    outer loop
      vertex 1 -59 2
      vertex 39 -59 1.31006e-014
      vertex 1 -59 1.31006e-014
    endloop
  endfacet
  facet normal -1 0 0
    outer loop
      vertex 39 -59 1.31006e-014
      vertex 39 -45 2
      vertex 39 -45 9.99201e-015
    endloop
  endfacet
  facet normal -1 -0 0
    outer loop
      vertex 39 -45 2
      vertex 39 -59 1.31006e-014
      vertex 39 -59 2
    endloop
  endfacet
  facet normal 0 -1 0
    outer loop
      vertex 1 -45 9.99201e-015
      vertex 39 -45 2
      vertex 1 -45 2
    endloop
  endfacet
  facet normal 0 -1 -0
    outer loop
      vertex 39 -45 2
      vertex 1 -45 9.99201e-015
      vertex 39 -45 9.99201e-015
    endloop
  endfacet
  facet normal -1 0 0
    outer loop
      vertex 12 -56 0
      vertex 12 -48 3.3
      vertex 12 -48 0
    endloop
  endfacet
  facet normal -1 -0 0
    outer loop
      vertex 12 -48 3.3
      vertex 12 -56 0
      vertex 12 -56 3.3
    endloop
  endfacet
  facet normal -0 0 1
    outer loop
      vertex 12 -48 3.3
      vertex 12.6 -56 3.3
      vertex 12.6 -48 3.3
    endloop
  endfacet
  facet normal 0 0 1
    outer loop
      vertex 12.6 -56 3.3
      vertex 12 -48 3.3
      vertex 12 -56 3.3
    endloop
  endfacet
  facet normal 1 -0 0
    outer loop
      vertex 12.6 -56 3.3
      vertex 12.6 -48 0
      vertex 12.6 -48 3.3
    endloop
  endfacet
  facet normal 1 0 0
    outer loop
      vertex 12.6 -48 0
      vertex 12.6 -56 3.3
      vertex 12.6 -56 0
    endloop
  endfacet
  facet normal 0 0 -1
    outer loop
      vertex 12 -56 0
      vertex 12.6 -48 0
      vertex 12.6 -56 0
    endloop
  endfacet
  facet normal -0 0 -1
    outer loop
      vertex 12.6 -48 0
      vertex 12 -56 0
      vertex 12 -48 0
    endloop
  endfacet
  facet normal 0 -1 0
    outer loop
      vertex 12 -56 0
      vertex 12.6 -56 3.3
      vertex 12 -56 3.3
    endloop
  endfacet
  facet normal 0 -1 -0
    outer loop
      vertex 12.6 -56 3.3
      vertex 12 -56 0
      vertex 12.6 -56 0
    endloop
  endfacet
  facet normal 0 1 -0
    outer loop
      vertex 12.6 -48 0
      vertex 12 -48 3.3
      vertex 12.6 -48 3.3
    endloop
  endfacet
  facet normal 0 1 0
    outer loop
      vertex 12 -48 3.3
      vertex 12.6 -48 0
      vertex 12 -48 0
    endloop
  endfacet
  facet normal -1 0 0
    outer loop
      vertex 28 -56 0
      vertex 28 -48 3.3
      vertex 28 -48 0
    endloop
  endfacet
  facet normal -1 -0 0
    outer loop
      vertex 28 -48 3.3
      vertex 28 -56 0
      vertex 28 -56 3.3
    endloop
  endfacet
  facet normal -0 0 1
    outer loop
      vertex 28 -48 3.3
      vertex 28.6 -56 3.3
      vertex 28.6 -48 3.3
    endloop
  endfacet
  facet normal 0 0 1
    outer loop
      vertex 28.6 -56 3.3
      vertex 28 -48 3.3
      vertex 28 -56 3.3
    endloop
  endfacet
  facet normal 1 -0 0
    outer loop
      vertex 28.6 -56 3.3
      vertex 28.6 -48 0
      vertex 28.6 -48 3.3
    endloop
  endfacet
  facet normal 1 0 0
    outer loop
      vertex 28.6 -48 0
      vertex 28.6 -56 3.3
      vertex 28.6 -56 0
    endloop
  endfacet
  facet normal 0 0 -1
    outer loop
      vertex 28 -56 0
      vertex 28.6 -48 0
      vertex 28.6 -56 0
    endloop
  endfacet
  facet normal -0 0 -1
    outer loop
      vertex 28.6 -48 0
      vertex 28 -56 0
      vertex 28 -48 0
    endloop
  endfacet
  facet normal 0 -1 0
    outer loop
      vertex 28 -56 0
      vertex 28.6 -56 3.3
      vertex 28 -56 3.3
    endloop
  endfacet
  facet normal 0 -1 -0
    outer loop
      vertex 28.6 -56 3.3
      vertex 28 -56 0
      vertex 28.6 -56 0
    endloop
  endfacet
  facet normal 0 1 -0
    outer loop
      vertex 28.6 -48 0
      vertex 28 -48 3.3
      vertex 28.6 -48 3.3
    endloop
  endfacet
  facet normal 0 1 0
    outer loop
      vertex 28 -48 3.3
      vertex 28.6 -48 0
      vertex 28 -48 0
    endloop
  endfacet
endsolid OpenSCAD_Model
